<svg width="127" height="30" viewBox="0 0 127 30" fill="none" xmlns="http://www.w3.org/2000/svg">
<g clip-path="url(#clip0_1716_15502)">
<path d="M35.5058 16.5424C35.6646 15.1991 36.9327 14.5932 37.8839 14.7249C41.979 15.1199 51.4647 15.1991 55.5071 14.7249C56.5637 14.5932 57.7791 15.1725 57.9112 16.6215C58.0433 18.07 56.96 18.755 56.0354 18.9132C54.7406 19.0974 51.993 19.2032 48.9278 19.2291V25.6566C48.9278 26.6308 47.6858 27.2367 46.6818 27.2367C45.6779 27.2367 44.4886 26.6308 44.4886 25.6566V19.2557C41.5295 19.2291 38.8078 19.124 37.381 18.9132C36.3771 18.755 35.3198 18.0174 35.5052 16.5424H35.5058ZM52.1251 14.1976C50.6722 13.9868 50.2493 12.67 50.3547 11.9584C50.5134 10.7734 50.6982 9.32428 50.7509 8.35C50.7509 8.16578 50.7509 7.74417 50.0639 7.74417H39.4422C38.3329 7.74417 37.7779 6.53249 37.7779 5.63672C37.7779 4.55672 38.597 3.6084 39.4422 3.6084H52.7588C53.6834 3.6084 54.7667 4.18765 54.9781 5.4525C55.3217 7.71758 55.0835 10.536 54.6346 12.67C54.4758 13.4075 53.5513 14.4084 52.1244 14.1976H52.1251Z" fill="#333333"/>
<path d="M65.3878 8.8235C66.6032 9.00772 68.6905 9.1394 70.3021 9.1394C72.4687 9.1394 74.688 8.8235 76.5378 8.2968C77.489 8.03345 78.6517 8.27021 78.9686 9.35021C79.2594 10.3511 78.7838 11.2468 77.938 11.6153C76.2736 12.3528 74.001 12.6427 71.9137 12.7478V13.5379C74.5033 13.5113 76.934 13.4062 78.519 13.222C79.4969 13.1429 80.8444 13.4853 80.8971 14.9604C80.9498 16.3303 79.9458 16.9621 79.0213 17.1204C75.8768 17.5154 64.0137 17.6211 60.3675 17.1204C59.3636 16.9621 58.3597 16.3563 58.4917 14.8812C58.5971 13.5904 59.9446 13.1429 60.8698 13.222C62.4814 13.3803 64.8855 13.4853 67.4751 13.5379V12.7212C65.6253 12.6162 63.7762 12.3788 62.7456 11.9571C61.9792 11.6412 60.9492 10.8771 60.7111 9.69206C60.4202 8.34871 60.4996 6.34698 60.6584 5.18785C60.8171 4.18698 61.9264 3.34375 62.6402 3.34375H76.7493C77.5157 3.34375 78.4136 4.02872 78.4136 5.10872C78.4136 6.18871 77.7265 6.95282 76.7493 6.95282H65.3351C65.0183 6.95282 64.8595 7.16362 64.8595 7.47952V8.26958C64.8855 8.58547 65.0443 8.74374 65.3878 8.82287V8.8235ZM76.5911 18.596C77.3309 18.596 78.3875 19.0176 78.6257 20.4927C78.8371 21.7309 78.7844 23.7061 78.4936 25.3128C78.3348 26.182 77.3843 27.1037 75.9574 26.9195C74.6626 26.7612 74.1077 25.4179 74.2397 24.6278C74.3458 24.022 74.3985 23.4687 74.3985 23.1528C74.3985 22.916 74.3718 22.4678 73.6587 22.4678H61.8217C60.9498 22.4678 60.2894 21.4669 60.2894 20.5712C60.2894 19.6754 60.8177 18.5954 61.8217 18.5954H76.5911V18.596Z" fill="#333333"/>
<path d="M96.7236 12.8805C97.0404 14.0922 96.3007 14.8563 95.4555 15.3039C94.1341 15.9888 91.4925 16.2781 89.6954 16.2781C87.8984 16.2781 85.7584 15.8306 84.7545 15.409C84.0407 15.0665 83.0368 14.3815 82.7466 13.1964C82.3237 11.2998 82.4297 7.21718 82.7466 5.42563C82.9581 4.24054 83.9887 3.60811 84.7284 3.60811H94.5576C95.4561 3.60811 96.2486 4.55644 96.2486 5.63643C96.2486 6.53221 95.6936 7.74388 94.5576 7.74388H87.45C87.1592 7.74388 86.9744 7.87556 86.9478 8.1655C86.8684 9.16637 86.8157 10.0356 86.8951 11.0364C86.9211 11.484 87.1065 11.7473 87.5288 11.8531C88.1365 11.9847 88.929 12.0639 89.8542 12.0639C91.4398 12.0639 92.8926 11.8005 93.8439 11.5372C95.0326 11.2213 96.354 11.4321 96.7236 12.8805ZM83.5658 25.4448C83.2749 24.3123 83.8826 23.1797 85.0186 22.9423C88.3479 22.2314 91.5185 20.3873 91.5185 18.4907V18.3856C91.5185 17.543 92.417 16.7523 93.6324 16.7523C94.8478 16.7523 95.9578 17.4107 95.9578 18.3856V18.7281C95.9578 22.679 90.7794 26.0507 86.208 26.8939C85.3888 27.0522 83.962 26.9464 83.5658 25.4455V25.4448ZM102.378 22.8107C103.408 23.3374 103.857 24.7599 103.197 25.7607C102.404 26.9724 101.03 26.9458 100.106 26.4716L96.3273 24.5225C95.4028 24.0483 94.9532 22.7315 95.5082 21.5984C96.1159 20.3867 97.7275 20.3867 98.52 20.8083L102.378 22.81V22.8107ZM102.536 8.61307H103.884C104.835 8.61307 105.602 9.64053 105.602 10.6673C105.602 11.5631 105.073 12.7748 104.016 12.7748H102.536C102.484 14.039 102.404 15.2247 102.325 16.199C102.22 17.3056 101.216 18.2273 99.9208 18.0691C98.5994 17.9108 97.8596 16.9099 97.9129 15.8565C98.1771 12.6691 98.1511 8.77071 97.9129 5.47817C97.8602 4.45072 98.5473 3.44985 99.8414 3.29159C101.136 3.13332 102.167 3.97655 102.325 5.1091C102.43 6.10996 102.51 7.32163 102.536 8.61244V8.61307Z" fill="#333333"/>
<path d="M107.371 11.3267C106.499 11.3267 105.812 10.7475 105.839 9.56174C105.813 8.45515 106.578 7.79677 107.371 7.79677H111.677C112.497 7.79677 113.262 8.29752 113.289 9.56174C113.262 10.5626 112.734 11.3267 111.677 11.3267H107.371ZM119.445 6.90163C119.445 12.8809 114.135 15.7524 108.348 16.1209C107.37 16.1734 106.155 15.8309 106.049 14.5401C105.944 13.1176 106.921 12.5643 108.031 12.4858C112.417 12.2491 114.637 11.0374 114.927 7.90249C114.98 7.32324 114.663 7.19157 114.003 7.19157H108.031C107.239 7.19157 106.235 6.8225 106.235 5.40065C106.235 4.08389 107.292 3.60972 108.031 3.60972H116.618C118.389 3.60972 119.445 5.16388 119.445 6.90226V6.90163ZM117.464 26.9468C115.006 26.9468 111.889 26.71 110.33 26.1042C109.564 25.7883 108.533 25.0242 108.295 23.8651C108.005 22.5217 108.031 20.1509 108.269 18.7284C108.507 17.3851 109.564 16.8318 110.303 16.8318H124.809C125.548 16.8318 126.711 17.4642 126.843 18.7284C127.002 20.1509 127.107 22.5217 126.816 23.8651C126.578 24.9451 125.574 25.8408 124.65 26.1301C122.615 26.7885 119.868 26.9202 117.464 26.9468ZM121.876 20.7042H113.13C112.47 20.7042 112.443 20.9941 112.443 21.1784C112.417 21.4683 112.417 21.7842 112.443 22.0741C112.443 22.4166 112.628 22.6008 113.051 22.68C114.24 22.8642 116.089 22.9959 117.675 22.9959C119.339 22.9959 120.925 22.9167 122.088 22.7059C122.457 22.6534 122.616 22.4692 122.643 22.1001C122.643 21.8633 122.669 21.5993 122.643 21.3626C122.643 21.0992 122.617 20.7042 121.876 20.7042ZM126.738 14.3559C126.632 15.4625 125.628 16.3842 124.334 16.2259C123.012 16.0677 122.273 15.0668 122.326 14.0134C122.378 13.355 122.431 12.7226 122.458 12.1168H120.767C119.71 12.1168 119.181 10.9051 119.181 10.0093C119.181 8.98186 119.948 7.95504 120.899 7.95504H122.458C122.432 7.19094 122.378 6.40088 122.326 5.47915C122.273 4.45169 122.96 3.45083 124.254 3.29256C125.549 3.1343 126.58 3.97753 126.738 5.11007C127.081 8.13926 127.029 11.3527 126.738 14.3559Z" fill="#333333"/>
<path d="M7.19238 0.0424062C7.19238 0.0424062 16.3154 -1.16104 16.0513 9.25404C16.0513 9.25404 9.77747 8.3456 7.19238 0.0424062Z" fill="#23B16C"/>
<path d="M16.0239 8.9943C16.0239 8.9943 15.225 0.87913 22.8723 0.950665C22.8723 0.950665 24.1468 5.97841 16.0245 8.9943H16.0239Z" fill="#23B16C"/>
<path d="M14.938 8.4668C14.938 8.4668 15.1799 12.7558 16.0003 12.7615C17.123 12.7697 17.2716 8.4668 17.2716 8.4668H14.938Z" fill="#23B16C"/>
<path d="M13.9722 7.21387L16.2296 7.27527C16.2296 7.27527 29.1677 9.59733 29.8465 9.95691C30.3374 10.2171 31.3947 11.9631 32.4938 13.6362C32.8266 14.1427 33.1149 14.508 33.0399 14.9214C32.9669 15.3227 32.1744 15.5557 31.4696 15.8184C30.3266 16.2438 29.3843 16.5812 29.3843 16.5812V10.7432L13.9722 7.21387Z" fill="#23B16C"/>
<path d="M16.0664 15.8083C15.9718 15.8083 15.8791 15.7931 15.7908 15.7633L3.21716 11.5256C2.85458 11.4035 2.61963 11.0648 2.63233 10.683C2.64503 10.3273 2.95681 9.83537 3.34035 9.73472L14.9221 6.82961C14.992 6.81125 15.0656 6.80176 15.1393 6.80176C15.2066 6.80176 15.2739 6.80999 15.3399 6.82518L29.4496 10.1924C29.8275 10.2829 30.0993 10.6159 30.11 11.0034C30.1208 11.3908 29.8681 11.739 29.4954 11.8498L16.3121 15.7728C16.2321 15.7963 16.1496 15.8089 16.0658 15.8089L16.0664 15.8083ZM16.0823 14.0496L25.933 11.1186L15.1494 8.5452L6.48614 10.8153L16.0816 14.0496H16.0823Z" fill="#23B16C"/>
<path d="M15.14 6.91021C15.1991 6.91021 15.2575 6.91717 15.3153 6.9311L29.4244 10.2983C29.7552 10.3775 29.9921 10.668 30.0016 11.0074C30.0111 11.3467 29.7908 11.6499 29.4644 11.7474L16.2811 15.6705C16.2107 15.6914 16.1383 15.7021 16.0659 15.7021C15.9846 15.7021 15.9027 15.6888 15.8246 15.6629L3.25221 11.4239C2.93725 11.3176 2.72961 11.0181 2.74104 10.687C2.75247 10.3559 3.04711 9.92357 3.36842 9.83937L14.9489 6.93427C15.0118 6.91781 15.0759 6.90958 15.14 6.90958M16.0805 14.1632L26.3503 11.1074L15.1489 8.43461L6.11035 10.8035L16.0805 14.1638M15.14 6.69434C15.0569 6.69434 14.9743 6.7051 14.8937 6.72599L3.31571 9.63046C2.87883 9.74504 2.53847 10.2787 2.5245 10.6794C2.5099 11.1093 2.77406 11.4904 3.18236 11.6284L15.7554 15.8661C15.8557 15.8996 15.9598 15.9167 16.0659 15.9167C16.1599 15.9167 16.2532 15.9028 16.3434 15.8762L29.5266 11.9532C29.9457 11.8284 30.2302 11.4366 30.2181 11.001C30.2061 10.5649 29.9006 10.1895 29.4752 10.0882L15.3661 6.72092C15.2918 6.7032 15.2162 6.69434 15.14 6.69434ZM6.86282 10.8288L15.1515 8.65682L25.5166 11.1302L16.0849 13.9372L6.86346 10.8288H6.86282Z" fill="#23B16C"/>
<path d="M16.0665 29.8914C15.8589 29.8914 15.6595 29.8281 15.4906 29.7078C15.229 29.5223 15.0728 29.2203 15.0728 28.9006V14.9499C15.0728 14.5157 15.3649 14.1251 15.782 14.0003L28.9653 10.0773C29.058 10.0501 29.1532 10.0361 29.2498 10.0361C29.465 10.0361 29.6708 10.1039 29.8435 10.2324C30.0937 10.4185 30.2435 10.7154 30.2435 11.0269V22.8929C30.2435 24.1787 29.425 25.3258 28.2071 25.7474L16.3929 29.8363C16.2875 29.8724 16.1777 29.8907 16.0672 29.8907L16.0665 29.8914ZM17.0603 27.5079L27.5549 23.8754C27.974 23.7305 28.256 23.3354 28.256 22.8929V12.3563L17.0603 15.6874V27.5073V27.5079Z" fill="#23B16C"/>
<path d="M29.2498 10.1446C29.4384 10.1446 29.6238 10.2047 29.7788 10.3193C30.0029 10.4858 30.135 10.7485 30.135 11.0271V22.8931C30.135 24.1326 29.3457 25.2386 28.1709 25.645L16.3561 29.7339C16.2615 29.7669 16.1631 29.7827 16.0659 29.7827C15.8843 29.7827 15.7046 29.727 15.5522 29.6194C15.3185 29.4535 15.1801 29.1857 15.1801 28.9002V14.9495C15.1801 14.5589 15.4373 14.2151 15.8126 14.1037L28.9958 10.1807C29.079 10.156 29.1647 10.144 29.2492 10.144M16.9518 27.66L27.5905 23.9782C28.0535 23.818 28.364 23.3825 28.364 22.8937V12.2122L16.9518 15.6079V27.6594M29.2498 9.92871C29.1431 9.92871 29.0371 9.9439 28.9348 9.97429L15.7516 13.8974C15.2881 14.0354 14.9648 14.4684 14.9648 14.9501V28.9008C14.9648 29.256 15.1382 29.5902 15.4278 29.796C15.6151 29.9289 15.8361 29.9992 16.0666 29.9992C16.1898 29.9992 16.311 29.9789 16.4279 29.9384L28.2427 25.8495C29.5044 25.4127 30.3522 24.2251 30.3522 22.8937V11.0277C30.3522 10.6821 30.1864 10.3529 29.9083 10.1465C29.7197 10.0059 29.4854 9.92871 29.2498 9.92871ZM17.1683 15.7693L28.1474 12.5021V22.8937C28.1474 23.29 27.8947 23.6439 27.5194 23.7743L17.1683 27.3568V15.7693Z" fill="#23B16C"/>
<path d="M16.0657 29.8922C15.9343 29.8922 15.806 29.8662 15.6835 29.8156L4.82432 25.3019C3.69212 24.8309 2.95996 23.7363 2.95996 22.5132V16.8657C2.95996 16.3194 3.40573 15.875 3.95374 15.875C4.50174 15.875 4.94751 16.3194 4.94751 16.8657V22.5132C4.94751 22.9342 5.19961 23.3109 5.5895 23.473L16.448 27.9867C16.6931 28.0886 16.8836 28.2791 16.9846 28.5241C17.0855 28.7691 17.0849 29.0382 16.9827 29.2825C16.8277 29.6529 16.4677 29.8922 16.0651 29.8922H16.0657Z" fill="#23B16C"/>
<path d="M3.95426 15.9825C4.44321 15.9825 4.84009 16.3775 4.84009 16.8656V22.5131C4.84009 22.9778 5.11822 23.3937 5.54811 23.5722L16.4066 28.0859C16.8581 28.2733 17.0715 28.7905 16.8829 29.2406C16.7413 29.5793 16.4117 29.7838 16.065 29.7838C15.9513 29.7838 15.8357 29.7616 15.7246 29.7154L4.86549 25.2017C3.77329 24.7478 3.0678 23.6919 3.0678 22.5125V16.865C3.0678 16.3775 3.46404 15.9818 3.95363 15.9818M3.95426 15.7666C3.34657 15.7666 2.85254 16.2598 2.85254 16.865V22.5125C2.85254 23.7792 3.61073 24.913 4.78357 25.4005L15.6427 29.9142C15.778 29.9705 15.9208 29.999 16.0663 29.999C16.5127 29.999 16.9121 29.7338 17.0835 29.3229C17.1966 29.052 17.1978 28.7538 17.0854 28.4822C16.9737 28.2106 16.7622 27.9992 16.4904 27.8865L5.63193 23.3728C5.28268 23.2278 5.05662 22.8898 5.05662 22.5125V16.865C5.05662 16.2591 4.56259 15.7666 3.9549 15.7666H3.95426Z" fill="#23B16C"/>
<path d="M12.467 20.7198C12.2231 20.7198 11.9837 20.6768 11.7558 20.5926L1.44907 16.7758C0.866771 16.56 0.418461 16.1004 0.218436 15.5148C0.0184111 14.9286 0.0920711 14.2917 0.421636 13.7669L2.64795 10.1901C2.83083 9.89704 3.14642 9.72168 3.4925 9.72168C3.60045 9.72168 3.70776 9.7394 3.81063 9.77359L16.3836 14.0113C16.6738 14.1094 16.8986 14.3303 17.0015 14.6171C17.1044 14.9045 17.0701 15.2173 16.9075 15.4762L14.2145 19.7582C13.8424 20.3507 13.1731 20.7192 12.4663 20.7192L12.467 20.7198ZM2.10883 14.8146C2.0955 14.8362 2.09296 14.8545 2.09994 14.876C2.10947 14.9033 2.12661 14.9128 2.14122 14.9185L12.4473 18.7352C12.4549 18.7377 12.4625 18.7396 12.4708 18.7396C12.4943 18.7396 12.5171 18.7269 12.5298 18.7073L14.5548 15.4876L3.92049 11.9038L2.1082 14.8153L2.10883 14.8146Z" fill="#23B16C"/>
<path d="M3.49334 9.83013C3.58796 9.83013 3.68321 9.84532 3.77655 9.87698L16.3496 14.1147C16.6061 14.2014 16.8093 14.4002 16.9001 14.6547C16.9909 14.9092 16.9604 15.1909 16.8163 15.42L14.1232 19.702C13.7607 20.2807 13.1244 20.6124 12.4672 20.6124C12.2417 20.6124 12.0138 20.5731 11.7941 20.4921L1.48738 16.6754C0.936195 16.4715 0.51138 16.036 0.321515 15.4808C0.13165 14.9256 0.202135 14.3223 0.51392 13.8247L2.74087 10.2479C2.90597 9.9827 3.19362 9.83076 3.49334 9.83076M12.4716 18.8474C12.5313 18.8474 12.5891 18.817 12.6221 18.7645L14.7195 15.4289L3.87434 11.7736L2.01633 14.7579C1.9776 14.8193 1.98458 14.875 1.99728 14.9111C2.00935 14.9471 2.03792 14.9953 2.10333 15.0199L12.41 18.8366C12.4303 18.8442 12.4507 18.8474 12.471 18.8474M3.49334 9.61426C3.10917 9.61426 2.75928 9.80861 2.55672 10.1334L0.32977 13.7108C-0.0163048 14.2628 -0.0944098 14.9332 0.11641 15.5498C0.32723 16.1664 0.799035 16.6501 1.41181 16.8773L11.7185 20.694C11.9585 20.7827 12.2106 20.8283 12.4672 20.8283C13.2107 20.8283 13.9156 20.4408 14.3068 19.8166L16.9992 15.5353C17.1795 15.2485 17.2176 14.9016 17.1033 14.5825C16.9896 14.2641 16.7394 14.0191 16.4181 13.9108L3.84577 9.6725C3.73147 9.63388 3.61336 9.61426 3.49334 9.61426ZM2.22461 14.8345L3.96832 12.0332L14.3912 15.546L12.4557 18.6233L2.22398 14.8345H2.22461Z" fill="#23B16C"/>
<path d="M20.9004 20.112C20.4845 20.112 20.1479 19.7759 20.1479 19.3618V18.4338C20.1479 18.0191 20.4851 17.6836 20.9004 17.6836C21.3157 17.6836 21.6529 18.0197 21.6529 18.4338V19.3618C21.6529 19.7765 21.3157 20.112 20.9004 20.112Z" fill="#23B16C"/>
<path d="M24.4512 19.0104C24.0353 19.0104 23.6987 18.6743 23.6987 18.2603V17.3322C23.6987 16.9176 24.0359 16.582 24.4512 16.582C24.8665 16.582 25.2037 16.9182 25.2037 17.3322V18.2603C25.2037 18.6749 24.8665 19.0104 24.4512 19.0104Z" fill="#23B16C"/>
<path d="M22.7 23.396C20.7385 23.396 20.1658 22.6103 20.0369 22.3691C19.8413 22.0032 19.9803 21.5487 20.3467 21.3537C20.6909 21.1708 21.1132 21.2809 21.3259 21.5968C21.3761 21.6418 21.7031 21.8943 22.7 21.8943C23.8786 21.8943 24.659 20.501 24.6666 20.4864C24.8629 20.1211 25.3188 19.9831 25.6852 20.1788C26.0516 20.3744 26.19 20.8289 25.9938 21.1942C25.9455 21.2841 24.7892 23.3947 22.6994 23.3947L22.7 23.396ZM21.3646 21.6626C21.3646 21.6626 21.3646 21.6626 21.3646 21.6633C21.3646 21.6633 21.3646 21.6633 21.3646 21.6626Z" fill="#23B16C"/>
</g>
<defs>
<clipPath id="clip0_1716_15502">
<rect width="127" height="30" fill="white"/>
</clipPath>
</defs>
</svg>
