<svg width="100" height="44" viewBox="0 0 100 44" fill="none" xmlns="http://www.w3.org/2000/svg">
<g clip-path="url(#clip0_1318_42039)">
<path d="M13.4648 22.7037C13.3962 22.7037 13.3263 22.6924 13.2601 22.6698L2.57879 18.9712C2.31161 18.8783 2.13512 18.6172 2.14492 18.3284C2.15473 18.0397 2.40475 17.6618 2.67807 17.589L12.5162 15.053C12.6179 15.0253 12.7245 15.0241 12.8275 15.0492L24.8141 17.9882C25.096 18.0572 25.297 18.3108 25.3044 18.6071C25.3117 18.9034 25.1254 19.1683 24.8484 19.2524L13.6486 22.6761C13.5886 22.6949 13.5273 22.7037 13.466 22.7037H13.4648ZM5.00676 18.4289L13.4771 21.3616L22.2011 18.6938L12.6853 16.3611L5.00676 18.4289Z" fill="white"/>
<path d="M5.92578 9.03704C5.92578 9.03704 13.6754 7.98623 13.4511 17.0782C13.4511 17.0782 8.12088 16.2848 5.92578 9.03704Z" fill="white"/>
<path d="M13.4265 16.8529C13.4265 16.8529 12.7475 9.76967 19.2446 9.83245C19.2446 9.83245 20.3268 14.2215 13.4265 16.8529Z" fill="white"/>
<path d="M12.5078 16.3906C12.5078 16.3906 12.7137 20.1344 13.4099 20.1394C14.3634 20.1469 14.4896 16.3906 14.4896 16.3906H12.5078Z" fill="white"/>
<path d="M13.4635 34.9967C13.309 34.9967 13.1558 34.9478 13.0271 34.8536C12.8286 34.7092 12.7109 34.4745 12.7109 34.2259V22.0493C12.7109 21.709 12.9291 21.4077 13.2478 21.3111L24.4475 17.8874C24.6755 17.8184 24.9219 17.8623 25.1118 18.008C25.3018 18.1536 25.4146 18.3821 25.4146 18.6257V28.9831C25.4146 30.0653 24.7441 31.0308 23.7465 31.3861L13.7098 34.9553C13.6289 34.9842 13.5456 34.998 13.4635 34.998V34.9967ZM14.2148 22.623V33.1424L23.2525 29.9285C23.646 29.7891 23.9095 29.4087 23.9095 28.9819V19.6589L14.2148 22.623Z" fill="white"/>
<path d="M13.4635 34.9992C13.3667 34.9992 13.2687 34.9804 13.1743 34.9402L3.94901 31.0006C3.02121 30.6038 2.42188 29.6823 2.42188 28.6529V23.724C2.42188 23.2984 2.75892 22.9531 3.17441 22.9531C3.5899 22.9531 3.92694 23.2984 3.92694 23.724V28.6529C3.92694 29.0584 4.16349 29.4212 4.52873 29.5781L13.754 33.5178C14.1376 33.681 14.319 34.1329 14.1585 34.5259C14.0384 34.8222 13.7589 35.0004 13.4635 35.0004V34.9992Z" fill="white"/>
<path d="M12.5977 15L14.5158 15.054C14.5158 15.054 24.4801 17.6264 25.0574 17.9403C25.4741 18.1675 26.3725 19.6916 27.3064 21.1517C27.5895 21.5936 27.8334 21.9125 27.7697 22.2728C27.7072 22.6231 27.0343 22.8265 26.4362 23.0562C25.4655 23.4278 24.6652 23.7229 24.6652 23.7229V18.627L12.5989 15.0013L12.5977 15Z" fill="white"/>
<path d="M10.4061 26.9944C10.2149 26.9944 10.0213 26.9605 9.83375 26.8889L1.0791 23.5569C0.610916 23.3787 0.249356 22.9983 0.0887989 22.5137C-0.0717581 22.0291 -0.012928 21.5018 0.251807 21.0686L2.14295 17.9463C2.32679 17.6425 2.69203 17.5082 3.02295 17.6224L13.7043 21.321C13.9224 21.3963 14.0953 21.5696 14.1725 21.7918C14.2497 22.014 14.2239 22.2601 14.1014 22.4597L11.8144 26.1972C11.5055 26.7019 10.965 26.9919 10.4073 26.9919L10.4061 26.9944ZM10.3583 25.4439C10.4245 25.469 10.5005 25.4439 10.5385 25.3811L12.3205 22.4697L3.10752 19.2796L1.52891 21.8847C1.49582 21.9387 1.50195 21.9864 1.51298 22.0178C1.52401 22.0492 1.54729 22.0918 1.60245 22.1132L10.3583 25.4439Z" fill="white"/>
<path d="M17.5695 26.5541C17.2165 26.5541 16.9297 26.2603 16.9297 25.8987V25.0889C16.9297 24.7274 17.2165 24.4336 17.5695 24.4336C17.9224 24.4336 18.2092 24.7274 18.2092 25.0889V25.8987C18.2092 26.2603 17.9224 26.5541 17.5695 26.5541Z" fill="white"/>
<path d="M20.589 25.5931C20.236 25.5931 19.9492 25.2993 19.9492 24.9378V24.128C19.9492 23.7664 20.236 23.4727 20.589 23.4727C20.942 23.4727 21.2288 23.7664 21.2288 24.128V24.9378C21.2288 25.2993 20.942 25.5931 20.589 25.5931Z" fill="white"/>
<path d="M19.0997 29.4212C17.4328 29.4212 16.9463 28.7357 16.8372 28.5248C16.6705 28.2059 16.7894 27.8092 17.1007 27.6385C17.3936 27.479 17.7515 27.5757 17.9329 27.8506C17.9758 27.8895 18.254 28.1105 19.1009 28.1105C20.1023 28.1105 20.7653 26.894 20.7714 26.8814C20.9381 26.5625 21.3254 26.442 21.6367 26.6127C21.948 26.7835 22.0657 27.1802 21.899 27.4991C21.8586 27.5769 20.8756 29.4199 19.1009 29.4199L19.0997 29.4212Z" fill="white"/>
<path d="M31.7964 22.8524C31.9167 21.8291 32.8775 21.3678 33.5979 21.4675C36.7013 21.7688 43.8876 21.8291 46.9506 21.4675C47.7519 21.3667 48.6723 21.8083 48.7728 22.9127C48.8734 24.0161 48.0525 24.5376 47.3518 24.6581C46.3712 24.7984 44.2888 24.8784 41.967 24.8992V29.7958C41.967 30.5387 41.0258 31 40.265 31C39.5041 31 38.6034 30.5387 38.6034 29.7958V24.92C36.3614 24.9003 34.2997 24.8192 33.2186 24.6592C32.4578 24.5387 31.6565 23.9766 31.7975 22.8535L31.7964 22.8524ZM44.3883 21.0665C43.2875 20.9054 42.9672 19.9028 43.047 19.3605C43.1672 18.4576 43.3072 17.3543 43.3476 16.6114C43.3476 16.4711 43.3476 16.1501 42.8273 16.1501H34.7796C33.939 16.1501 33.5181 15.2275 33.5181 14.5449C33.5181 13.7221 34.139 13 34.7796 13H44.8692C45.57 13 46.3909 13.4416 46.5505 14.4047C46.8107 16.1304 46.6303 18.2779 46.2903 19.9028C46.1701 20.4649 45.4694 21.2275 44.3883 21.0665Z" fill="white"/>
<path d="M54.0187 17.179C54.9399 17.3194 56.523 17.4203 57.745 17.4203C59.3883 17.4203 61.0709 17.179 62.4735 16.7774C63.1945 16.5766 64.0763 16.7577 64.317 17.5816C64.5369 18.3452 64.1769 19.0287 63.5358 19.3096C62.2733 19.8724 60.5502 20.0929 58.9682 20.1741V20.7764C60.932 20.7567 62.7755 20.6755 63.9767 20.5351C64.7185 20.4747 65.7403 20.7358 65.7797 21.8615C65.8202 22.906 65.0587 23.3887 64.3574 23.5094C61.9735 23.8111 52.9772 23.8912 50.2125 23.5094C49.451 23.3887 48.6896 22.9268 48.7902 21.8012C48.8701 20.817 49.892 20.4747 50.5932 20.5351C51.8153 20.6558 53.6391 20.7358 55.6018 20.7764V20.1533C54.1992 20.0732 52.7966 19.8922 52.0155 19.5707C51.4346 19.3293 50.6534 18.7468 50.4729 17.8427C50.253 16.818 50.3132 15.2908 50.4324 14.4065C50.5528 13.6429 51.3941 13 51.9356 13H62.6343C63.2153 13 63.8969 13.5222 63.8969 14.3462C63.8969 15.1701 63.3761 15.7527 62.6343 15.7527H53.9782C53.7375 15.7527 53.6172 15.914 53.6172 16.1542V16.7566C53.6369 16.9979 53.7572 17.1186 54.0176 17.179H54.0187ZM62.5151 24.6328C63.0763 24.6328 63.8772 24.9543 64.0577 26.08C64.2174 27.0246 64.178 28.5309 63.957 29.7564C63.8367 30.4191 63.1157 31.1224 62.0337 30.9819C61.0523 30.8612 60.6311 29.8365 60.7318 29.2342C60.8116 28.7723 60.8521 28.3499 60.8521 28.1085C60.8521 27.9275 60.8324 27.5863 60.2909 27.5863H51.3153C50.6545 27.5863 50.1534 26.8227 50.1534 26.1392C50.1534 25.4557 50.5538 24.6317 51.3153 24.6317H62.5151V24.6328Z" fill="white"/>
<path d="M77.2577 20.3048C77.4909 21.2255 76.947 21.8073 76.3258 22.1473C75.3546 22.6678 73.4133 22.8887 72.0933 22.8887C70.7734 22.8887 69.2 22.5487 68.4621 22.2283C67.9373 21.968 67.2004 21.4475 66.9862 20.5465C66.6756 19.1042 66.753 16.0009 66.9862 14.6384C67.1421 13.7373 67.8991 13.2562 68.443 13.2562H75.6663C76.3268 13.2562 76.9089 13.9768 76.9089 14.798C76.9089 15.4793 76.5007 16.4 75.6663 16.4H70.4436C70.2305 16.4 70.0938 16.5006 70.0747 16.7204C70.0164 17.4814 69.9771 18.1419 70.0354 18.903C70.0545 19.243 70.1902 19.4432 70.5009 19.5241C70.9472 19.6247 71.5304 19.6848 72.21 19.6848C73.3751 19.6848 74.4428 19.4847 75.1415 19.2846C76.0151 19.044 76.9863 19.2048 77.2577 20.3059V20.3048ZM67.5884 29.8575C67.3753 28.997 67.8217 28.1353 68.6561 27.9549C71.1031 27.4147 73.4324 26.0128 73.4324 24.5705V24.4907C73.4324 23.8499 74.0929 23.2496 74.9856 23.2496C75.8783 23.2496 76.6947 23.7504 76.6947 24.4907V24.7509C76.6947 27.7548 72.8896 30.3179 69.5297 30.9587C68.9275 31.079 67.8789 30.9991 67.5884 29.8575ZM81.4127 27.8543C82.1697 28.2545 82.5005 29.3359 82.0149 30.097C81.4328 31.0177 80.4225 30.998 79.7429 30.6372L76.9661 29.1555C76.2865 28.7947 75.9568 27.7941 76.3639 26.9324C76.8103 26.0117 77.9945 26.0117 78.5777 26.3321L81.4127 27.8543ZM81.5293 17.0604H82.5196C83.2183 17.0604 83.7812 17.8412 83.7812 18.6219C83.7812 19.3032 83.3932 20.2239 82.6161 20.2239H81.5283C81.489 21.1851 81.4307 22.0861 81.3735 22.8275C81.2961 23.6684 80.5582 24.3693 79.6061 24.249C78.6349 24.1287 78.091 23.3677 78.1303 22.5672C78.3243 20.1441 78.3052 17.1807 78.1303 14.6766C78.091 13.8959 78.5968 13.1348 79.5478 13.0145C80.4988 12.8943 81.2569 13.535 81.3724 14.3967C81.4498 15.1578 81.5081 16.0785 81.5272 17.0604H81.5293Z" fill="white"/>
<path d="M84.9402 19.1227C84.2814 19.1227 83.7622 18.682 83.7818 17.7808C83.7622 16.9397 84.3414 16.4388 84.9402 16.4388H88.1963C88.8159 16.4388 89.3951 16.8194 89.4147 17.7808C89.3951 18.542 88.9948 19.1227 88.1963 19.1227H84.9402ZM94.0692 15.7575C94.0692 20.3039 90.0539 22.4868 85.6787 22.7679C84.9391 22.8084 84.0207 22.5481 83.941 21.566C83.8614 20.4843 84.5999 20.0633 85.4398 20.0042C88.7559 19.8237 90.4335 18.9029 90.6539 16.5187C90.6942 16.0779 90.4543 15.9784 89.9547 15.9784H85.4398C84.841 15.9784 84.0818 15.6984 84.0818 14.6168C84.0818 13.615 84.8813 13.2551 85.4398 13.2551H91.9323C93.2707 13.2551 94.0703 14.4374 94.0703 15.7586L94.0692 15.7575ZM92.5715 31C90.7139 31 88.3566 30.8195 87.1775 30.3591C86.5983 30.1185 85.8194 29.5378 85.6394 28.6563C85.4202 27.6348 85.4398 25.8324 85.6198 24.7507C85.7998 23.7293 86.5983 23.3082 87.1578 23.3082H98.1248C98.6844 23.3082 99.5636 23.7894 99.6629 24.7507C99.7829 25.8324 99.8625 27.6348 99.6432 28.6563C99.4633 29.4776 98.7041 30.159 98.0048 30.3788C96.4668 30.8797 94.3888 30.9792 92.5715 31ZM95.9072 26.2524H89.2947C88.7952 26.2524 88.7755 26.4722 88.7755 26.6133C88.7559 26.8331 88.7559 27.0737 88.7755 27.2946C88.7755 27.5549 88.9151 27.6949 89.2347 27.7551C90.1336 27.8951 91.532 27.9957 92.7308 27.9957C93.9896 27.9957 95.1884 27.9355 96.0665 27.7759C96.3457 27.7354 96.4657 27.5954 96.4864 27.3154C96.4864 27.135 96.5061 26.9348 96.4864 26.7544C96.4864 26.5542 96.4668 26.2535 95.9072 26.2535V26.2524ZM99.5833 21.426C99.5036 22.267 98.7444 22.9681 97.7649 22.8478C96.7657 22.7275 96.2072 21.9663 96.2465 21.1657C96.2868 20.6648 96.3261 20.1847 96.3468 19.7231H95.0684C94.2688 19.7231 93.8696 18.8023 93.8696 18.1209C93.8696 17.34 94.4488 16.5591 95.1677 16.5591H96.3457C96.3261 15.9784 96.2857 15.3769 96.2454 14.6769C96.205 13.896 96.7242 13.1348 97.7038 13.0145C98.6822 12.8942 99.4622 13.5351 99.5811 14.3969C99.8407 16.7002 99.8003 19.1435 99.5811 21.4271L99.5833 21.426Z" fill="white"/>
</g>
<defs>
<clipPath id="clip0_1318_42039">
<rect width="99.7799" height="44" fill="white"/>
</clipPath>
</defs>
</svg>
