<svg width="22" height="22" viewBox="0 0 22 22" fill="none" xmlns="http://www.w3.org/2000/svg">
<path d="M7.77823 0.00208098C7.57934 -0.00852494 7.38038 0.0214896 7.19346 0.0902943C7.00655 0.159099 6.83562 0.265252 6.69107 0.402281C6.54653 0.53931 6.43141 0.704344 6.35274 0.887319C6.27406 1.07029 6.23348 1.26738 6.23346 1.46655V2.70918C6.2339 2.78478 6.2105 2.85859 6.1666 2.92013C6.12269 2.98167 6.06052 3.02782 5.9889 3.05201C5.61009 3.17723 5.2727 3.40357 5.01318 3.70658C4.75366 4.0096 4.58186 4.37777 4.51636 4.77131L4.45 5.16988C4.12428 5.24194 3.83286 5.42288 3.62381 5.68285C3.41477 5.94282 3.3006 6.26629 3.30013 6.59988V7.68155C2.75027 7.95436 2.28739 8.37512 1.96352 8.89655C1.63965 9.41797 1.46763 10.0194 1.4668 10.6332V20.1665C1.46738 20.6526 1.66072 21.1186 2.00441 21.4623C2.3481 21.806 2.81408 21.9993 3.30013 21.9999H12.1001C12.5862 21.9993 13.0522 21.806 13.3958 21.4623C13.7395 21.1186 13.9329 20.6526 13.9335 20.1665V19.7716C13.9922 19.7823 14.0516 19.7882 14.1113 19.7892H14.1172C14.3018 20.3161 14.6171 20.7875 15.0335 21.1593C15.4499 21.5311 15.9538 21.7912 16.4981 21.9153C17.0424 22.0393 17.6093 22.0233 18.1457 21.8686C18.6821 21.7139 19.1705 21.4257 19.5652 21.0309C19.9599 20.6361 20.248 20.1476 20.4025 19.6112C20.557 19.0748 20.5729 18.5079 20.4487 17.9636C20.3245 17.4194 20.0643 16.9155 19.6924 16.4992C19.3204 16.0829 18.849 15.7677 18.3221 15.5832V15.5773C18.3225 15.4328 18.2942 15.2897 18.2389 15.1562C18.1835 15.0227 18.1023 14.9015 17.9998 14.7996L17.7406 14.5404L18.2601 14.0223C18.3963 13.8861 18.5044 13.7244 18.5781 13.5465C18.6518 13.3685 18.6897 13.1778 18.6897 12.9852C18.6897 12.7926 18.6518 12.6019 18.5781 12.4239C18.5044 12.246 18.3963 12.0843 18.2601 11.9481L17.7417 11.4296C17.602 11.2962 17.4163 11.2218 17.2232 11.2218C17.0301 11.2218 16.8444 11.2962 16.7047 11.4296L14.1205 14.0135C14.0504 13.9332 13.9885 13.8562 13.9338 13.7825V10.6332C13.933 10.0194 13.761 9.41797 13.4371 8.89655C13.1132 8.37512 12.6504 7.95436 12.1005 7.68155V6.59988C12.1 6.26629 11.9859 5.94282 11.7768 5.68285C11.5678 5.42288 11.2763 5.24194 10.9506 5.16988L10.8843 4.77131C10.8187 4.37772 10.6469 4.00952 10.3873 3.70651C10.1277 3.40349 9.79024 3.17717 9.41136 3.05201C9.33977 3.02777 9.27763 2.98161 9.23373 2.92008C9.18984 2.85855 9.16642 2.78476 9.1668 2.70918V1.52888C9.17488 1.14498 9.03537 0.772618 8.77702 0.488547C8.51866 0.204476 8.16117 0.0303554 7.77823 0.00208098ZM13.5928 18.6892L17.2228 15.0592L17.4821 15.3188C17.5507 15.3876 17.5892 15.4808 17.5892 15.5779C17.5892 15.675 17.5507 15.7682 17.4821 15.8369L14.3705 18.9485C14.3007 19.0152 14.2079 19.0525 14.1113 19.0525C14.0147 19.0525 13.9219 19.0152 13.8521 18.9485L13.8286 18.925L13.8235 18.9199L13.5928 18.6892ZM17.2228 17.5892C17.4403 17.5893 17.6529 17.6538 17.8337 17.7746C18.0146 17.8955 18.1555 18.0672 18.2388 18.2681C18.322 18.469 18.3439 18.6901 18.3015 18.9034C18.2592 19.1167 18.1546 19.3127 18.0009 19.4666C17.7913 19.6667 17.5128 19.7783 17.223 19.7783C16.9333 19.7783 16.6547 19.6667 16.4451 19.4666C16.2389 19.2603 16.1231 18.9806 16.1231 18.6889C16.1231 18.3972 16.2389 18.1175 16.4451 17.9112C16.5472 17.8091 16.6684 17.7281 16.8018 17.6729C16.9351 17.6178 17.0781 17.5894 17.2225 17.5896L17.2228 17.5892ZM19.0378 16.8739C19.3123 17.1459 19.5218 17.4764 19.6507 17.8408C19.7797 18.2051 19.8246 18.5939 19.7823 18.978C19.74 19.3621 19.6114 19.7318 19.4063 20.0593C19.2012 20.3868 18.9247 20.6638 18.5976 20.8696C18.2704 21.0753 17.901 21.2045 17.517 21.2476C17.1329 21.2906 16.7441 21.2464 16.3795 21.1182C16.0149 20.99 15.684 20.7811 15.4115 20.5071C15.1389 20.2331 14.9317 19.9011 14.8054 19.5359C14.8333 19.5128 14.8633 19.4926 14.8894 19.4666L15.4148 18.9415C15.4603 19.2803 15.5996 19.5995 15.8169 19.8633C16.0342 20.1271 16.321 20.3249 16.6448 20.4343C16.9686 20.5437 17.3165 20.5605 17.6493 20.4827C17.9821 20.4048 18.2865 20.2355 18.5282 19.9939C18.7699 19.7522 18.9392 19.4478 19.017 19.115C19.0948 18.7822 19.0781 18.4342 18.9686 18.1105C18.8592 17.7867 18.6614 17.4999 18.3976 17.2826C18.1338 17.0652 17.8146 16.926 17.4758 16.8805L18.0009 16.3554C18.0269 16.3294 18.0471 16.2989 18.0702 16.2711C18.434 16.3967 18.7646 16.6029 19.0375 16.8742L19.0378 16.8739ZM17.2228 11.9481L17.7413 12.4665C17.8094 12.5346 17.8635 12.6155 17.9003 12.7045C17.9372 12.7935 17.9562 12.8889 17.9562 12.9852C17.9562 13.0815 17.9372 13.1769 17.9003 13.2659C17.8635 13.3549 17.8094 13.4357 17.7413 13.5038L16.9636 14.2815L12.8151 18.43L12.0374 19.2077C11.8977 19.3411 11.712 19.4156 11.5188 19.4156C11.3256 19.4156 11.1398 19.3411 11.0001 19.2077L10.4817 18.6892L13.826 15.3449L17.2228 11.9481ZM13.6002 14.5331L13.3094 14.8242L13.3065 14.8271L13.0667 15.0666C12.5805 14.6017 11.9621 14.2991 11.2968 14.2005C10.7825 14.1371 10.3087 13.8896 9.96283 13.5038C9.82661 13.3676 9.71855 13.2059 9.64483 13.0279C9.57111 12.85 9.53317 12.6592 9.53317 12.4665C9.53317 12.0775 9.68772 11.7044 9.96283 11.4292C10.2379 11.1541 10.6111 10.9996 11.0001 10.9996C11.3892 10.9996 11.7623 11.1541 12.0374 11.4292C12.4232 11.7751 12.6707 12.249 12.7341 12.7632C12.8327 13.4286 13.1353 14.0469 13.6002 14.5331ZM13.2001 10.6332V11.7886C13.0377 11.461 12.8197 11.164 12.5559 10.9108C12.1433 10.4982 11.5837 10.2664 11.0001 10.2664C10.4166 10.2664 9.85698 10.4982 9.44436 10.9108C9.03175 11.3234 8.79994 11.883 8.79994 12.4665C8.79994 13.0501 9.03175 13.6097 9.44436 14.0223C9.89366 14.5099 10.4979 14.827 11.1545 14.9195C11.6767 14.9927 12.1634 15.2257 12.5478 15.5865L9.96393 18.1704C9.8958 18.2385 9.84176 18.3194 9.80489 18.4084C9.76802 18.4974 9.74904 18.5927 9.74904 18.6891C9.74904 18.7854 9.76802 18.8808 9.80489 18.9698C9.84176 19.0588 9.8958 19.1396 9.96393 19.2077L10.4817 19.7265C10.6179 19.8627 10.7795 19.9708 10.9575 20.0445C11.1354 20.1182 11.3262 20.1562 11.5188 20.1562C11.7114 20.1562 11.9021 20.1182 12.0801 20.0445C12.258 19.9708 12.4197 19.8627 12.5559 19.7265L13.0744 19.2081L13.2001 19.3338V20.1665C13.2001 20.4583 13.0842 20.7381 12.8779 20.9444C12.6717 21.1507 12.3919 21.2665 12.1001 21.2665H3.30013C3.00839 21.2665 2.7286 21.1507 2.52231 20.9444C2.31602 20.7381 2.20013 20.4583 2.20013 20.1665V19.0665H4.03346C4.13071 19.0665 4.22397 19.0279 4.29274 18.9592C4.3615 18.8904 4.40013 18.7971 4.40013 18.6999C4.40013 18.6026 4.3615 18.5094 4.29274 18.4406C4.22397 18.3718 4.13071 18.3332 4.03346 18.3332H2.20013V16.8665H4.03346C4.13071 16.8665 4.22397 16.8279 4.29274 16.7592C4.3615 16.6904 4.40013 16.5971 4.40013 16.4999C4.40013 16.4026 4.3615 16.3094 4.29274 16.2406C4.22397 16.1718 4.13071 16.1332 4.03346 16.1332H2.20013V14.6665H4.03346C4.13071 14.6665 4.22397 14.6279 4.29274 14.5592C4.3615 14.4904 4.40013 14.3971 4.40013 14.2999C4.40013 14.2026 4.3615 14.1094 4.29274 14.0406C4.22397 13.9718 4.13071 13.9332 4.03346 13.9332H2.20013V12.4665H4.03346C4.13071 12.4665 4.22397 12.4279 4.29274 12.3592C4.3615 12.2904 4.40013 12.1971 4.40013 12.0999C4.40013 12.0026 4.3615 11.9094 4.29274 11.8406C4.22397 11.7718 4.13071 11.7332 4.03346 11.7332H2.20013V10.6332C2.20091 9.95273 2.47157 9.30034 2.95275 8.81916C3.43392 8.33799 4.08631 8.06732 4.7668 8.06655H10.6335C11.3139 8.06732 11.9663 8.33799 12.4475 8.81916C12.9287 9.30034 13.1994 9.95273 13.2001 10.6332ZM11.3668 6.59988V7.41828C11.1263 7.3625 10.8803 7.33396 10.6335 7.33321H4.7668C4.51993 7.33396 4.27394 7.3625 4.03346 7.41828V6.59988C4.03346 6.40539 4.11073 6.21886 4.24825 6.08134C4.38578 5.94381 4.5723 5.86655 4.7668 5.86655H10.6335C10.828 5.86655 11.0145 5.94381 11.152 6.08134C11.2895 6.21886 11.3668 6.40539 11.3668 6.59988ZM9.17963 3.74758C9.43184 3.83091 9.6565 3.98154 9.82936 4.18322C10.0022 4.3849 10.1167 4.62996 10.1605 4.89195L10.2004 5.13321H5.19983L5.2398 4.89195C5.28356 4.62996 5.39805 4.3849 5.5709 4.18322C5.74376 3.98154 5.96842 3.83091 6.22063 3.74758C6.4384 3.67494 6.62772 3.5355 6.76168 3.34908C6.89564 3.16265 6.96741 2.93874 6.9668 2.70918V1.46655C6.96665 1.36679 6.98686 1.26805 7.02618 1.17636C7.06551 1.08468 7.12313 1.00199 7.19552 0.933344C7.2679 0.864699 7.35354 0.811544 7.44717 0.777133C7.54081 0.742722 7.64048 0.727777 7.7401 0.733214C7.93462 0.754179 8.11407 0.847757 8.24261 0.995257C8.37114 1.14276 8.4393 1.33332 8.43346 1.52888V2.70918C8.43285 2.93874 8.50463 3.16265 8.63858 3.34908C8.77254 3.5355 8.96186 3.67494 9.17963 3.74758Z" fill="#23B16C"/>
</svg>
