<svg width="22" height="22" viewBox="0 0 22 22" fill="none" xmlns="http://www.w3.org/2000/svg">
<path d="M19.1396 9.68031H19.0736C18.6556 6.53431 16.3896 3.98231 13.4856 3.03631C13.0896 2.02431 12.1216 1.32031 10.9996 1.32031C9.87761 1.32031 8.90961 2.02431 8.53561 3.03631C5.60961 3.98231 3.36561 6.55631 2.94761 9.68031H2.85961C1.89161 9.68031 1.09961 10.4723 1.09961 11.4403C1.09961 12.4083 1.89161 13.2003 2.85961 13.2003V13.6403C2.85961 15.9723 4.68561 17.8863 6.97361 18.0183C6.73161 18.5683 6.59961 19.1623 6.59961 19.8003V20.2403C6.59961 20.4823 6.79761 20.6803 7.03961 20.6803H14.9596C15.2016 20.6803 15.3996 20.4823 15.3996 20.2403V19.8003C15.3996 19.1623 15.2676 18.5683 15.0256 18.0183C17.3136 17.8863 19.1396 15.9723 19.1396 13.6403V13.2003C20.1076 13.2003 20.8996 12.4083 20.8996 11.4403C20.8996 10.4723 20.1076 9.68031 19.1396 9.68031ZM10.9996 2.20031C11.9676 2.20031 12.7596 2.99231 12.7596 3.96031V7.04031H12.3196C10.6256 7.04031 9.23961 5.65431 9.23961 3.96031C9.23961 2.99231 10.0316 2.20031 10.9996 2.20031ZM7.47961 19.8003C7.47961 19.1623 7.65561 18.5683 7.96361 18.0403H14.0576C14.3656 18.5683 14.5416 19.1623 14.5416 19.8003H7.47961ZM19.1396 12.3203H18.6996C18.4576 12.3203 18.2596 12.5183 18.2596 12.7603V13.6403C18.2596 15.5763 16.6756 17.1603 14.7396 17.1603H7.25961C5.32361 17.1603 3.73961 15.5763 3.73961 13.6403V12.7603C3.73961 12.5183 3.54161 12.3203 3.29961 12.3203H2.85961C2.37561 12.3203 1.97961 11.9243 1.97961 11.4403C1.97961 10.9563 2.37561 10.5603 2.85961 10.5603H3.32161C3.54161 10.5603 3.73961 10.3843 3.76161 10.1643C4.00361 7.37031 5.85161 5.01631 8.35961 4.02631C8.40361 6.18231 10.1636 7.92031 12.3196 7.92031H13.1996C13.4416 7.92031 13.6396 7.72231 13.6396 7.48031V4.02631C16.1256 5.01631 17.9956 7.34831 18.2376 10.1643C18.2596 10.3843 18.4576 10.5603 18.6776 10.5603H19.1396C19.6236 10.5603 20.0196 10.9563 20.0196 11.4403C20.0196 11.9243 19.6236 12.3203 19.1396 12.3203ZM12.6496 14.2343C12.4076 14.9383 11.7476 15.4003 10.9996 15.4003C10.2516 15.4003 9.59161 14.9383 9.34961 14.2343C9.26161 14.0143 9.39361 13.7503 9.61361 13.6623C9.83361 13.5743 10.0976 13.7063 10.1636 13.9263C10.1856 13.9703 10.2076 14.0363 10.2296 14.0803C10.3836 14.3443 10.6696 14.5203 10.9996 14.5203C11.3296 14.5203 11.5936 14.3443 11.7696 14.0803C11.7916 14.0363 11.8136 13.9923 11.8356 13.9263C11.9236 13.7063 12.1656 13.5743 12.4076 13.6623C12.6276 13.7503 12.7376 13.9923 12.6496 14.2343ZM15.6196 12.7603C15.6196 13.0023 15.4216 13.2003 15.1796 13.2003H14.7396C14.4976 13.2003 14.2996 13.0023 14.2996 12.7603C14.2996 12.5183 14.4976 12.3203 14.7396 12.3203H15.1796C15.4216 12.3203 15.6196 12.5183 15.6196 12.7603ZM7.69961 12.7603C7.69961 13.0023 7.50161 13.2003 7.25961 13.2003H6.81961C6.57761 13.2003 6.37961 13.0023 6.37961 12.7603C6.37961 12.5183 6.57761 12.3203 6.81961 12.3203H7.25961C7.50161 12.3203 7.69961 12.5183 7.69961 12.7603ZM14.0796 11.4403C13.8376 11.4403 13.6396 11.2423 13.6396 11.0003V10.1203C13.6396 9.87831 13.8376 9.68031 14.0796 9.68031C14.3216 9.68031 14.5196 9.87831 14.5196 10.1203V11.0003C14.5196 11.2423 14.3216 11.4403 14.0796 11.4403ZM8.35961 10.1203V11.0003C8.35961 11.2423 8.16161 11.4403 7.91961 11.4403C7.67761 11.4403 7.47961 11.2423 7.47961 11.0003V10.1203C7.47961 9.87831 7.67761 9.68031 7.91961 9.68031C8.16161 9.68031 8.35961 9.87831 8.35961 10.1203Z" fill="#23B16C"/>
</svg>
