<svg width="22" height="22" viewBox="0 0 22 22" fill="none" xmlns="http://www.w3.org/2000/svg">
<path d="M21.6099 4.74641H21.1449V3.53273C21.1449 3.31511 20.9685 3.13867 20.7509 3.13867H1.25309C1.03547 3.13867 0.859036 3.31511 0.859036 3.53273V4.74247H0.394053C0.176437 4.74247 0 4.91891 0 5.13652V8.52932C0 8.74694 0.176437 8.92338 0.394053 8.92338H0.862977C0.973361 14.5219 5.60132 18.9709 11.1999 18.8605C16.6429 18.7532 21.0297 14.3664 21.137 8.92338H21.6059C21.8236 8.92338 22 8.74694 22 8.52932V5.14046C22 4.92437 21.826 4.74858 21.6099 4.74641ZM0.788107 8.13921V5.53452H5.26061C5.97986 5.53452 6.56296 6.11762 6.56296 6.83686C6.56296 7.55611 5.97986 8.13921 5.26061 8.13921H0.788107ZM7.72345 17.5137V17.5177C4.96123 16.4759 2.84945 14.1962 2.02149 11.3626C4.25504 10.3651 6.87431 11.3672 7.87176 13.6007C8.43289 14.8573 8.37807 16.3033 7.72345 17.5137ZM14.2805 17.5137L14.2766 17.5177C13.1023 15.3767 13.886 12.6893 16.0269 11.5151C17.2484 10.8451 18.7142 10.7901 19.9824 11.3665C19.1524 14.1972 17.0409 16.4735 14.2805 17.5137ZM20.1757 10.5855C17.5234 9.47998 14.4754 10.7292 13.3629 13.3803C12.7699 14.7935 12.8288 16.3961 13.5239 17.762C11.8759 18.2257 10.1319 18.2257 8.48397 17.762C9.79031 15.1962 8.76926 12.0571 6.20343 10.7508C4.83991 10.0566 3.24025 9.99643 1.82841 10.5863C1.72019 10.0396 1.66084 9.48446 1.65108 8.92732H5.26061C6.41514 8.92732 7.35107 7.99139 7.35107 6.83686C7.35107 5.68234 6.41514 4.74641 5.26061 4.74641H1.64714V3.92678H20.3568V4.74247H16.7433C15.5888 4.74247 14.6529 5.6784 14.6529 6.83292C14.6529 7.98745 15.5888 8.92338 16.7433 8.92338H20.3529C20.3437 9.4816 20.2844 10.0379 20.1757 10.5855ZM16.7433 8.14315C16.0241 8.14315 15.441 7.56005 15.441 6.8408C15.441 6.12156 16.0241 5.53846 16.7433 5.53846H21.2158L21.2277 8.14315H16.7433Z" fill="#23B16C"/>
</svg>
