<svg width="22" height="22" viewBox="0 0 22 22" fill="none" xmlns="http://www.w3.org/2000/svg">
<path d="M20.5548 8.20504C20.6727 7.8354 20.7341 7.44741 20.7341 7.05632C20.7341 4.97813 19.0434 3.28742 16.9652 3.28742C16.9219 3.28742 16.8782 3.28825 16.8341 3.28983C16.1321 2.29899 14.9777 1.69429 13.7555 1.69429C12.5332 1.69429 11.3789 2.29904 10.6768 3.28983C10.6327 3.2882 10.5889 3.28742 10.5457 3.28742C9.6461 3.28742 8.79125 3.60964 8.12217 4.1708V1.25781H7.65901C5.8306 1.25781 4.28954 2.51079 3.84884 4.20317L2.74648 3.10081L2.41898 3.42831C1.12617 4.72112 0.922425 6.69672 1.80738 8.205H0V8.66815C0 12.6391 2.12715 16.2796 5.56998 18.236V20.7415H16.4301V18.236C19.8729 16.2796 22 12.6392 22 8.6682V8.20504H20.5548ZM10.5457 4.21373C10.6483 4.21373 10.7554 4.21985 10.8641 4.23198L11.1603 4.26496L11.313 4.00902C11.8242 3.15264 12.7601 2.62061 13.7555 2.62061C14.7508 2.62061 15.6867 3.15264 16.1979 4.00902L16.3506 4.26496L16.6469 4.23198C16.7554 4.21989 16.8625 4.21373 16.9652 4.21373C18.5326 4.21373 19.8077 5.4889 19.8077 7.05632C19.8077 7.45306 19.7246 7.84535 19.5659 8.20504H16.332L18.0546 6.48246L17.3995 5.82742L15.0219 8.20504H14.2185V4.27362H13.2922V8.205H12.4888L10.1112 5.82747L9.4562 6.48246L11.1787 8.205H8.12203V5.57032C8.63813 4.73076 9.55606 4.21373 10.5457 4.21373ZM7.19585 2.2197V7.55014L4.65483 5.00916C4.74158 3.59037 5.81472 2.43386 7.19585 2.2197ZM2.77163 4.43596L6.54067 8.205H2.94717C2.00543 7.14047 1.94647 5.56398 2.77163 4.43596ZM6.4963 19.8153V18.4258H15.5037V19.8153H6.4963ZM15.8487 17.4995H6.15129C3.06115 15.7998 1.09662 12.6331 0.936876 9.13136H21.0632C20.9034 12.6331 18.9388 15.7998 15.8487 17.4995Z" fill="#23B16C"/>
</svg>
