<svg width="22" height="22" viewBox="0 0 22 22" fill="none" xmlns="http://www.w3.org/2000/svg">
<path d="M20.9829 15.296C20.9694 15.0854 20.7919 14.9215 20.577 14.9215H16.8676V8.15873C16.8676 6.94928 15.8662 5.96522 14.6352 5.96522H14.3035V4.37604H14.4072C14.8557 4.37604 15.2207 4.01757 15.2207 3.57676V1.79927C15.2207 1.35846 14.8557 1 14.4072 1H7.09625C6.64758 1 6.28273 1.35846 6.28273 1.79927V3.57676C6.28273 4.01757 6.64758 4.37604 7.09625 4.37604H7.19973V5.96522H6.86824C5.59532 5.96522 4.63542 6.99417 4.63542 8.35875V12.8947C4.11468 12.9772 3.63387 13.2145 3.25367 13.5882C2.7758 14.0575 2.51264 14.6817 2.51264 15.3454C2.51264 15.9769 2.75324 16.571 3.18788 17.0315H3.0197C1.90608 17.0315 1 17.9215 1 19.0157C1 20.1098 1.90608 21 3.0197 21H7.06487C7.0716 21 7.0778 20.9981 7.08451 20.998H15.5629C15.5761 20.9981 15.5888 21 15.6021 21C18.5785 21 21 18.6209 21 15.6968C21 15.5668 20.9917 15.4328 20.9829 15.296ZM14.6714 15.7208L12.8739 17.623C12.48 17.086 12.2444 16.4305 12.2392 15.7208H14.6714ZM15.1953 16.3409V18.9752C14.5251 18.8953 13.9156 18.6221 13.4261 18.2128L15.1953 16.3409ZM16.0088 16.3409L17.7779 18.2127C17.2884 18.622 16.6789 18.8953 16.0088 18.9752V16.3409ZM18.3301 17.6227L16.5327 15.7208H18.9646C18.9593 16.4304 18.7238 17.0859 18.3301 17.6227ZM7.09625 1.79927H14.4072L14.4076 3.57676H13.8968H13.2175V2.78061C13.2175 2.55991 13.0356 2.38097 12.8108 2.38097C12.5859 2.38097 12.404 2.55991 12.404 2.78061V3.57676H11.1585V2.78061C11.1585 2.55991 10.9764 2.38097 10.7517 2.38097C10.5271 2.38097 10.345 2.55991 10.345 2.78061V3.57676H9.09927V2.78061C9.09927 2.55991 8.91714 2.38097 8.69251 2.38097C8.46787 2.38097 8.28575 2.55991 8.28575 2.78061V3.57676H7.60649H7.09625V1.79927ZM8.01325 4.37604H13.49V5.96522H8.01325V4.37604ZM6.86824 6.76449H7.60649H13.8968H14.6352C15.4178 6.76449 16.0541 7.3899 16.0541 8.15873V9.9491H5.44895V8.35875C5.44895 7.43498 6.04578 6.76449 6.86824 6.76449ZM3.82885 14.1533C4.15284 13.835 4.58354 13.6597 5.04152 13.6595C5.04174 13.6595 5.04196 13.6596 5.04219 13.6596C5.04241 13.6596 5.04263 13.6595 5.04286 13.6595C5.36161 13.6596 5.66452 13.7494 5.92999 13.9082L3.5794 16.2176C3.4176 15.9566 3.32616 15.6588 3.32616 15.3454C3.32616 14.8952 3.50472 14.4717 3.82885 14.1533ZM7.08451 20.1988H5.44895V17.8308H7.06487C7.72983 17.8308 8.27085 18.3624 8.27085 19.0157C8.27085 19.6626 7.7402 20.1882 7.08451 20.1988ZM4.15458 16.7827L6.50517 14.4733C6.66697 14.7343 6.75841 15.0321 6.75841 15.3454C6.75841 15.7957 6.57985 16.2192 6.25572 16.5376C5.93158 16.8561 5.50059 17.0315 5.04219 17.0315C4.72336 17.0315 4.42023 16.9417 4.15458 16.7827ZM1.81352 19.0157C1.81352 18.3624 2.35455 17.8308 3.0197 17.8308H4.63542V20.2007H3.0197C2.35455 20.2007 1.81352 19.6692 1.81352 19.0157ZM8.67649 20.1988C8.92918 19.8674 9.08437 19.4606 9.08437 19.0157C9.08437 17.9215 8.17849 17.0315 7.06487 17.0315H6.89669C7.33133 16.571 7.57193 15.9769 7.57193 15.3454C7.57193 14.6817 7.30876 14.0575 6.8309 13.5882C6.45065 13.2144 5.96984 12.9771 5.44895 12.8947V10.7484H16.0541V14.9215H10.6274C10.4129 14.9215 10.2353 15.0851 10.2214 15.2954C10.2127 15.4279 10.2044 15.5643 10.2044 15.6968C10.2044 17.597 11.2303 19.2622 12.7632 20.1988H8.67649ZM15.609 20.2004C15.6061 20.2003 15.6038 20.1988 15.6009 20.1988H15.5628C13.0614 20.1778 11.0311 18.1801 11.0179 15.7208H11.4257C11.439 17.9728 13.3068 19.8011 15.6021 19.8011C17.8974 19.8011 19.7647 17.9728 19.7781 15.7208H20.1865C20.173 18.1909 18.1254 20.1967 15.609 20.2004Z" fill="#23B16C"/>
</svg>
