<svg width="22" height="22" viewBox="0 0 22 22" fill="none" xmlns="http://www.w3.org/2000/svg">
<path d="M20.625 6.87588H20.3958C19.7588 6.87588 19.1217 6.66505 18.6083 6.28005C17.9346 5.77588 17.105 5.50088 16.2708 5.50088H16.2232C16.3006 5.00817 16.3689 4.62271 16.4129 4.38346C16.4588 4.14971 16.3808 3.91596 16.2067 3.75555C16.0279 3.59513 15.785 3.53555 15.5513 3.59971C15.1158 3.71888 14.575 3.67763 14.245 3.4943C13.5575 3.11388 12.4758 3.11388 11.7883 3.4943C11.3667 3.72346 10.6333 3.72346 10.2117 3.4943C9.52417 3.11388 8.4425 3.11388 7.755 3.4943C7.42042 3.67763 6.88417 3.71888 6.45333 3.59971C6.215 3.53555 5.97208 3.59513 5.79333 3.75555C5.61917 3.91596 5.54125 4.14971 5.58708 4.38346C5.63108 4.62271 5.69892 5.00771 5.77683 5.50088H5.72917C4.895 5.50088 4.06542 5.77588 3.39167 6.28005C2.87833 6.66505 2.24125 6.87588 1.60417 6.87588H1.375C0.61875 6.87588 0 7.49463 0 8.25088V16.0425C0 16.7988 0.61875 17.4175 1.375 17.4175H1.60417C2.24125 17.4175 2.87833 17.6284 3.39167 18.0134C4.06542 18.5175 4.895 18.7925 5.72917 18.7925H16.2708C17.105 18.7925 17.9346 18.5175 18.6083 18.0134C19.1217 17.6284 19.7588 17.4175 20.3958 17.4175H20.625C21.3813 17.4175 22 16.7988 22 16.0425V8.25088C22 7.49463 21.3813 6.87588 20.625 6.87588ZM15.6443 11.0068C16.1196 11.0389 16.5 11.434 16.5 11.9175C16.5 12.4203 16.0898 12.8315 15.5875 12.8338C15.5943 12.2109 15.6136 11.5985 15.6443 11.0068ZM8.195 4.29638C8.61667 4.06721 9.35 4.06721 9.77167 4.29638C10.4592 4.6768 11.5408 4.6768 12.2283 4.29638C12.65 4.06721 13.3833 4.06721 13.805 4.29638C14.2542 4.54388 14.8729 4.63555 15.4504 4.55305C15.1864 6.05271 14.7088 9.2198 14.6703 12.8342H7.32967C7.29117 9.2198 6.81358 6.04859 6.54958 4.55305C7.12708 4.63555 7.74583 4.54388 8.195 4.29638ZM6.41254 12.8338C5.91021 12.8315 5.5 12.4203 5.5 11.9175C5.5 11.434 5.88042 11.0394 6.35571 11.0068C6.38642 11.5985 6.40521 12.2109 6.41254 12.8338ZM21.0833 16.0425C21.0833 16.2946 20.8771 16.5009 20.625 16.5009H20.3958C19.5617 16.5009 18.7321 16.7759 18.0583 17.28C17.545 17.665 16.9079 17.8759 16.2708 17.8759H5.72917C5.09208 17.8759 4.455 17.665 3.94167 17.28C3.26792 16.7759 2.43833 16.5009 1.60417 16.5009H1.375C1.12292 16.5009 0.916667 16.2946 0.916667 16.0425V8.25088C0.916667 7.9988 1.12292 7.79255 1.375 7.79255H1.60417C2.43833 7.79255 3.26792 7.51755 3.94167 7.01338C4.455 6.62838 5.09208 6.41755 5.72917 6.41755H5.9125C6.05229 7.41946 6.19988 8.684 6.29888 10.0961C5.34188 10.158 4.58287 10.945 4.58287 11.9175C4.58287 12.9305 5.40329 13.7509 6.41621 13.7509H15.5829C16.5958 13.7509 17.4162 12.9305 17.4162 11.9175C17.4162 10.945 16.6572 10.1575 15.7002 10.0961C15.7997 8.684 15.9468 7.41946 16.0866 6.41755H16.2699C16.907 6.41755 17.5441 6.62838 18.0574 7.01338C18.7312 7.51755 19.5608 7.79255 20.3949 7.79255H20.6241C20.8762 7.79255 21.0824 7.9988 21.0824 8.25088V16.0425H21.0833Z" fill="#23B16C"/>
<path d="M18.7923 8.47852C18.5389 8.47852 18.334 8.68385 18.334 8.93685V15.3535C18.334 15.607 18.5389 15.8118 18.7923 15.8118C19.0458 15.8118 19.2507 15.607 19.2507 15.3535V8.93685C19.2507 8.68385 19.0458 8.47852 18.7923 8.47852Z" fill="#23B16C"/>
<path d="M3.20833 8.47852C2.95488 8.47852 2.75 8.68385 2.75 8.93685V15.3535C2.75 15.607 2.95488 15.8118 3.20833 15.8118C3.46179 15.8118 3.66667 15.607 3.66667 15.3535V8.93685C3.66667 8.68385 3.46179 8.47852 3.20833 8.47852Z" fill="#23B16C"/>
</svg>
