<svg width="22" height="22" viewBox="0 0 22 22" fill="none" xmlns="http://www.w3.org/2000/svg">
<path d="M1.96139 7.37078C1.81802 7.61113 1.73553 7.88286 1.72108 8.16235C1.70663 8.44184 1.76066 8.72063 1.87848 8.97448C1.99629 9.22834 2.17433 9.44957 2.39711 9.61896C2.61989 9.78834 2.88067 9.90075 3.15678 9.94641C2.90832 10.5975 2.85946 11.3078 3.01645 11.9868L3.05022 12.1335C3.0613 12.1816 3.08263 12.2268 3.11276 12.266C3.14288 12.3051 3.18108 12.3373 3.22477 12.3604C3.26846 12.3834 3.31661 12.3968 3.36593 12.3996C3.41525 12.4023 3.46459 12.3944 3.51059 12.3764L4.00176 12.1839C4.43777 12.0124 4.83524 11.7557 5.17098 11.4289C5.50672 11.1021 5.774 10.7116 5.95723 10.2804L6.01511 10.5988C6.33241 12.3586 7.13335 13.9954 8.32824 15.3259C8.19709 15.4218 8.09049 15.5474 8.01715 15.6923C7.94381 15.8373 7.90582 15.9976 7.90628 16.1601C7.90674 16.3226 7.94564 16.4826 8.0198 16.6272C8.09396 16.7718 8.20127 16.8967 8.33297 16.9919C7.83253 17.61 7.56044 18.3817 7.56254 19.177C7.56111 19.4716 7.6609 19.7577 7.84521 19.9874C8.02952 20.2172 8.28716 20.3767 8.57501 20.4392C8.62138 20.4495 8.66813 20.4591 8.71479 20.4689C8.7577 20.7058 8.88244 20.9201 9.06724 21.0745C9.25205 21.2289 9.48519 21.3134 9.72597 21.3135H12.3787C12.6234 21.3131 12.86 21.2256 13.046 21.0666C13.2321 20.9077 13.3553 20.6876 13.3937 20.4459C13.4042 20.4436 13.4147 20.4416 13.4251 20.4392C13.7129 20.3767 13.9706 20.2172 14.1549 19.9874C14.3392 19.7577 14.439 19.4716 14.4375 19.177C14.4396 18.3817 14.1676 17.61 13.6671 16.9919C13.7978 16.8974 13.9045 16.7736 13.9786 16.6305C14.0527 16.4873 14.0921 16.3287 14.0938 16.1674C14.0954 16.0062 14.0591 15.8469 13.9879 15.7022C13.9167 15.5576 13.8125 15.4317 13.6837 15.3347L13.8094 15.2089C14.8708 14.1451 15.6713 12.8498 16.1482 11.4248L16.4375 10.5568L16.5965 10.8601C16.8325 11.3094 17.1732 11.6952 17.5898 11.985C18.0063 12.2749 18.4866 12.4601 18.9899 12.5251L20.581 12.7301C20.6339 12.7369 20.6876 12.7313 20.7379 12.7138C20.7883 12.6963 20.8338 12.6673 20.871 12.6291C20.9082 12.591 20.9361 12.5447 20.9523 12.4939C20.9686 12.4432 20.9728 12.3893 20.9647 12.3367L20.8166 11.3767C20.7083 10.6676 20.3607 10.0169 19.8315 9.53263C19.9124 9.31315 19.9476 9.07946 19.9349 8.8459C19.9223 8.61233 19.8621 8.38381 19.758 8.17434C20.1824 8.04377 20.5397 7.75404 20.7553 7.36586C20.9708 6.97768 21.0277 6.52116 20.9141 6.09194C20.8005 5.66271 20.5253 5.2941 20.146 5.0633C19.7667 4.83251 19.3128 4.75745 18.8794 4.85384C18.8268 4.56378 18.7006 4.29205 18.5131 4.0646C18.3255 3.83716 18.0828 3.6616 17.8081 3.55468C17.933 2.90227 17.9584 2.23471 17.8834 1.57468C17.8757 1.47153 17.8333 1.37403 17.7631 1.29805C17.6789 1.21516 17.566 1.16774 17.4478 1.16558C16.5347 1.11428 15.6209 1.25518 14.7656 1.57915C14.3198 1.74888 13.978 1.95298 13.7289 2.1979C13.4013 2.06012 13.0391 2.02726 12.6921 2.10384C12.6211 1.70674 12.4127 1.34726 12.1034 1.08832C11.7941 0.829388 11.4035 0.6875 11.0001 0.6875C10.5967 0.6875 10.2062 0.829388 9.89687 1.08832C9.58755 1.34726 9.37917 1.70674 9.30819 2.10384C9.03578 2.04366 8.7528 2.05083 8.48379 2.12473C8.29133 1.7008 7.93005 1.33264 7.45804 1.08944C6.92523 0.814696 6.34189 0.732798 5.89329 0.692106C5.78476 0.677479 5.67442 0.698516 5.57889 0.752048C5.48714 0.809648 5.41649 0.895386 5.37749 0.996454C5.13585 1.55546 5.03357 2.16478 5.07946 2.77205C4.63543 2.70178 4.18154 2.80844 3.81528 3.06914C3.44902 3.32984 3.19961 3.72378 3.1206 4.16634C2.71316 4.0762 2.28683 4.13742 1.92121 4.33857C1.55559 4.53973 1.27568 4.86707 1.13372 5.25948C0.991765 5.65189 0.997472 6.08255 1.14978 6.47107C1.30208 6.85958 1.59057 7.17939 1.96139 7.37078ZM3.75087 11.5438L3.64096 11.5868C3.55974 11.0073 3.66081 10.4168 3.93014 9.89726C4.19743 9.81713 4.44126 9.67329 4.64067 9.4781C4.84468 9.67771 5.09508 9.82351 5.36937 9.90242L5.36194 9.92179C5.22047 10.289 5.00421 10.6229 4.72686 10.9021C4.44952 11.1813 4.11716 11.3999 3.75087 11.5438ZM13.0625 15.8135C13.1537 15.8135 13.2411 15.8497 13.3056 15.9141C13.3701 15.9786 13.4063 16.066 13.4063 16.1572C13.4063 16.2484 13.3701 16.3358 13.3056 16.4003C13.2411 16.4647 13.1537 16.501 13.0625 16.501H8.93754C8.84637 16.501 8.75894 16.4647 8.69447 16.4003C8.63001 16.3358 8.59379 16.2484 8.59379 16.1572C8.59379 16.066 8.63001 15.9786 8.69447 15.9141C8.75894 15.8497 8.84637 15.8135 8.93754 15.8135H13.0625ZM8.25004 19.177C8.24903 18.8095 8.32092 18.4455 8.46155 18.1059C8.60218 17.7664 8.80876 17.4582 9.06933 17.199L9.0799 17.1885H9.70539L9.49669 17.5365C9.13566 18.1367 8.89894 18.8033 8.8006 19.4967L8.76068 19.776C8.74848 19.7733 8.73615 19.7709 8.72399 19.7682C8.5892 19.7389 8.46858 19.6642 8.3823 19.5566C8.29602 19.4489 8.24933 19.3149 8.25004 19.177ZM12.3787 20.626H9.72597C9.67726 20.6259 9.62911 20.6155 9.58478 20.5952C9.54046 20.575 9.50101 20.5455 9.46908 20.5087C9.43716 20.4719 9.41352 20.4287 9.39976 20.3819C9.38599 20.3352 9.38243 20.286 9.38932 20.2378L9.48135 19.5937C9.56677 18.991 9.77247 18.4117 10.0862 17.89L10.5072 17.1885H11.5223L11.7181 17.4332C12.3647 18.2435 12.7175 19.2492 12.7188 20.2859C12.7187 20.3761 12.6828 20.4625 12.6191 20.5262C12.5553 20.59 12.4689 20.6259 12.3787 20.626ZM13.376 19.7368C13.2784 18.8161 12.9404 17.9372 12.3958 17.1885H12.9201L12.9306 17.199C13.1912 17.4582 13.3978 17.7664 13.5385 18.1059C13.6791 18.4455 13.751 18.8095 13.75 19.177C13.7506 19.2969 13.7154 19.4143 13.6487 19.5141C13.5821 19.6138 13.4872 19.6914 13.3762 19.7368H13.376ZM13.3233 14.7228L12.9202 15.126H12.5775C12.8711 14.4912 13.1263 13.8394 13.3419 13.1741L12.6877 12.9626C12.4479 13.703 12.1569 14.4259 11.8168 15.126H10.4735L10.4139 15.0544C9.43721 13.8828 8.80578 12.4624 8.59031 10.9524L7.90977 11.0496C8.12077 12.5282 8.70028 13.93 9.59496 15.126H9.08179C7.84001 13.8484 7.00774 12.2293 6.69148 10.476L6.57005 9.80823C6.7661 9.71626 6.9431 9.58824 7.09182 9.43083C7.58276 10.028 8.22941 10.4776 8.96014 10.7299L9.51719 10.9212C9.56312 10.937 9.61188 10.9429 9.66025 10.9385C9.70861 10.934 9.75549 10.9194 9.79779 10.8955C9.84009 10.8717 9.87685 10.8391 9.90565 10.8C9.93445 10.7609 9.95464 10.7161 9.96488 10.6686L10.2578 9.31129C10.2937 9.14402 10.3193 8.97469 10.3345 8.80426C10.5567 8.89768 10.796 8.94328 11.037 8.9381C11.2779 8.93292 11.5151 8.87707 11.733 8.77418C11.7373 9.01942 11.7805 9.26243 11.8611 9.49408L12.0673 10.0834C12.0949 10.1621 12.1501 10.2281 12.2226 10.2691C12.2952 10.3101 12.3802 10.3233 12.4618 10.3064L13.1375 10.1658C13.2169 10.149 13.2955 10.128 13.3727 10.1029L13.1737 11.0975C13.0934 11.4991 12.9971 11.9027 12.8875 12.2972L13.5499 12.4813C13.664 12.0707 13.7643 11.6505 13.8479 11.2324L14.087 10.0372L13.7124 9.96227C13.8997 9.86689 14.0731 9.74647 14.228 9.60434C14.3508 9.8953 14.5512 10.1469 14.8073 10.3316C15.0635 10.5163 15.3655 10.6271 15.6803 10.6517L15.496 11.2072C15.0529 12.5311 14.3093 13.7344 13.3233 14.7228ZM7.38297 7.48658C7.57161 7.42813 7.74878 7.33765 7.90672 7.2191C8.10458 7.36782 8.33226 7.47199 8.57415 7.52445C8.81604 7.57692 9.06641 7.57644 9.3081 7.52306C9.3593 7.80772 9.48176 8.07476 9.66406 8.29929V8.43172C9.664 8.67873 9.63774 8.92503 9.58573 9.16649L9.37449 10.1454L9.18354 10.0799C8.49349 9.84162 7.8953 9.39339 7.47282 8.79803C7.54483 8.5843 7.57396 8.35845 7.55855 8.13344C7.54313 7.90843 7.48347 7.68867 7.38297 7.48675V7.48658ZM13.6723 7.45135C13.8351 7.70972 14.064 7.91982 14.3354 8.05987C14.2347 8.22915 14.164 8.41451 14.1263 8.60781C14.0186 8.83196 13.8608 9.02835 13.6651 9.18179C13.4694 9.33524 13.241 9.44163 12.9977 9.49275L12.6168 9.57194L12.51 9.26686C12.4252 9.02441 12.3993 8.76532 12.4342 8.51087C12.4775 8.19819 12.4994 8.0829 12.5082 8.04294C12.5972 7.88074 12.6593 7.70515 12.692 7.52302C13.0187 7.59519 13.3595 7.57026 13.6723 7.45131V7.45135ZM12.4834 8.08729C12.4881 8.07934 12.4925 8.07122 12.497 8.06314C12.4932 8.07049 12.4887 8.07873 12.4834 8.08737V8.08729ZM20.1372 11.4815L20.2156 11.9897L19.0778 11.8432C18.6841 11.7923 18.3084 11.6473 17.9825 11.4206C17.6566 11.1939 17.3901 10.892 17.2055 10.5406L17.0109 10.1699C17.0125 10.1684 17.0141 10.167 17.0157 10.1656C17.1778 10.3248 17.37 10.4503 17.5811 10.5346C17.7921 10.619 18.0178 10.6606 18.245 10.657C18.4723 10.6534 18.6965 10.6048 18.9048 10.5138C19.1131 10.4229 19.3013 10.2915 19.4584 10.1272C19.8216 10.496 20.0591 10.9699 20.1372 11.4816V11.4815ZM18.2188 5.1572C18.2187 5.20561 18.2152 5.25395 18.2084 5.30188C18.1995 5.36602 18.2088 5.43139 18.2354 5.49045C18.2619 5.54952 18.3046 5.59988 18.3586 5.63574C18.4125 5.67159 18.4754 5.69148 18.5402 5.69312C18.6049 5.69476 18.6688 5.67807 18.7245 5.64499C18.861 5.5641 19.0143 5.51581 19.1726 5.50388C19.3308 5.49194 19.4896 5.51668 19.6368 5.57616C19.7839 5.63565 19.9152 5.72827 20.0207 5.84684C20.1262 5.9654 20.2028 6.1067 20.2448 6.25974C20.2867 6.41278 20.2927 6.57343 20.2624 6.72918C20.2321 6.88494 20.1663 7.0316 20.07 7.15775C19.9738 7.2839 19.8497 7.38613 19.7075 7.4565C19.5653 7.52687 19.4087 7.56347 19.25 7.56345C19.2187 7.56345 19.1868 7.56191 19.1525 7.55868C19.0801 7.55188 19.0074 7.56823 18.9448 7.6054C18.8822 7.64257 18.8331 7.69863 18.8044 7.76552C18.7758 7.8324 18.7691 7.90666 18.7853 7.97759C18.8015 8.04852 18.8398 8.11248 18.8947 8.16025C19.0087 8.25895 19.0997 8.38145 19.1612 8.51911C19.2228 8.65678 19.2533 8.80626 19.2508 8.95703C19.2483 9.1078 19.2128 9.25618 19.1467 9.39173C19.0807 9.52727 18.9857 9.64668 18.8684 9.74153C18.7512 9.83639 18.6146 9.90439 18.4683 9.94073C18.322 9.97708 18.1694 9.98089 18.0214 9.9519C17.8735 9.9229 17.7336 9.86181 17.6118 9.77293C17.49 9.68404 17.3892 9.56953 17.3164 9.43745C17.2867 9.38378 17.2431 9.33906 17.1903 9.30792C17.1374 9.27677 17.0772 9.26035 17.0158 9.26035C16.9544 9.26035 16.8942 9.27677 16.8413 9.30792C16.7885 9.33906 16.7449 9.38378 16.7151 9.43745C16.6421 9.56978 16.5409 9.68445 16.4186 9.77333C16.2964 9.8622 16.1561 9.92312 16.0077 9.95177C15.8593 9.98042 15.7064 9.97609 15.5599 9.9391C15.4133 9.90211 15.2767 9.83336 15.1597 9.73772C15.0426 9.64207 14.948 9.52187 14.8826 9.38562C14.8172 9.24937 14.7825 9.10041 14.781 8.94927C14.7796 8.79813 14.8113 8.64852 14.8741 8.51102C14.9368 8.37352 15.0291 8.2515 15.1442 8.15359C15.1944 8.11077 15.2312 8.05441 15.2503 7.99124C15.2693 7.92806 15.2698 7.86074 15.2516 7.79731C15.2334 7.73388 15.1974 7.67702 15.1477 7.63353C15.0981 7.59003 15.037 7.56174 14.9718 7.55202C14.8251 7.53037 14.685 7.47721 14.5608 7.3962C14.4367 7.3152 14.3316 7.20826 14.2528 7.08276C14.4537 6.89028 14.6047 6.6518 14.6929 6.3879C14.781 6.124 14.8036 5.84261 14.7587 5.56803C14.9036 5.51307 15.059 5.49145 15.2134 5.50478C15.3678 5.5181 15.5172 5.56602 15.6505 5.64499C15.7062 5.67807 15.7701 5.69475 15.8348 5.6931C15.8996 5.69146 15.9625 5.67155 16.0165 5.63568C16.0704 5.59981 16.1131 5.54943 16.1396 5.49035C16.1662 5.43127 16.1755 5.36589 16.1665 5.30175C16.1598 5.25386 16.1563 5.20556 16.1563 5.1572C16.1563 4.8837 16.2649 4.6214 16.4583 4.428C16.6517 4.2346 16.914 4.12595 17.1875 4.12595C17.461 4.12595 17.7233 4.2346 17.9167 4.428C18.1101 4.6214 18.2188 4.8837 18.2188 5.1572ZM15.0101 2.22171C15.7152 1.9547 16.4653 1.82655 17.219 1.84431C17.2618 2.37777 17.2318 2.91457 17.1297 3.43991C16.7368 3.45362 16.3604 3.60139 16.0632 3.85865C15.7659 4.1159 15.5656 4.46716 15.4956 4.85402C15.1685 4.78186 14.8275 4.80676 14.5144 4.92565C14.4901 4.88735 14.4644 4.85001 14.437 4.81363C14.6809 4.48918 14.8018 4.08877 14.7783 3.68357C14.7548 3.27837 14.5884 2.89463 14.3086 2.60056C14.4817 2.4598 14.7136 2.33459 15.0101 2.22171ZM9.46313 2.89499C9.51882 2.92807 9.58271 2.94475 9.64746 2.9431C9.71221 2.94146 9.77518 2.92155 9.82911 2.88568C9.88303 2.84981 9.92573 2.79943 9.95228 2.74035C9.97882 2.68127 9.98814 2.61589 9.97915 2.55175C9.97235 2.50387 9.96889 2.45557 9.96879 2.4072C9.96879 2.1337 10.0774 1.8714 10.2708 1.678C10.4642 1.4846 10.7265 1.37595 11 1.37595C11.2735 1.37595 11.5358 1.4846 11.7292 1.678C11.9226 1.8714 12.0313 2.1337 12.0313 2.4072C12.0312 2.45561 12.0277 2.50395 12.0209 2.55188C12.012 2.61602 12.0213 2.68139 12.0479 2.74045C12.0744 2.79952 12.1171 2.84988 12.1711 2.88574C12.225 2.92159 12.2879 2.94148 12.3527 2.94312C12.4174 2.94476 12.4813 2.92807 12.537 2.89499C12.7579 2.76407 13.0197 2.72029 13.2711 2.77221C13.5226 2.82413 13.7457 2.96802 13.8966 3.17571C14.0476 3.38341 14.1157 3.63997 14.0875 3.89519C14.0593 4.15041 13.9368 4.38592 13.7442 4.55564C13.7076 4.5879 13.6783 4.62757 13.6582 4.67202C13.6382 4.71647 13.6278 4.76468 13.6278 4.81345C13.6278 4.86222 13.6382 4.91044 13.6582 4.95489C13.6783 4.99934 13.7076 5.03901 13.7442 5.07127C13.9362 5.24119 14.0581 5.47657 14.086 5.73148C14.1138 5.9864 14.0458 6.24256 13.895 6.44998C13.7442 6.65741 13.5215 6.80121 13.2705 6.85334C13.0194 6.90547 12.7579 6.86218 12.537 6.73192C12.4813 6.69884 12.4174 6.68215 12.3527 6.68379C12.2879 6.68542 12.225 6.70532 12.1711 6.74117C12.1171 6.77703 12.0744 6.82739 12.0479 6.88646C12.0213 6.94552 12.012 7.01089 12.0209 7.07503C12.0277 7.12296 12.0312 7.1713 12.0313 7.2197C12.0313 7.49321 11.9226 7.75551 11.7292 7.94891C11.5358 8.1423 11.2735 8.25095 11 8.25095C10.7265 8.25095 10.4642 8.1423 10.2708 7.94891C10.0774 7.75551 9.96879 7.49321 9.96879 7.2197C9.96889 7.17134 9.97235 7.12304 9.97915 7.07516C9.98814 7.01101 9.97882 6.94564 9.95228 6.88656C9.92573 6.82748 9.88303 6.7771 9.82911 6.74123C9.77518 6.70536 9.71221 6.68545 9.64746 6.6838C9.58271 6.68216 9.51882 6.69884 9.46313 6.73192C9.24225 6.86218 8.98075 6.90547 8.72967 6.85334C8.47859 6.80121 8.25593 6.65741 8.10515 6.44998C7.95437 6.24256 7.88628 5.9864 7.91417 5.73148C7.94205 5.47657 8.06391 5.24119 8.25597 5.07127C8.29255 5.03901 8.32184 4.99934 8.34191 4.95489C8.36197 4.91044 8.37235 4.86222 8.37235 4.81345C8.37235 4.76468 8.36197 4.71647 8.34191 4.67202C8.32184 4.62757 8.29255 4.5879 8.25597 4.55564C8.06386 4.38574 7.94195 4.15034 7.91403 3.8954C7.88612 3.64045 7.9542 3.38426 8.105 3.17681C8.2558 2.96936 8.47848 2.82554 8.7296 2.77342C8.98071 2.72131 9.24224 2.76467 9.46313 2.89499ZM5.95921 1.3894C6.32362 1.42829 6.76156 1.50396 7.14304 1.70054C7.48846 1.87856 7.7464 2.14153 7.87028 2.43647C7.61489 2.63813 7.42221 2.90837 7.3148 3.21555C7.20739 3.52273 7.18969 3.85415 7.26378 4.17103C7.01423 4.11255 6.75473 4.11095 6.50448 4.16634C6.4248 3.72546 6.17639 3.33302 5.81199 3.07236C5.70314 2.50862 5.75413 1.92568 5.95921 1.3894ZM2.75004 4.81345C2.935 4.81337 3.11656 4.86313 3.27564 4.95749C3.33132 4.99057 3.39521 5.00725 3.45996 5.0056C3.52471 5.00396 3.58768 4.98405 3.64161 4.94818C3.69553 4.91231 3.73823 4.86193 3.76478 4.80285C3.79132 4.74377 3.80064 4.67839 3.79165 4.61425C3.78485 4.56637 3.78139 4.51807 3.78129 4.4697C3.78129 4.1962 3.88994 3.9339 4.08334 3.7405C4.27673 3.5471 4.53904 3.43845 4.81254 3.43845C5.08605 3.43845 5.34835 3.5471 5.54175 3.7405C5.73514 3.9339 5.84379 4.1962 5.84379 4.4697C5.84369 4.51811 5.84023 4.56645 5.83344 4.61438C5.82447 4.67852 5.8338 4.74389 5.86036 4.80295C5.88692 4.86202 5.92962 4.91238 5.98355 4.94824C6.03748 4.98409 6.10045 5.00398 6.16519 5.00562C6.22993 5.00726 6.29382 4.99057 6.34949 4.95749C6.51679 4.85829 6.70875 4.80848 6.90317 4.8138C7.09759 4.81912 7.28654 4.87937 7.44816 4.98756C7.29783 5.24815 7.21872 5.5437 7.21879 5.84454C7.21886 6.14538 7.2981 6.4409 7.44855 6.70142C7.27887 6.81508 7.07927 6.87583 6.87504 6.87595C6.84372 6.87595 6.81183 6.87441 6.77755 6.87118C6.7051 6.86438 6.63236 6.88073 6.5698 6.9179C6.50724 6.95507 6.45809 7.01113 6.42942 7.07802C6.40076 7.1449 6.39406 7.21916 6.41029 7.29009C6.42652 7.36102 6.46484 7.42498 6.51973 7.47275C6.63373 7.57145 6.7247 7.69395 6.78622 7.83161C6.84775 7.96928 6.87834 8.11876 6.87583 8.26953C6.87332 8.4203 6.83779 8.56868 6.77172 8.70423C6.70565 8.83977 6.61066 8.95918 6.49344 9.05403C6.37623 9.14889 6.23964 9.21689 6.09329 9.25323C5.94695 9.28958 5.79442 9.29339 5.64644 9.2644C5.49846 9.2354 5.35865 9.17431 5.23684 9.08543C5.11503 8.99654 5.0142 8.88203 4.94145 8.74995C4.9117 8.69628 4.86813 8.65156 4.81526 8.62042C4.7624 8.58927 4.70215 8.57285 4.6408 8.57285C4.57944 8.57285 4.5192 8.58927 4.46633 8.62042C4.41346 8.65156 4.36989 8.69628 4.34014 8.74995C4.26712 8.88228 4.1659 8.99695 4.04365 9.08583C3.9214 9.1747 3.7811 9.23562 3.6327 9.26427C3.4843 9.29292 3.33141 9.28859 3.18486 9.2516C3.03831 9.21461 2.90169 9.14586 2.78465 9.05022C2.66762 8.95457 2.57304 8.83437 2.50762 8.69812C2.44219 8.56187 2.40751 8.41291 2.40604 8.26177C2.40456 8.11063 2.43633 7.96102 2.49909 7.82352C2.56185 7.68602 2.65406 7.564 2.76921 7.46609C2.81941 7.42327 2.85624 7.36691 2.87528 7.30374C2.89432 7.24056 2.89478 7.17324 2.8766 7.10981C2.85842 7.04638 2.82236 6.98952 2.77275 6.94603C2.72313 6.90253 2.66204 6.87424 2.59677 6.86452C2.33943 6.82589 2.1062 6.69139 1.94387 6.488C1.78154 6.2846 1.70211 6.02736 1.7215 5.76786C1.74089 5.50835 1.85768 5.26577 2.04843 5.08876C2.23919 4.91176 2.48981 4.81341 2.75004 4.81345Z" fill="#23B16C"/>
<path d="M4.8125 7.5625C5.01646 7.5625 5.21584 7.50202 5.38543 7.3887C5.55502 7.27539 5.6872 7.11433 5.76525 6.92589C5.8433 6.73746 5.86373 6.53011 5.82393 6.33006C5.78414 6.13002 5.68593 5.94627 5.5417 5.80205C5.39748 5.65782 5.21373 5.55961 5.01369 5.51982C4.81364 5.48002 4.60629 5.50045 4.41786 5.5785C4.22942 5.65655 4.06836 5.78873 3.95505 5.95832C3.84173 6.12791 3.78125 6.32729 3.78125 6.53125C3.78156 6.80466 3.8903 7.06679 4.08364 7.26012C4.27697 7.45345 4.53909 7.56219 4.8125 7.5625ZM4.8125 6.1875C4.88049 6.1875 4.94695 6.20766 5.00348 6.24543C5.06001 6.2832 5.10407 6.33689 5.13008 6.3997C5.1561 6.46252 5.16291 6.53163 5.14964 6.59831C5.13638 6.66499 5.10364 6.72624 5.05557 6.77432C5.00749 6.82239 4.94624 6.85513 4.87956 6.8684C4.81288 6.88166 4.74376 6.87485 4.68095 6.84883C4.61814 6.82282 4.56445 6.77876 4.52668 6.72223C4.48891 6.6657 4.46875 6.59924 4.46875 6.53125C4.46885 6.44011 4.5051 6.35274 4.56955 6.2883C4.63399 6.22385 4.72136 6.1876 4.8125 6.1875Z" fill="#23B16C"/>
<path d="M11 5.84375C11.204 5.84375 11.4033 5.78327 11.5729 5.66995C11.7425 5.55664 11.8747 5.39558 11.9528 5.20714C12.0308 5.01871 12.0512 4.81136 12.0114 4.61131C11.9716 4.41127 11.8734 4.22752 11.7292 4.0833C11.585 3.93907 11.4012 3.84086 11.2012 3.80107C11.0011 3.76127 10.7938 3.7817 10.6054 3.85975C10.4169 3.9378 10.2559 4.06998 10.1425 4.23957C10.0292 4.40916 9.96875 4.60854 9.96875 4.8125C9.96906 5.08591 10.0778 5.34804 10.2711 5.54137C10.4645 5.7347 10.7266 5.84344 11 5.84375ZM11 4.46875C11.068 4.46875 11.1344 4.48891 11.191 4.52668C11.2475 4.56445 11.2916 4.61814 11.3176 4.68095C11.3436 4.74377 11.3504 4.81288 11.3371 4.87956C11.3239 4.94624 11.2911 5.00749 11.2431 5.05557C11.195 5.10364 11.1337 5.13638 11.0671 5.14965C11.0004 5.16291 10.9313 5.1561 10.8685 5.13008C10.8056 5.10407 10.752 5.06001 10.7142 5.00348C10.6764 4.94695 10.6562 4.88049 10.6562 4.8125C10.6564 4.72136 10.6926 4.63399 10.757 4.56955C10.8215 4.5051 10.9089 4.46885 11 4.46875Z" fill="#23B16C"/>
<path d="M16.1562 7.21875C16.1562 7.42271 16.2167 7.62209 16.33 7.79168C16.4434 7.96127 16.6044 8.09345 16.7929 8.1715C16.9813 8.24955 17.1886 8.26998 17.3887 8.23018C17.5887 8.19039 17.7725 8.09218 17.9167 7.94795C18.0609 7.80373 18.1591 7.61998 18.1989 7.41994C18.2387 7.21989 18.2183 7.01254 18.1403 6.82411C18.0622 6.63567 17.93 6.47461 17.7604 6.3613C17.5908 6.24798 17.3915 6.1875 17.1875 6.1875C16.9141 6.18781 16.652 6.29655 16.4586 6.48988C16.2653 6.68322 16.1566 6.94534 16.1562 7.21875ZM17.5312 7.21875C17.5312 7.28674 17.5111 7.3532 17.4733 7.40973C17.4355 7.46626 17.3819 7.51032 17.319 7.53633C17.2562 7.56235 17.1871 7.56916 17.1204 7.55589C17.0538 7.54263 16.9925 7.50989 16.9444 7.46182C16.8964 7.41374 16.8636 7.35249 16.8504 7.28581C16.8371 7.21913 16.8439 7.15001 16.8699 7.0872C16.8959 7.02439 16.94 6.9707 16.9965 6.93293C17.0531 6.89516 17.1195 6.875 17.1875 6.875C17.2786 6.8751 17.366 6.91135 17.4305 6.9758C17.4949 7.04024 17.5311 7.12761 17.5312 7.21875Z" fill="#23B16C"/>
</svg>
