<svg width="22" height="22" viewBox="0 0 22 22" fill="none" xmlns="http://www.w3.org/2000/svg">
<path d="M20.243 4.89091C19.682 4.8201 19.1802 4.9631 18.7487 5.31338C17.7818 6.09851 17.4607 7.73991 17.3676 8.40713C17.0217 8.4281 16.2944 8.4477 14.9957 8.3817C14.0916 8.33563 13.6389 7.9417 13.1597 7.52438C12.653 7.08301 12.0783 6.58285 11.001 6.58285C9.92365 6.58285 9.3489 7.08301 8.84222 7.52438C8.36303 7.9417 7.91031 8.33563 7.00625 8.3817C5.70687 8.44735 4.9795 8.42776 4.63437 8.40679C4.54122 7.73957 4.22015 6.09851 3.25318 5.31304C2.82178 4.96241 2.31887 4.8201 1.7589 4.89057C1.39728 4.9356 0.778185 5.16729 0.697403 6.20954C0.539278 8.24557 2.76609 12.7549 5.04206 13.541C5.99115 15.1195 7.74222 16.6001 10.946 17.1219C10.9638 17.125 10.9821 17.1264 10.9999 17.1264H11.0006C11.0006 17.1264 11.001 17.1264 11.0013 17.1264H11.002C11.0199 17.1264 11.0377 17.125 11.056 17.1219C14.2597 16.6001 16.0108 15.1195 16.9599 13.541C19.2358 12.7545 21.4627 8.24523 21.3045 6.20954C21.2237 5.16695 20.6047 4.9356 20.243 4.89057V4.89091ZM1.38284 6.26316C1.43234 5.62448 1.73175 5.58701 1.84415 5.57291C2.2154 5.52616 2.53475 5.61588 2.81903 5.8462C3.73134 6.58595 3.95375 8.46076 3.98056 8.72201C3.94962 9.0056 3.80972 10.6718 4.51406 12.4658C2.88331 11.2059 1.25325 7.93001 1.38284 6.26316ZM16.4831 13.0392C16.4587 13.0691 16.4405 13.1014 16.4274 13.1375C15.6062 14.52 14.0933 15.8273 11.3447 16.3694V10.1984C11.3447 10.0087 11.1907 9.85466 11.001 9.85466C10.8112 9.85466 10.6572 10.0087 10.6572 10.1984V16.3694C7.90859 15.8273 6.39575 14.52 5.57453 13.1375C5.56147 13.1014 5.5429 13.0691 5.51884 13.0392C4.61409 11.4507 4.59484 9.78798 4.63678 9.09635C5.03037 9.11835 5.77665 9.13245 7.04131 9.06851C8.1829 9.01076 8.77312 8.49651 9.2939 8.0431C9.77 7.62854 10.1811 7.27035 11.0013 7.27035C11.8215 7.27035 12.2326 7.62854 12.7087 8.0431C13.2295 8.49651 13.8197 9.01041 14.9613 9.06851C16.2263 9.13279 16.9729 9.11835 17.3658 9.09635C17.4074 9.78798 17.3882 11.4507 16.4838 13.0392H16.4831ZM17.4879 12.4658C18.1922 10.6721 18.0527 9.00629 18.0214 8.72235C18.0771 8.11391 18.3827 6.49623 19.1819 5.84688C19.4665 5.61588 19.7845 5.52685 20.1574 5.57291C20.2702 5.58701 20.5692 5.62448 20.6187 6.26316C20.7483 7.93001 19.1186 11.2059 17.4879 12.4658Z" fill="#23B16C"/>
</svg>
