<svg width="22" height="22" viewBox="0 0 22 22" fill="none" xmlns="http://www.w3.org/2000/svg">
<path d="M2.45238 20C2.70873 20 2.90476 19.804 2.90476 19.5477V2.22583C3.52302 2.87409 4.56349 4.51733 5.34762 7.00481C6.28254 10.0199 6.17698 12.3114 5.04603 13.1557L5.03095 13.1707L4.27698 13.7888C4.08095 13.9547 4.05079 14.226 4.21667 14.422C4.38254 14.618 4.65397 14.6482 4.85 14.4823L5.58889 13.8642C7.76032 12.2361 6.65952 8.07518 6.08651 6.35656C5.3627 4.21582 3.79444 1.00471 2.45238 1.00471C2.19603 1.00471 2 1.21577 2 1.45698V19.5477C2 19.804 2.19603 20 2.45238 20Z" fill="#23B16C"/>
<path d="M10.5952 1.00471C10.3389 1.00471 10.1429 1.20069 10.1429 1.45698V12.2059C8.60476 12.4773 7.42857 14.1054 7.42857 16.0803C7.42857 18.2362 8.84603 20 10.5952 20C12.3444 20 13.7619 18.2362 13.7619 16.0803C13.7619 14.1054 12.5857 12.4773 11.0476 12.2059V1.45698C11.0476 1.20069 10.8516 1.00471 10.5952 1.00471ZM12.8571 16.0803C12.8571 17.7387 11.8468 19.0955 10.5952 19.0955C9.34365 19.0955 8.33333 17.7387 8.33333 16.0803C8.33333 14.422 9.34365 13.0652 10.5952 13.0652C11.8468 13.0652 12.8571 14.422 12.8571 16.0803Z" fill="#23B16C"/>
<path d="M17.9238 1.00471C17.8183 1.00471 17.2452 1.00471 17.1397 1.00471C16.3103 0.989633 15.4659 0.974558 14.8476 1.57758C14.3198 2.10523 14.0635 3.02484 14.0635 4.48718C14.0635 5.97967 14.2143 8.31639 14.6516 10.3516C15.1794 12.7938 15.9183 13.9848 16.9286 13.9848H17.0794V19.5477C17.0794 19.804 17.2754 20 17.5317 20C17.7881 20 17.9841 19.804 17.9841 19.5477V13.9848C20.4571 13.9848 21 6.37163 21 4.48718C21 3.03992 20.7437 2.12031 20.2159 1.59266C19.5976 0.989633 18.7532 0.989633 17.9238 1.00471ZM17.0794 13.0803H16.9286C16.5817 13.0803 15.9937 12.3114 15.5413 10.1707C15.119 8.18071 14.9683 5.93444 14.9683 4.48718C14.9683 3.31128 15.1341 2.57257 15.481 2.24091C15.7675 1.95447 16.1746 1.90925 16.7929 1.90925H17.0794V13.0803ZM19.4468 10.1556C18.9341 12.3114 18.346 13.0803 17.9841 13.0803V1.90925C18.7683 1.89417 19.2659 1.90925 19.5825 2.22583C19.9294 2.57257 20.0952 3.31128 20.0952 4.4721C20.0952 6.25103 19.8389 8.48222 19.4468 10.1556Z" fill="#23B16C"/>
</svg>
