<svg width="22" height="22" viewBox="0 0 22 22" fill="none" xmlns="http://www.w3.org/2000/svg">
<path d="M12.1964 4.72791C12.1548 4.47949 11.9393 4.29688 11.6875 4.29688H10.8281V0.6875C10.8281 0.402832 10.5972 0.171875 10.3125 0.171875H6.1875C5.90283 0.171875 5.67188 0.402832 5.67188 0.6875V4.29688H4.8125C4.56073 4.29688 4.34521 4.47949 4.30359 4.72791C4.17804 5.48389 4.05182 6.1687 3.9303 6.83069C3.38916 9.77271 2.92188 12.3132 2.92188 18.5625V21.3125C2.92188 21.5972 3.15283 21.8281 3.4375 21.8281H13.0625C13.3472 21.8281 13.5781 21.5972 13.5781 21.3125V18.5625C13.5781 12.3132 13.1108 9.77271 12.5697 6.83069C12.4482 6.1687 12.322 5.48389 12.1964 4.72791ZM6.70312 1.20312H9.79688V4.29688H6.70312V1.20312ZM12.5469 20.7969H3.95312V18.5625C3.95312 12.4072 4.41235 9.90967 4.94409 7.01733C5.04346 6.47754 5.14551 5.92297 5.24823 5.32812H11.2518C11.3545 5.92297 11.4565 6.47754 11.5559 7.01733C12.0876 9.90967 12.5469 12.4072 12.5469 18.5625V20.7969Z" fill="#23B16C"/>
<path d="M18.5625 0.171875H15.8125C15.5278 0.171875 15.2969 0.402832 15.2969 0.6875V7.5625C15.2969 9.00061 15.6541 10.4307 15.9998 11.8124C16.3456 13.1954 16.6719 14.5006 16.6719 15.8125V21.3125C16.6719 21.5972 16.9028 21.8281 17.1875 21.8281C17.4722 21.8281 17.7031 21.5972 17.7031 21.3125V15.8125C17.7031 14.3744 17.3459 12.9443 17.0002 11.5626C16.6544 10.1796 16.3281 8.87439 16.3281 7.5625V6.70312H18.5625C18.8472 6.70312 19.0781 6.47217 19.0781 6.1875V0.6875C19.0781 0.402832 18.8472 0.171875 18.5625 0.171875ZM18.0469 5.67188H16.3281V1.20312H18.0469V5.67188Z" fill="#23B16C"/>
</svg>
