<svg width="34" height="22" viewBox="0 0 34 22" fill="none" xmlns="http://www.w3.org/2000/svg">
<path d="M2.3182 0C1.04754 0 0 1.06512 0 2.35712V7.1509C0 7.52436 0.258624 7.84699 0.618669 7.92138C2.06247 8.22118 3.09045 9.50139 3.09117 10.9996C3.09117 12.4979 2.06247 13.7781 0.618669 14.0779C0.258624 14.153 0 14.4749 0 14.8484V19.6421C0 20.9349 1.04754 22 2.3182 22H31.6818C32.9525 22 34 20.9349 34 19.6429V14.8491C34 14.4756 33.7414 14.153 33.3813 14.0786C31.9375 13.7788 30.9096 12.4986 30.9088 11.0004C30.9088 9.50213 31.9375 8.22192 33.3813 7.92212C33.7414 7.84773 34 7.52583 34 7.15164V2.35712C34 1.06512 32.9525 0 31.6818 0H2.3182ZM2.3182 1.57117H8.49982V3.92828C8.49982 4.36214 8.8461 4.71423 9.27279 4.71423C9.69949 4.71423 10.0458 4.36214 10.0458 3.92828V1.57117H31.6825C32.1237 1.57117 32.4555 1.90779 32.4555 2.35712V6.62939C30.6466 7.29601 29.3651 8.99682 29.3643 10.9996C29.3643 13.0024 30.6459 14.7033 32.4555 15.3699V19.6421C32.4555 20.0907 32.1244 20.4281 31.6825 20.4281H10.0458V18.0312C10.0458 17.5973 9.69949 17.2453 9.27279 17.2453C8.8461 17.2453 8.49982 17.5973 8.49982 18.0312V20.4281H2.3182C1.87702 20.4281 1.54522 20.0915 1.54522 19.6421V15.3699C3.35414 14.7033 4.63567 13.0024 4.6364 10.9996C4.6364 8.99682 3.35487 7.29601 1.54522 6.62939V2.35712C1.54522 1.90853 1.87629 1.57117 2.3182 1.57117Z" fill="white"/>
<path d="M9.27305 11.7852C8.84636 11.7852 8.50008 12.1373 8.50008 12.5711V14.9282C8.50008 15.3621 8.84636 15.7142 9.27305 15.7142C9.69974 15.7142 10.046 15.3621 10.046 14.9282V12.5711C10.046 12.1373 9.69974 11.7852 9.27305 11.7852Z" fill="white"/>
<path d="M9.27305 6.28418C8.84636 6.28418 8.50008 6.63627 8.50008 7.07013V9.38894C8.50008 9.8228 8.84636 10.1749 9.27305 10.1749C9.69974 10.1749 10.046 9.8228 10.046 9.38894V7.07013C10.046 6.63627 9.69974 6.28418 9.27305 6.28418Z" fill="white"/>
<path d="M17.0081 4.71875C15.7367 4.71875 14.6899 5.78314 14.6899 7.07587C14.6899 8.3686 15.7367 9.43298 17.0081 9.43298C18.2795 9.43298 19.3263 8.3686 19.3263 7.07587C19.3263 5.78314 18.2795 4.71875 17.0081 4.71875ZM17.0081 6.29065C17.4442 6.29065 17.781 6.63317 17.781 7.0766C17.781 7.52004 17.4442 7.86255 17.0081 7.86255C16.572 7.86255 16.2351 7.52004 16.2351 7.0766C16.2351 6.63317 16.572 6.29065 17.0081 6.29065Z" fill="white"/>
<path d="M23.1833 12.5664C21.912 12.5664 20.8651 13.6308 20.8651 14.9235C20.8651 16.2163 21.912 17.2806 23.1833 17.2806C24.4547 17.2806 25.5015 16.2163 25.5015 14.9235C25.5015 13.6308 24.4547 12.5664 23.1833 12.5664ZM23.1833 14.1383C23.6195 14.1383 23.9563 14.4808 23.9563 14.9243C23.9563 15.3677 23.6195 15.7102 23.1833 15.7102C22.7472 15.7102 22.4104 15.3677 22.4104 14.9243C22.4104 14.4808 22.7472 14.1383 23.1833 14.1383Z" fill="white"/>
<path d="M24.1858 5.72956L14.913 15.158C14.6116 15.4652 14.6116 15.9624 14.913 16.2688C15.2151 16.5752 15.7041 16.5752 16.0054 16.2688L25.2782 6.84035C25.5796 6.53319 25.5796 6.03599 25.2782 5.72956C24.9646 5.42461 24.5111 5.39662 24.1858 5.72956Z" fill="white"/>
</svg>
