<svg width="16" height="17" viewBox="0 0 16 17" fill="none" xmlns="http://www.w3.org/2000/svg">
<mask id="mask0_332_9117" style="mask-type:luminance" maskUnits="userSpaceOnUse" x="0" y="0" width="16" height="17">
<path d="M15.8133 7.04648H8.18545V10.136H12.5749C12.1656 12.0982 10.4544 13.2255 8.18545 13.2255C5.50727 13.2255 3.34836 11.1158 3.34836 8.49875C3.34836 5.88166 5.50727 3.77199 8.18545 3.77199C9.33909 3.77199 10.3802 4.17193 11.1987 4.82682L13.5802 2.49969C12.1298 1.26238 10.2676 0.5 8.18545 0.5C3.64508 0.5025 0 4.06444 0 8.50125C0 12.9381 3.64508 16.5 8.18545 16.5C12.2782 16.5 16 13.5905 16 8.50125C16 8.02882 15.9258 7.5189 15.8133 7.04648Z" fill="white"/>
</mask>
<g mask="url(#mask0_332_9117)">
<path d="M-0.75 13.227V3.77344L5.57582 8.5002L-0.75 13.227Z" fill="#FBBC05"/>
</g>
<mask id="mask1_332_9117" style="mask-type:luminance" maskUnits="userSpaceOnUse" x="0" y="0" width="16" height="17">
<path d="M15.8133 7.04648H8.18545V10.136H12.5749C12.1656 12.0982 10.4544 13.2255 8.18545 13.2255C5.50727 13.2255 3.34836 11.1158 3.34836 8.49875C3.34836 5.88166 5.50727 3.77199 8.18545 3.77199C9.33909 3.77199 10.3802 4.17193 11.1987 4.82682L13.5802 2.49969C12.1298 1.26238 10.2676 0.5 8.18545 0.5C3.64508 0.5025 0 4.06444 0 8.50125C0 12.9381 3.64508 16.5 8.18545 16.5C12.2782 16.5 16 13.5905 16 8.50125C16 8.02882 15.9258 7.5189 15.8133 7.04648Z" fill="white"/>
</mask>
<g mask="url(#mask1_332_9117)">
<path d="M-0.75 3.77672L5.57582 8.50348L8.17982 6.28633L17.1096 4.86905V-0.222656H-0.75V3.77672Z" fill="#EA4335"/>
</g>
<mask id="mask2_332_9117" style="mask-type:luminance" maskUnits="userSpaceOnUse" x="0" y="0" width="16" height="17">
<path d="M15.8133 7.04648H8.18545V10.136H12.5749C12.1656 12.0982 10.4544 13.2255 8.18545 13.2255C5.50727 13.2255 3.34836 11.1158 3.34836 8.49875C3.34836 5.88166 5.50727 3.77199 8.18545 3.77199C9.33909 3.77199 10.3802 4.17193 11.1987 4.82682L13.5802 2.49969C12.1298 1.26238 10.2676 0.5 8.18545 0.5C3.64508 0.5025 0 4.06444 0 8.50125C0 12.9381 3.64508 16.5 8.18545 16.5C12.2782 16.5 16 13.5905 16 8.50125C16 8.02882 15.9258 7.5189 15.8133 7.04648Z" fill="white"/>
</mask>
<g mask="url(#mask2_332_9117)">
<path d="M-0.75 13.2302L10.4129 4.86655L13.352 5.22899L17.1096 -0.222656V17.2296H-0.75V13.2302Z" fill="#34A853"/>
</g>
<mask id="mask3_332_9117" style="mask-type:luminance" maskUnits="userSpaceOnUse" x="0" y="0" width="16" height="17">
<path d="M15.5463 7.04648H8.0925V10.136H12.3818C11.9819 12.0982 10.3097 13.2255 8.0925 13.2255C5.47541 13.2255 3.36574 11.1158 3.36574 8.49875C3.36574 5.88166 5.47541 3.77199 8.0925 3.77199C9.21982 3.77199 10.2372 4.17193 11.037 4.82682L13.3642 2.49969C11.9469 1.26238 10.1272 0.5 8.0925 0.5C3.65569 0.5025 0.09375 4.06444 0.09375 8.50125C0.09375 12.9381 3.65569 16.5 8.0925 16.5C12.0919 16.5 15.7288 13.5905 15.7288 8.50125C15.7288 8.02882 15.6563 7.5189 15.5463 7.04648Z" fill="white"/>
</mask>
<g mask="url(#mask3_332_9117)">
<path d="M16.8193 17.2263L5.54852 8.5002L4.09375 7.41037L16.8193 3.77344V17.2263Z" fill="#4285F4"/>
</g>
</svg>
