<svg width="30" height="30" viewBox="0 0 30 30" fill="none" xmlns="http://www.w3.org/2000/svg">
<path fill-rule="evenodd" clip-rule="evenodd" d="M22.0259 2.5C24.2237 2.50009 26 4.34097 26 6.58912V23.4118C25.9997 25.6598 24.2235 27.4999 22.0259 27.5H11.9638C9.76614 27.5 7.98999 25.6598 7.98973 23.4118V18.9886C7.98973 18.4309 8.43887 17.9777 8.99518 17.9776C9.55155 17.9776 10.0016 18.4308 10.0016 18.9886V23.4118C10.0018 24.5364 10.8883 25.4406 11.9638 25.4406H22.0259C23.1009 25.4405 23.9879 24.5363 23.9881 23.4118V6.58912C23.9881 5.46443 23.1011 4.56045 22.0259 4.56036H11.9638C10.8886 4.56036 10.0016 5.46438 10.0016 6.58912V10.7232C10.0013 11.2808 9.55139 11.7342 8.99518 11.7343C8.43902 11.7341 7.98999 11.2807 7.98973 10.7232V6.58912C7.98973 4.34091 9.76598 2.5 11.9638 2.5H22.0259ZM25.7546 23.4118C25.7545 23.9329 25.6532 24.4299 25.4701 24.8834C25.63 24.4874 25.7286 24.0585 25.7508 23.6091L25.7546 23.4118ZM9.75619 23.4118C9.75622 23.5301 9.76784 23.6459 9.78484 23.7594C9.77909 23.721 9.77246 23.6825 9.76861 23.6435L9.75619 23.4118Z" fill="white"/>
<path fill-rule="evenodd" clip-rule="evenodd" d="M13.4801 10.5796C13.8103 10.1836 14.3813 10.1098 14.7978 10.3939L14.8789 10.4561L14.8808 10.4571C14.8863 10.4618 14.8956 10.4698 14.9047 10.4781L19.0841 14.2255L19.086 14.2264C19.5105 14.612 19.544 15.2708 19.1614 15.698L19.1605 15.697C19.1351 15.7258 19.1099 15.7518 19.086 15.7736L19.0841 15.7745L14.9047 19.5219C14.4971 19.8892 13.8706 19.8561 13.504 19.4472C13.4949 19.4373 13.4861 19.4273 13.481 19.4213L13.4801 19.4204C13.1418 19.0174 13.1588 18.43 13.504 18.0474L13.5784 17.9728L15.7459 16.0302H4.99725C4.43132 16.0143 3.98483 15.5402 4.0004 14.9722L4.00326 14.8746L4.00994 14.8679C4.07348 14.3706 4.48831 13.984 4.99821 13.9698H15.7459L13.5794 12.0272L13.5775 12.0263C13.163 11.6492 13.1193 11.0094 13.4801 10.5796Z" fill="white"/>
</svg>
