<svg width="50" height="50" viewBox="0 0 50 50" fill="none" xmlns="http://www.w3.org/2000/svg">
<path d="M25 50C38.8071 50 49.9999 38.8071 49.9999 25C49.9999 11.1929 38.8071 0 25 0C11.1929 0 0 11.1929 0 25C0 38.8071 11.1929 50 25 50Z" fill="#23B16C"/>
<path d="M34.9131 14.8008C35.7516 14.8009 36.5172 15.1128 37.0986 15.623H37.0996C37.1194 15.6385 37.1416 15.6576 37.1641 15.6797L37.1797 15.6963L37.2949 15.8096C37.8551 16.3893 38.2011 17.1739 38.2012 18.0371V31.9648C38.2011 32.8841 37.808 33.7129 37.1826 34.3018L37.1836 34.3027H37.1816C37.1809 34.3034 37.1804 34.305 37.1797 34.3057L37.165 34.3223L37.1631 34.3242C37.1478 34.3388 37.1287 34.3539 37.1084 34.3701L37.1094 34.3711C36.5266 34.887 35.7563 35.2012 34.9131 35.2012H15.0889C14.2458 35.2011 13.4762 34.8864 12.8936 34.3711V34.3701C12.8753 34.3557 12.8555 34.3406 12.8369 34.3223V34.3213C12.8295 34.3141 12.8229 34.3086 12.8193 34.3047C12.8176 34.3028 12.8149 34.2993 12.8145 34.2988L12.8135 34.2979V34.2969C12.1914 33.7083 11.8008 32.8814 11.8008 31.9648V18.0371C11.8009 17.1163 12.1944 16.285 12.8223 15.6963C12.8267 15.6914 12.8314 15.6851 12.8369 15.6797L12.8389 15.6777L12.8926 15.6309L13.1201 15.4473C13.6694 15.0415 14.3511 14.8008 15.0889 14.8008H34.9131ZM37.4395 33.7051C37.3222 33.8691 37.1891 34.022 37.042 34.1602C37.0358 34.1662 37.0296 34.1726 37.0234 34.1787C37.008 34.1934 36.9924 34.2079 36.9756 34.2207C36.4281 34.7054 35.7048 35.001 34.9121 35.001H34.9131C35.7058 35.001 36.4291 34.7054 36.9766 34.2207L37.0244 34.1787C37.0306 34.1726 37.0368 34.1662 37.043 34.1602C37.19 34.0221 37.3222 33.8691 37.4395 33.7051ZM14.5225 34.9482C14.6063 34.9636 14.6913 34.9758 14.7773 34.9844C14.6912 34.9759 14.6063 34.9636 14.5225 34.9482ZM14.2666 34.8896C14.3233 34.9051 14.3806 34.9184 14.4385 34.9307C14.3806 34.9184 14.3233 34.9051 14.2666 34.8896ZM14.0166 34.8096C14.0626 34.8264 14.1092 34.8417 14.1562 34.8564C14.1092 34.8417 14.0626 34.8264 14.0166 34.8096ZM13.7803 34.7119C13.817 34.7289 13.8541 34.7451 13.8916 34.7607C13.8541 34.7451 13.817 34.7289 13.7803 34.7119ZM13.5498 34.5928C13.5869 34.6139 13.6241 34.6347 13.6621 34.6543C13.6241 34.6347 13.5869 34.6139 13.5498 34.5928ZM13.3311 34.4561C13.3616 34.477 13.3915 34.4987 13.4229 34.5186C13.3915 34.4987 13.3616 34.477 13.3311 34.4561ZM13.083 34.2686C13.1299 34.3081 13.1773 34.347 13.2266 34.3838C13.1773 34.347 13.1299 34.3081 13.083 34.2686ZM14.8701 33.8389C14.9416 33.8469 15.0142 33.8516 15.0879 33.8516H15.0889L14.8799 33.8408C14.8766 33.8405 14.8734 33.8392 14.8701 33.8389ZM26.9053 26.9844C26.3982 27.4892 25.72 27.7676 25 27.7676C24.37 27.7675 23.7733 27.5543 23.2939 27.1631L23.0957 26.9844L22.2061 26.0996L14.668 33.5977C14.8028 33.6314 14.9434 33.6514 15.0889 33.6514H34.9121C35.0572 33.6513 35.1975 33.6313 35.332 33.5977L27.7939 26.0996L26.9053 26.9844ZM12.5801 33.7314C12.586 33.7395 12.5927 33.7469 12.5986 33.7549C12.5927 33.7469 12.586 33.7395 12.5801 33.7314ZM14.2969 33.6826L14.2998 33.6836L14.2979 33.6826L22.2051 25.8184L14.2969 33.6826ZM37.5518 33.5342C37.5646 33.5134 37.5775 33.4928 37.5898 33.4717C37.5775 33.4928 37.5646 33.5134 37.5518 33.5342ZM37.6953 33.2754C37.7051 33.2554 37.7143 33.2351 37.7236 33.2148C37.7143 33.2351 37.7051 33.2554 37.6953 33.2754ZM37.8066 33.0176C37.817 32.9903 37.8274 32.9632 37.8369 32.9355C37.8274 32.9631 37.8169 32.9903 37.8066 33.0176ZM13.3701 17.1973C13.2417 17.4504 13.169 17.7357 13.1689 18.0371V31.9648C13.1689 32.3098 13.2638 32.6326 13.4287 32.9111C13.2847 32.6677 13.1952 32.3899 13.1748 32.0938L13.1699 31.9648V18.0371C13.1699 17.908 13.1836 17.782 13.209 17.6602C13.2175 17.6193 13.2271 17.5789 13.2383 17.5391C13.2826 17.3806 13.3466 17.2299 13.4287 17.0908L13.3701 17.1973ZM28.6162 25.001L36.5703 32.9121V32.9111L28.6172 25.001L36.5703 17.0908L28.6162 25.001ZM37.8965 32.7441C37.9053 32.7116 37.9122 32.6785 37.9199 32.6455C37.9122 32.6785 37.9053 32.7116 37.8965 32.7441ZM13.4883 17.4297C13.4134 17.6186 13.3702 17.8229 13.3701 18.0371V31.9648C13.3701 32.179 13.4128 32.3829 13.4873 32.5713L21.1006 25.001L13.4883 17.4297ZM28.9004 25.001L36.5127 32.5713C36.5873 32.3826 36.6309 32.1787 36.6309 31.9648V18.0371C36.6308 17.8223 36.5866 17.6184 36.5117 17.4297L28.9004 25.001ZM37.9727 32.3584C37.9676 32.3964 37.9625 32.4342 37.9561 32.4717C37.9625 32.4341 37.9676 32.3964 37.9727 32.3584ZM37.042 15.8418C37.6314 16.3948 37.9999 17.1746 38 18.0371V31.9648C38 32.0331 37.9967 32.1008 37.9922 32.168C37.9932 32.1536 37.9963 32.1394 37.9971 32.125L38.001 31.9648V18.0371C38.0009 17.1746 37.6324 16.3948 37.043 15.8418H37.042ZM24.999 27.5664L25 27.5674C25.0794 27.5674 25.1582 27.5629 25.2363 27.5557C25.158 27.5629 25.0787 27.5664 24.999 27.5664ZM24.5225 27.5215C24.5904 27.5345 24.6591 27.5444 24.7285 27.5518C24.6591 27.5444 24.5904 27.5344 24.5225 27.5215ZM25.2861 27.5498C25.3499 27.5427 25.413 27.5334 25.4756 27.5215C25.413 27.5334 25.3499 27.5426 25.2861 27.5498ZM25.5186 27.5117C25.5815 27.4986 25.6437 27.4836 25.7051 27.4658C25.6437 27.4837 25.5815 27.4986 25.5186 27.5117ZM24.2939 27.4658C24.347 27.4813 24.4008 27.4939 24.4551 27.5059C24.4008 27.494 24.3471 27.4812 24.2939 27.4658ZM25.7539 27.4512C25.8074 27.4345 25.86 27.4158 25.9121 27.3955C25.86 27.4158 25.8074 27.4344 25.7539 27.4512ZM24.0957 27.3994C24.1324 27.4136 24.1696 27.4261 24.207 27.4385C24.1696 27.4261 24.1324 27.4135 24.0957 27.3994ZM25.9932 27.3623C26.0379 27.3431 26.0815 27.3217 26.125 27.2998C26.0815 27.3217 26.0379 27.343 25.9932 27.3623ZM23.875 27.3008C23.9108 27.3188 23.9468 27.3363 23.9834 27.3525C23.9467 27.3363 23.9108 27.3188 23.875 27.3008ZM26.1924 27.2656C26.2515 27.2336 26.3097 27.2 26.3662 27.1631C26.3097 27.2 26.2515 27.2336 26.1924 27.2656ZM23.6738 27.1875C23.7111 27.2109 23.7487 27.2336 23.7871 27.2549C23.7487 27.2336 23.7112 27.2109 23.6738 27.1875ZM26.7627 26.8428C26.6468 26.9582 26.5211 27.0603 26.3877 27.1494C26.4539 27.1052 26.5189 27.0586 26.5811 27.0078L26.7637 26.8428L27.793 25.8184L26.7627 26.8428ZM23.4697 27.0459C23.5094 27.0767 23.5495 27.1066 23.5908 27.1348C23.5495 27.1066 23.5094 27.0767 23.4697 27.0459ZM23.2939 26.8955C23.3311 26.9303 23.3683 26.9648 23.4072 26.9971C23.3682 26.9648 23.3312 26.9303 23.2939 26.8955ZM24.6992 26.3809C24.797 26.4034 24.8979 26.417 25.001 26.417V26.416L24.8701 26.4111C24.8121 26.4055 24.7553 26.3939 24.6992 26.3809ZM14.2969 16.3193L22.6172 24.5908H22.6182L22.6191 24.5918L24.0684 26.0342C24.1411 26.1067 24.2221 26.168 24.3076 26.2207C24.2587 26.1904 24.211 26.1579 24.166 26.1211L24.0693 26.0342L22.6201 24.5918L22.6191 24.5908C22.7071 24.5009 22.6261 24.4683 22.5557 24.5283L14.2979 16.3193C14.3082 16.3147 14.3186 16.3101 14.3291 16.3057C14.3185 16.3102 14.3074 16.3146 14.2969 16.3193ZM15.0889 16.3506C14.9435 16.3506 14.8027 16.3697 14.668 16.4033L22.7578 24.4482H22.7588L22.7607 24.4502L24.2109 25.8926L24.293 25.9668C24.4915 26.129 24.7391 26.2168 25.002 26.2168C25.3025 26.2167 25.5828 26.1017 25.793 25.8926L27.2432 24.4512V24.4502L27.2471 24.4463V24.4453L35.334 16.4043C35.2576 16.3852 35.1797 16.369 35.0996 16.3604L34.9131 16.3506H15.0889ZM15.0879 16.1504C15.0143 16.1504 14.9416 16.1541 14.8701 16.1621C14.8734 16.1617 14.8766 16.1615 14.8799 16.1611L15.0889 16.1504H15.0879ZM36.9746 15.7812C36.991 15.7941 37.008 15.8081 37.0234 15.8232C37.0295 15.8292 37.035 15.8354 37.041 15.8418H37.042L37.0244 15.8232C37.009 15.8081 36.992 15.7941 36.9756 15.7812C36.9091 15.7224 36.84 15.6664 36.7686 15.6133C36.8398 15.6662 36.9083 15.7226 36.9746 15.7812ZM36.7256 15.584C36.6696 15.5438 36.6125 15.5052 36.5537 15.4688C36.6125 15.5052 36.6696 15.5438 36.7256 15.584ZM36.4824 15.4268C36.433 15.3979 36.3831 15.3699 36.332 15.3438C36.3831 15.3699 36.433 15.3979 36.4824 15.4268ZM36.2334 15.2959C36.1861 15.2737 36.1384 15.2523 36.0898 15.2324C36.1384 15.2523 36.1861 15.2737 36.2334 15.2959ZM35.9951 15.1953C35.939 15.1745 35.8818 15.1563 35.8242 15.1387C35.8818 15.1563 35.939 15.1745 35.9951 15.1953ZM35.7412 15.1133C35.684 15.0975 35.6259 15.0848 35.5674 15.0723C35.6259 15.0848 35.684 15.0975 35.7412 15.1133ZM34.9121 15.001C35.1029 15.001 35.2895 15.019 35.4707 15.0518C35.3837 15.036 35.2955 15.023 35.2061 15.0146L34.9131 15.001H34.9121Z" fill="white"/>
</svg>
