<svg width="30" height="30" viewBox="0 0 30 30" fill="none" xmlns="http://www.w3.org/2000/svg">
<path fill-rule="evenodd" clip-rule="evenodd" d="M4.53927 4.02994H26.8629C28.0373 4.02994 29 4.99264 29 6.16704V23.4755C29 24.6499 28.0373 25.6126 26.8629 25.6126H4.53927C3.34975 25.6126 2.39209 24.6499 2.39209 23.4755V6.16704C2.39209 4.99264 3.35479 4.02994 4.53927 4.02994Z" fill="#EEEEEE"/>
<path fill-rule="evenodd" clip-rule="evenodd" d="M4.53927 4.02994H26.8629C28.0373 4.02994 29 4.99264 29 6.16704V8.50575H2.39209V6.16704C2.39209 4.99264 3.35479 4.02994 4.53927 4.02994Z" fill="#23B16C"/>
<path d="M9.8113 5.3194C9.12077 5.3194 8.57642 5.86375 8.57642 6.54924C8.57642 7.23472 9.12077 7.769 9.8113 7.769C10.5018 7.769 11.0311 7.22464 11.0311 6.54924C11.0311 5.87383 10.4867 5.3194 9.8113 5.3194Z" fill="#1B955A"/>
<path d="M5.98586 5.3194C5.30541 5.3194 4.75098 5.86375 4.75098 6.54924C4.75098 7.23472 5.30541 7.769 5.98586 7.769C6.6663 7.769 7.22074 7.22464 7.22074 6.54924C7.22074 5.87383 6.6663 5.3194 5.98586 5.3194Z" fill="#1B955A"/>
<path d="M13.6221 5.3194C12.9417 5.3194 12.3873 5.86375 12.3873 6.54924C12.3873 7.23472 12.9417 7.769 13.6221 7.769C14.3026 7.769 14.857 7.22464 14.857 6.54924C14.857 5.87383 14.3026 5.3194 13.6221 5.3194Z" fill="#1B955A"/>
<path d="M25.0792 5.3194C24.3988 5.3194 23.8594 5.86375 23.8594 6.54924C23.8594 7.23472 24.4038 7.769 25.0792 7.769C25.7546 7.769 26.3141 7.22464 26.3141 6.54924C26.3141 5.87383 25.7697 5.3194 25.0792 5.3194Z" fill="#1B955A"/>
<path d="M17.4429 5.3194C16.7624 5.3194 16.208 5.86375 16.208 6.54924C16.208 7.23472 16.7624 7.769 17.4429 7.769C18.1233 7.769 18.6778 7.22464 18.6778 6.54924C18.6778 5.87383 18.1233 5.3194 17.4429 5.3194Z" fill="#1B955A"/>
<path d="M21.2684 5.3194C20.5879 5.3194 20.0335 5.86375 20.0335 6.54924C20.0335 7.23472 20.5879 7.769 21.2684 7.769C21.9488 7.769 22.5033 7.22464 22.5033 6.54924C22.5033 5.87383 21.9488 5.3194 21.2684 5.3194Z" fill="#1B955A"/>
<path d="M13.6222 2.85522C13.2492 2.85522 12.9418 3.16268 12.9418 3.54575V6.40362C12.9418 6.7766 13.2492 7.08406 13.6222 7.08406C13.9952 7.08406 14.3127 6.7766 14.3127 6.40362V3.54575C14.3127 3.16268 13.9952 2.85522 13.6222 2.85522Z" fill="#2F2F2F"/>
<path d="M9.81107 2.85522C9.42801 2.85522 9.12054 3.16268 9.12054 3.54575V6.40362C9.12054 6.7766 9.42801 7.08406 9.81107 7.08406C10.1941 7.08406 10.4915 6.7766 10.4915 6.40362V3.54575C10.4915 3.16268 10.1841 2.85522 9.81107 2.85522Z" fill="#2F2F2F"/>
<path d="M5.98648 2.85535C5.61349 2.85535 5.30603 3.16281 5.30603 3.54587V6.40374C5.30603 6.77672 5.61349 7.08418 5.98648 7.08418C6.35946 7.08418 6.66692 6.77672 6.66692 6.40374V3.54587C6.66692 3.16281 6.35946 2.85535 5.98648 2.85535Z" fill="#2F2F2F"/>
<path d="M25.0783 2.85522C24.7053 2.85522 24.3979 3.16268 24.3979 3.54575V6.40362C24.3979 6.7766 24.7053 7.08406 25.0783 7.08406C25.4513 7.08406 25.7689 6.7766 25.7689 6.40362V3.54575C25.7689 3.16268 25.4614 2.85522 25.0783 2.85522Z" fill="#2F2F2F"/>
<path d="M21.2681 2.85522C20.8951 2.85522 20.5776 3.16268 20.5776 3.54575V6.40362C20.5776 6.7766 20.8951 7.08406 21.2681 7.08406C21.6411 7.08406 21.9485 6.7766 21.9485 6.40362V3.54575C21.9485 3.16268 21.6411 2.85522 21.2681 2.85522Z" fill="#2F2F2F"/>
<path d="M17.443 2.85522C17.07 2.85522 16.7625 3.16268 16.7625 3.54575V6.40362C16.7625 6.7766 17.07 7.08406 17.443 7.08406C17.8159 7.08406 18.1234 6.7766 18.1234 6.40362V3.54575C18.1234 3.16268 17.8159 2.85522 17.443 2.85522Z" fill="#2F2F2F"/>
<path fill-rule="evenodd" clip-rule="evenodd" d="M25.1591 13.5199H27.0946C27.3315 13.5199 27.5382 13.7215 27.5382 13.9584V15.8889C27.5382 16.1258 27.3366 16.3173 27.0946 16.3173H25.1591C24.9222 16.3173 24.7307 16.1258 24.7307 15.8889V13.9584C24.7307 13.7215 24.9222 13.5199 25.1591 13.5199Z" fill="#C9CACA"/>
<path fill-rule="evenodd" clip-rule="evenodd" d="M21.6857 13.5199H23.6212C23.8581 13.5199 24.0496 13.7215 24.0496 13.9584V15.8889C24.0496 16.1258 23.8581 16.3173 23.6212 16.3173H21.6857C21.4488 16.3173 21.2573 16.1258 21.2573 15.8889V13.9584C21.2573 13.7215 21.4488 13.5199 21.6857 13.5199Z" fill="#C9CACA"/>
<path fill-rule="evenodd" clip-rule="evenodd" d="M18.2128 13.5199H20.1483C20.3852 13.5199 20.5767 13.7215 20.5767 13.9584V15.8889C20.5767 16.1258 20.3852 16.3173 20.1483 16.3173H18.2128C17.9658 16.3173 17.7692 16.1258 17.7692 15.8889V13.9584C17.7692 13.7215 17.9608 13.5199 18.2128 13.5199Z" fill="white"/>
<path fill-rule="evenodd" clip-rule="evenodd" d="M14.7308 13.5199H16.6663C16.9032 13.5199 17.0947 13.7215 17.0947 13.9584V15.8889C17.0947 16.1258 16.9032 16.3173 16.6663 16.3173H14.7308C14.4939 16.3173 14.3024 16.1258 14.3024 15.8889V13.9584C14.3024 13.7215 14.4939 13.5199 14.7308 13.5199Z" fill="white"/>
<path fill-rule="evenodd" clip-rule="evenodd" d="M11.2579 13.5199H13.1934C13.4303 13.5199 13.6218 13.7215 13.6218 13.9584V15.8889C13.6218 16.1258 13.4303 16.3173 13.1934 16.3173H11.2579C11.021 16.3173 10.8143 16.1258 10.8143 15.8889V13.9584C10.8143 13.7215 11.0159 13.5199 11.2579 13.5199Z" fill="white"/>
<path fill-rule="evenodd" clip-rule="evenodd" d="M4.30239 13.5199H6.23788C6.47477 13.5199 6.66631 13.7215 6.66631 13.9584V15.8889C6.66631 16.1258 6.47477 16.3173 6.23788 16.3173H4.30239C4.06549 16.3173 3.87396 16.1258 3.87396 15.8889V13.9584C3.87396 13.7215 4.06549 13.5199 4.30239 13.5199Z" fill="white"/>
<path fill-rule="evenodd" clip-rule="evenodd" d="M25.1591 17.2141H27.0946C27.3315 17.2141 27.5382 17.4056 27.5382 17.6425V19.5881C27.5382 19.825 27.3366 20.0165 27.0946 20.0165H25.1591C24.9222 20.0165 24.7307 19.825 24.7307 19.5881V17.6425C24.7307 17.4056 24.9222 17.2141 25.1591 17.2141Z" fill="#C9CACA"/>
<path fill-rule="evenodd" clip-rule="evenodd" d="M21.6857 17.2141H23.6212C23.8581 17.2141 24.0496 17.4056 24.0496 17.6425V19.5881C24.0496 19.825 23.8581 20.0165 23.6212 20.0165H21.6857C21.4488 20.0165 21.2573 19.825 21.2573 19.5881V17.6425C21.2573 17.4056 21.4488 17.2141 21.6857 17.2141Z" fill="#C9CACA"/>
<path fill-rule="evenodd" clip-rule="evenodd" d="M18.2128 17.2141H20.1483C20.3852 17.2141 20.5767 17.4056 20.5767 17.6425V19.5881C20.5767 19.825 20.3852 20.0165 20.1483 20.0165H18.2128C17.9658 20.0165 17.7692 19.825 17.7692 19.5881V17.6425C17.7692 17.4056 17.9608 17.2141 18.2128 17.2141Z" fill="white"/>
<path fill-rule="evenodd" clip-rule="evenodd" d="M14.7308 17.2141H16.6663C16.9032 17.2141 17.0947 17.4056 17.0947 17.6425V19.5881C17.0947 19.825 16.9032 20.0165 16.6663 20.0165H14.7308C14.4939 20.0165 14.3024 19.825 14.3024 19.5881V17.6425C14.3024 17.4056 14.4939 17.2141 14.7308 17.2141Z" fill="white"/>
<path fill-rule="evenodd" clip-rule="evenodd" d="M11.2579 17.2141H13.1934C13.4303 17.2141 13.6218 17.4056 13.6218 17.6425V19.5881C13.6218 19.825 13.4303 20.0165 13.1934 20.0165H11.2579C11.021 20.0165 10.8143 19.825 10.8143 19.5881V17.6425C10.8143 17.4056 11.0159 17.2141 11.2579 17.2141Z" fill="white"/>
<path fill-rule="evenodd" clip-rule="evenodd" d="M4.30239 17.2141H6.23788C6.47477 17.2141 6.66631 17.4056 6.66631 17.6425V19.5881C6.66631 19.825 6.47477 20.0165 6.23788 20.0165H4.30239C4.06549 20.0165 3.87396 19.825 3.87396 19.5881V17.6425C3.87396 17.4056 4.06549 17.2141 4.30239 17.2141Z" fill="white"/>
<path fill-rule="evenodd" clip-rule="evenodd" d="M25.1591 20.9092H27.0946C27.3315 20.9092 27.5382 21.1007 27.5382 21.3376V23.2681C27.5382 23.505 27.3366 23.7066 27.0946 23.7066H25.1591C24.9222 23.7066 24.7307 23.505 24.7307 23.2681V21.3376C24.7307 21.1007 24.9222 20.9092 25.1591 20.9092Z" fill="#C9CACA"/>
<path fill-rule="evenodd" clip-rule="evenodd" d="M21.6857 20.9092H23.6212C23.8581 20.9092 24.0496 21.1007 24.0496 21.3376V23.2681C24.0496 23.505 23.8581 23.7066 23.6212 23.7066H21.6857C21.4488 23.7066 21.2573 23.505 21.2573 23.2681V21.3376C21.2573 21.1007 21.4488 20.9092 21.6857 20.9092Z" fill="#C9CACA"/>
<path fill-rule="evenodd" clip-rule="evenodd" d="M18.2128 20.9092H20.1483C20.3852 20.9092 20.5767 21.1007 20.5767 21.3376V23.2681C20.5767 23.505 20.3852 23.7066 20.1483 23.7066H18.2128C17.9658 23.7066 17.7692 23.505 17.7692 23.2681V21.3376C17.7692 21.1007 17.9608 20.9092 18.2128 20.9092Z" fill="white"/>
<path fill-rule="evenodd" clip-rule="evenodd" d="M14.7308 20.9092H16.6663C16.9032 20.9092 17.0947 21.1007 17.0947 21.3376V23.2681C17.0947 23.505 16.9032 23.7066 16.6663 23.7066H14.7308C14.4939 23.7066 14.3024 23.505 14.3024 23.2681V21.3376C14.3024 21.1007 14.4939 20.9092 14.7308 20.9092Z" fill="white"/>
<path fill-rule="evenodd" clip-rule="evenodd" d="M11.2579 20.9092H13.1934C13.4303 20.9092 13.6218 21.1007 13.6218 21.3376V23.2681C13.6218 23.505 13.4303 23.7066 13.1934 23.7066H11.2579C11.021 23.7066 10.8143 23.505 10.8143 23.2681V21.3376C10.8143 21.1007 11.0159 20.9092 11.2579 20.9092Z" fill="white"/>
<path fill-rule="evenodd" clip-rule="evenodd" d="M4.30239 20.9092H6.23788C6.47477 20.9092 6.66631 21.1007 6.66631 21.3376V23.2681C6.66631 23.505 6.47477 23.7066 6.23788 23.7066H4.30239C4.06549 23.7066 3.87396 23.505 3.87396 23.2681V21.3376C3.87396 21.1007 4.06549 20.9092 4.30239 20.9092Z" fill="white"/>
<path fill-rule="evenodd" clip-rule="evenodd" d="M7.77444 20.9092H9.70992C9.94682 20.9092 10.1535 21.1007 10.1535 21.3376V23.2681C10.1535 23.505 9.95186 23.7066 9.70992 23.7066H7.77444C7.53754 23.7066 7.34601 23.505 7.34601 23.2681V21.3376C7.34601 21.1007 7.53754 20.9092 7.77444 20.9092Z" fill="white"/>
<path fill-rule="evenodd" clip-rule="evenodd" d="M7.77444 17.2141H9.70992C9.94682 17.2141 10.1535 17.4056 10.1535 17.6425V19.5881C10.1535 19.825 9.95186 20.0165 9.70992 20.0165H7.77444C7.53754 20.0165 7.34601 19.825 7.34601 19.5881V17.6425C7.34601 17.4056 7.53754 17.2141 7.77444 17.2141Z" fill="white"/>
<path fill-rule="evenodd" clip-rule="evenodd" d="M25.1591 9.83517H27.0946C27.3315 9.83517 27.5382 10.0267 27.5382 10.2636V12.194C27.5382 12.4309 27.3366 12.6225 27.0946 12.6225H25.1591C24.9222 12.6225 24.7307 12.4309 24.7307 12.194V10.2636C24.7307 10.0267 24.9222 9.83517 25.1591 9.83517Z" fill="#C9CACA"/>
<path fill-rule="evenodd" clip-rule="evenodd" d="M21.6857 9.83517H23.6212C23.8581 9.83517 24.0496 10.0267 24.0496 10.2636V12.194C24.0496 12.4309 23.8581 12.6225 23.6212 12.6225H21.6857C21.4488 12.6225 21.2573 12.4309 21.2573 12.194V10.2636C21.2573 10.0267 21.4488 9.83517 21.6857 9.83517Z" fill="#C9CACA"/>
<path fill-rule="evenodd" clip-rule="evenodd" d="M18.2128 9.83517H20.1483C20.3852 9.83517 20.5767 10.0267 20.5767 10.2636V12.194C20.5767 12.4309 20.3852 12.6225 20.1483 12.6225H18.2128C17.9658 12.6225 17.7692 12.4309 17.7692 12.194V10.2636C17.7692 10.0267 17.9608 9.83517 18.2128 9.83517Z" fill="white"/>
<path fill-rule="evenodd" clip-rule="evenodd" d="M14.7308 9.83517H16.6663C16.9032 9.83517 17.0947 10.0267 17.0947 10.2636V12.194C17.0947 12.4309 16.9032 12.6225 16.6663 12.6225H14.7308C14.4939 12.6225 14.3024 12.4309 14.3024 12.194V10.2636C14.3024 10.0267 14.4939 9.83517 14.7308 9.83517Z" fill="white"/>
<path fill-rule="evenodd" clip-rule="evenodd" d="M11.2579 9.83517H13.1934C13.4303 9.83517 13.6218 10.0267 13.6218 10.2636V12.194C13.6218 12.4309 13.4303 12.6225 13.1934 12.6225H11.2579C11.021 12.6225 10.8143 12.4309 10.8143 12.194V10.2636C10.8143 10.0267 11.0159 9.83517 11.2579 9.83517Z" fill="white"/>
<path fill-rule="evenodd" clip-rule="evenodd" d="M4.30239 9.83517H6.23788C6.47477 9.83517 6.66631 10.0267 6.66631 10.2636V12.194C6.66631 12.4309 6.47477 12.6225 6.23788 12.6225H4.30239C4.06549 12.6225 3.87396 12.4309 3.87396 12.194V10.2636C3.87396 10.0267 4.06549 9.83517 4.30239 9.83517Z" fill="white"/>
<path fill-rule="evenodd" clip-rule="evenodd" d="M7.77444 9.83517H9.70992C9.94682 9.83517 10.1535 10.0267 10.1535 10.2636V12.194C10.1535 12.4309 9.95186 12.6225 9.70992 12.6225H7.77444C7.53754 12.6225 7.34601 12.4309 7.34601 12.194V10.2636C7.34601 10.0267 7.53754 9.83517 7.77444 9.83517Z" fill="white"/>
<path fill-rule="evenodd" clip-rule="evenodd" d="M7.77444 13.5199H9.70992C9.94682 13.5199 10.1535 13.7215 10.1535 13.9584V15.8889C10.1535 16.1258 9.95186 16.3173 9.70992 16.3173H7.77444C7.53754 16.3173 7.34601 16.1258 7.34601 15.8889V13.9584C7.34601 13.7215 7.53754 13.5199 7.77444 13.5199Z" fill="white"/>
<path fill-rule="evenodd" clip-rule="evenodd" d="M7.46189 13.2892C11.586 13.2892 14.9238 16.627 14.9238 20.7451C14.9238 24.8633 11.586 28.201 7.46189 28.201C3.33774 28.201 0 24.8633 0 20.7451C0 16.627 3.33774 13.2892 7.46189 13.2892Z" fill="#FCC900"/>
<path fill-rule="evenodd" clip-rule="evenodd" d="M7.4614 15.0899C10.601 15.0899 13.1344 17.6172 13.1344 20.7388C13.1344 23.8605 10.601 26.4058 7.4614 26.4058C4.32177 26.4058 1.80646 23.8605 1.80646 20.7388C1.80646 17.6172 4.33978 15.0899 7.4614 15.0899Z" fill="#EDAA00"/>
<path fill-rule="evenodd" clip-rule="evenodd" d="M9.61664 22.3731C9.61664 20.182 6.88521 20.11 6.88521 19.0234C6.88521 18.7112 7.10133 18.5131 7.46151 18.5131C7.86372 18.5131 8.06783 18.7412 8.06783 19.1975H9.50858C9.50858 18.1349 8.9683 17.4326 8.05582 17.2345V16.4661H6.88521V17.2345C5.98475 17.4386 5.46848 18.1109 5.46848 18.9814C5.46848 21.0825 8.16388 21.2145 8.16388 22.3611C8.16388 22.7093 7.93576 22.9674 7.47952 22.9674C7.02329 22.9674 6.75315 22.7393 6.75315 22.187H5.3244C5.3244 23.3577 5.9007 24.084 6.88521 24.2701V25.0265H8.05582V24.2701C9.05234 24.054 9.61664 23.3276 9.61664 22.3731Z" fill="#FAE013"/>
</svg>
