<svg width="50" height="50" viewBox="0 0 50 50" fill="none" xmlns="http://www.w3.org/2000/svg">
<path d="M25 50C38.8071 50 49.9999 38.8071 49.9999 25C49.9999 11.1929 38.8071 0 25 0C11.1929 0 0 11.1929 0 25C0 38.8071 11.1929 50 25 50Z" fill="#EEEEEE"/>
<path d="M45.0628 39.8982C42.7312 36.7766 39.7036 34.2419 36.2207 32.4955C32.7378 30.7491 28.8956 29.8391 24.9994 29.8379C21.1032 29.8367 17.2604 30.7442 13.7764 32.4885C10.2924 34.2327 7.26324 36.7655 4.92969 39.8856C7.25137 43.0216 10.2756 45.5699 13.7598 47.3262C17.244 49.0825 21.0912 49.998 24.9931 49.9992C28.8949 50.0004 32.7427 49.0874 36.228 47.3332C39.7133 45.5791 42.7391 43.0327 45.0628 39.8982Z" fill="#B5B5B6"/>
<path d="M24.9977 26.6126C30.3424 26.6126 34.6751 22.2799 34.6751 16.9352C34.6751 11.5905 30.3424 7.25781 24.9977 7.25781C19.653 7.25781 15.3203 11.5905 15.3203 16.9352C15.3203 22.2799 19.653 26.6126 24.9977 26.6126Z" fill="#B5B5B6"/>
</svg>
