<svg width="52" height="45" viewBox="0 0 52 45" fill="none" xmlns="http://www.w3.org/2000/svg">
<path d="M25.3799 14.0687C24.3412 14.4184 23.6953 15.5294 23.6953 16.8769C23.7477 17.6895 23.7913 18.5124 23.8437 19.3251C23.9921 22.4213 24.1405 25.4558 24.2889 28.552C24.3412 29.6012 25.0308 30.3624 25.9211 30.3624C26.8114 30.3624 27.5097 29.5498 27.5534 28.4903C27.5534 27.8525 27.5534 27.2662 27.6058 26.6181C27.7018 24.6329 27.8065 22.6476 27.9025 20.6623C27.9549 19.3765 28.0509 18.0907 28.1033 16.8049C28.1033 16.342 28.0509 15.9305 27.9025 15.5191C27.4574 14.367 26.4187 13.7807 25.3799 14.0687Z" fill="#888888"/>
<path d="M25.926 32.1406C24.7423 32.1406 23.75 33.0985 23.75 34.2412C23.75 35.384 24.7423 36.3418 25.926 36.3418C27.0662 36.3418 28.102 35.384 28.0498 34.2916C28.102 33.0901 27.1184 32.1406 25.926 32.1406Z" fill="#888888"/>
<path d="M20.8399 2.87594C23.1332 -0.958653 28.8668 -0.958641 31.1601 2.87594L51.1929 36.3722C53.4862 40.2068 50.6194 45 46.0327 45H5.96729C1.38056 45 -1.48622 40.2068 0.807142 36.3722L20.8399 2.87594ZM28.1248 4.56767C27.1805 2.98872 24.8195 2.98873 23.8752 4.56767L3.84244 38.0639C2.89811 39.6429 4.07864 41.6165 5.96729 41.6165H46.0327C47.9214 41.6165 49.1019 39.6428 48.1576 38.0639L28.1248 4.56767Z" fill="#888888"/>
</svg>
