<svg width="30" height="30" viewBox="0 0 30 30" fill="none" xmlns="http://www.w3.org/2000/svg">
<path d="M11.0893 9.71924C11.0893 9.71924 7.58326 4.09313 6.2819 1.08435C6.2819 1.08435 -2.13104 4.40015 2.27829 13.035C2.27829 13.035 5.48577 19.3596 8.38705 21.5701L11.8931 18.0548L8.38705 14.0405C8.38705 14.0405 6.48093 11.7302 11.0893 9.71924Z" fill="#0C0C0C"/>
<path d="M9.84886 4.76014C11.1579 7.18558 11.6631 9.44984 10.9742 9.82594C10.2852 10.202 8.66233 8.53646 7.35331 6.11869C6.04429 3.69325 5.53905 1.42899 6.22801 1.05289C6.91697 0.676796 8.53985 2.34237 9.84886 4.76014Z" fill="#424242"/>
<path d="M20.0914 18.8682C20.0914 18.8682 25.6643 22.4373 28.6574 23.7728C28.6574 23.7728 25.2738 32.1774 16.7002 27.672C16.7002 27.672 10.5302 24.8858 7.05475 20.3112L9.55796 15.4449L15.7586 21.5316C15.7586 21.5316 18.0474 23.4581 20.0914 18.8605V18.8682Z" fill="#0C0C0C"/>
<path d="M25.1211 20.2119C22.6714 18.8533 20.3749 18.3007 19.9922 18.9838C19.6094 19.6669 21.2935 21.3325 23.7432 22.6987C26.1928 24.0573 28.4893 24.6099 28.8721 23.9268C29.2548 23.2437 27.5707 21.5781 25.1211 20.2119Z" fill="#424242"/>
</svg>
