<svg width="20" height="21" viewBox="0 0 20 21" fill="none" xmlns="http://www.w3.org/2000/svg">
<path d="M12.483 10.6685L13.6189 9.53254C13.7016 9.84176 13.75 10.165 13.75 10.5C13.75 12.5679 12.0678 14.25 10 14.25C9.665 14.25 9.34172 14.2016 9.0325 14.1189L10.1684 12.983C11.4105 12.8983 12.3983 11.9105 12.483 10.6685ZM19.9212 10.1964C19.8444 10.0582 18.7541 8.1477 16.6228 6.52863L15.7133 7.43816C17.2673 8.58082 18.252 9.91348 18.6397 10.501C17.8989 11.6289 14.993 15.5 10 15.5C9.25125 15.5 8.555 15.4043 7.89984 15.2514L6.87281 16.2785C7.81703 16.568 8.85484 16.75 10 16.75C16.5427 16.75 19.7864 11.0463 19.9212 10.8036C20.0263 10.6147 20.0263 10.3854 19.9212 10.1964ZM17.3169 4.06691L3.56687 17.8169C3.44484 17.9389 3.28484 18 3.125 18C2.96516 18 2.80516 17.9389 2.68313 17.8169C2.43891 17.5727 2.43891 17.1772 2.68313 16.9332L4.4325 15.1838C1.60437 13.4764 0.167344 10.9632 0.07875 10.8036C-0.02625 10.6147 -0.02625 10.3852 0.07875 10.1963C0.213594 9.95379 3.45734 4.25004 10 4.25004C11.6917 4.25004 13.157 4.63598 14.4097 5.2066L16.4331 3.18316C16.6773 2.93895 17.0728 2.93895 17.3169 3.18316C17.5609 3.42738 17.5611 3.82285 17.3169 4.06691ZM5.36453 14.2518L6.94687 12.6694C6.50984 12.0563 6.25 11.3086 6.25 10.5C6.25 8.43223 7.93219 6.75004 10 6.75004C10.8086 6.75004 11.5563 7.00988 12.1694 7.44676L13.4489 6.16723C12.438 5.76238 11.2892 5.50004 10 5.50004C5.00703 5.50004 2.10109 9.37113 1.36047 10.4991C1.83078 11.2119 3.18266 13.0163 5.36453 14.2518ZM7.85422 11.7619L11.2619 8.35426C10.8902 8.13473 10.4622 8.00004 10 8.00004C8.62156 8.00004 7.5 9.1216 7.5 10.5C7.5 10.9622 7.63469 11.3902 7.85422 11.7619Z" fill="#B5B5B6"/>
</svg>
