<svg width="20" height="21" viewBox="0 0 20 21" fill="none" xmlns="http://www.w3.org/2000/svg">
<path d="M19.8729 10.1096C19.6942 9.86521 15.4371 4.125 9.9999 4.125C4.56274 4.125 0.305391 9.86521 0.126914 10.1094C-0.0423048 10.3413 -0.0423048 10.6558 0.126914 10.8876C0.305391 11.132 4.56274 16.8723 9.9999 16.8723C15.4371 16.8723 19.6942 11.132 19.8729 10.8878C20.0423 10.656 20.0423 10.3413 19.8729 10.1096ZM9.9999 15.5536C5.99486 15.5536 2.52606 11.7437 1.49922 10.4982C2.52473 9.25157 5.98626 5.44367 9.9999 5.44367C14.0048 5.44367 17.4733 9.2529 18.5006 10.4991C17.4751 11.7456 14.0135 15.5536 9.9999 15.5536Z" fill="#888888"/>
<path d="M10.0029 6.54297C7.8216 6.54297 6.04688 8.3177 6.04688 10.499C6.04688 12.6804 7.8216 14.4551 10.0029 14.4551C12.1843 14.4551 13.959 12.6804 13.959 10.499C13.959 8.3177 12.1843 6.54297 10.0029 6.54297ZM10.0029 13.1364C8.54864 13.1364 7.36559 11.9533 7.36559 10.499C7.36559 9.04477 8.54868 7.86168 10.0029 7.86168C11.4572 7.86168 12.6403 9.04477 12.6403 10.499C12.6403 11.9533 11.4572 13.1364 10.0029 13.1364Z" fill="#888888"/>
</svg>
