<svg width="30" height="30" viewBox="0 0 30 30" fill="none" xmlns="http://www.w3.org/2000/svg">
<path fill-rule="evenodd" clip-rule="evenodd" d="M14.7619 12.0997C13.0209 12.0839 11.2641 12.0443 9.50731 12.0285C7.28363 6.41782 7.72678 0 14.7619 0C21.7969 0 22.2559 6.41782 20.0322 12.0285C18.2754 12.0443 16.5186 12.0839 14.7619 12.0997Z" fill="#67493C"/>
<path fill-rule="evenodd" clip-rule="evenodd" d="M14.7615 30H1C1.81509 24.9116 1.44315 20.5276 5.96966 19.0715C14.2471 16.373 15.2917 16.373 23.5692 19.0715C28.0957 20.5276 27.7238 24.9116 28.5389 30H14.7615Z" fill="#23B16C"/>
<path fill-rule="evenodd" clip-rule="evenodd" d="M11.9367 13.8009H17.6027V17.3461C16.574 23.305 16.0913 26.0747 15.8064 27.6732C15.6323 28.7178 15.5057 29.4458 15.3949 29.9998H14.1366C14.0338 29.4537 13.9071 28.7257 13.7251 27.6732C13.4402 26.0747 12.9654 23.3129 11.9288 17.3461V13.8009H11.9367Z" fill="white"/>
<path fill-rule="evenodd" clip-rule="evenodd" d="M11.9366 13.8009H17.6027V17.3461L17.4286 18.3749C16.6293 18.6598 15.7272 18.818 14.7618 18.818C13.7963 18.818 12.9179 18.6598 12.1187 18.3749L11.9446 17.3461V13.8009H11.9366Z" fill="#FFE1D9"/>
<path fill-rule="evenodd" clip-rule="evenodd" d="M11.9366 13.8009H17.6027V17.3461L17.5156 17.8605C14.9754 18.1612 13.1632 17.3778 11.9366 16.4757V13.8009Z" fill="#FDD1C7"/>
<path fill-rule="evenodd" clip-rule="evenodd" d="M9.79221 12.7558C9.06417 10.7299 9.00877 9.25804 9.04834 7.52499C11.5727 7.25593 13.9705 6.56746 16.2021 5.22217C17.5157 6.05308 18.9402 6.67825 20.4833 6.92356C20.5387 8.92567 20.5703 10.5084 19.7553 12.7637C17.7294 18.4218 11.8181 18.4218 9.79221 12.7637V12.7558Z" fill="#FFE1D9"/>
<path fill-rule="evenodd" clip-rule="evenodd" d="M9.04041 7.51766C11.5648 7.2486 13.9626 6.56013 16.1942 5.21484C17.5078 6.04576 18.9322 6.67092 20.4754 6.91624C19.1063 7.23278 17.7215 7.1299 16.3208 6.7184C13.6381 7.6601 11.2799 7.74715 9.04041 7.51766Z" fill="#FDD1C7"/>
</svg>
