<svg width="28" height="30" viewBox="0 0 28 30" fill="none" xmlns="http://www.w3.org/2000/svg">
<path fill-rule="evenodd" clip-rule="evenodd" d="M13.7619 12.0997C12.0209 12.0839 10.2641 12.0443 8.50731 12.0285C6.28363 6.41782 6.72678 0 13.7619 0C20.7969 0 21.2559 6.41782 19.0322 12.0285C17.2754 12.0443 15.5186 12.0839 13.7619 12.0997Z" fill="#67493C"/>
<path fill-rule="evenodd" clip-rule="evenodd" d="M13.7615 30H0C0.815087 24.9116 0.443154 20.5276 4.96966 19.0715C13.2471 16.373 14.2917 16.373 22.5692 19.0715C27.0957 20.5276 26.7238 24.9116 27.5389 30H13.7615Z" fill="#23B16C"/>
<path fill-rule="evenodd" clip-rule="evenodd" d="M10.9367 13.8009H16.6027V17.3461C15.574 23.305 15.0913 26.0747 14.8064 27.6732C14.6323 28.7178 14.5057 29.4458 14.3949 29.9998H13.1366C13.0338 29.4537 12.9071 28.7257 12.7251 27.6732C12.4402 26.0747 11.9654 23.3129 10.9288 17.3461V13.8009H10.9367Z" fill="white"/>
<path fill-rule="evenodd" clip-rule="evenodd" d="M10.9366 13.8009H16.6027V17.3461L16.4286 18.3749C15.6293 18.6598 14.7272 18.818 13.7618 18.818C12.7963 18.818 11.9179 18.6598 11.1187 18.3749L10.9446 17.3461V13.8009H10.9366Z" fill="#FFE1D9"/>
<path fill-rule="evenodd" clip-rule="evenodd" d="M10.9366 13.8009H16.6027V17.3461L16.5156 17.8605C13.9754 18.1612 12.1632 17.3778 10.9366 16.4757V13.8009Z" fill="#FDD1C7"/>
<path fill-rule="evenodd" clip-rule="evenodd" d="M8.79221 12.7558C8.06417 10.7299 8.00877 9.25804 8.04834 7.52499C10.5727 7.25593 12.9705 6.56746 15.2021 5.22217C16.5157 6.05308 17.9402 6.67825 19.4833 6.92356C19.5387 8.92567 19.5703 10.5084 18.7553 12.7637C16.7294 18.4218 10.8181 18.4218 8.79221 12.7637V12.7558Z" fill="#FFE1D9"/>
<path fill-rule="evenodd" clip-rule="evenodd" d="M8.04041 7.51766C10.5648 7.2486 12.9626 6.56013 15.1942 5.21484C16.5078 6.04576 17.9322 6.67092 19.4754 6.91624C18.1063 7.23278 16.7215 7.1299 15.3208 6.7184C12.6381 7.6601 10.2799 7.74715 8.04041 7.51766Z" fill="#FDD1C7"/>
</svg>
