<svg width="30" height="30" viewBox="0 0 30 30" fill="none" xmlns="http://www.w3.org/2000/svg">
<path d="M8.70571 19.4444V10.1768L3.05957 10.188L1.5799 23.1548H29.9663L29.9997 19.3999L8.70571 19.4444Z" fill="#23B16C"/>
<path d="M4.08922 11.1551L3.46063 16.64H6.83163L6.94288 11.1551H4.08922Z" fill="white"/>
<path d="M7.37076 17.9918H5.19019V18.3979H7.37076V17.9918Z" fill="#CCCCCC"/>
<path d="M2.45315 15.5015H0.96791L0 23.1559H1.65768L2.45315 15.5015Z" fill="#23B16C"/>
<path d="M0.850756 17.5262H1.80198C2.13018 17.5262 2.39719 17.8822 2.39719 18.3272C2.39719 18.7667 2.13018 19.1282 1.80198 19.1282H0.333425C0.333425 19.1282 -0.278472 18.1214 0.850756 17.5317V17.5262Z" fill="#DE2B2D"/>
<path d="M3.58252 16.6456V15.7277C3.58252 15.5831 3.7049 15.4607 3.84953 15.4607C3.99416 15.4607 4.11654 15.5775 4.11654 15.7277V16.6456H3.58252Z" fill="black"/>
<path d="M3.96082 23.1109C3.96082 21.8648 4.97323 20.8524 6.21927 20.8524C7.46532 20.8524 8.47773 21.8648 8.47773 23.1109C8.47773 24.3569 7.46532 25.3694 6.21927 25.3694C4.97323 25.3694 3.96082 24.3569 3.96082 23.1109Z" fill="black"/>
<path d="M5.39581 23.1102C5.39581 22.654 5.76295 22.2869 6.21909 22.2869C6.67523 22.2869 7.04237 22.654 7.04237 23.1102C7.04237 23.5663 6.67523 23.9335 6.21909 23.9335C5.76295 23.9335 5.39581 23.5663 5.39581 23.1102Z" fill="white"/>
<path d="M23.3849 23.1109C23.3849 21.8648 24.3973 20.8524 25.6433 20.8524C26.8894 20.8524 27.9018 21.8648 27.9018 23.1109C27.9018 24.3569 26.8894 25.3694 25.6433 25.3694C24.3973 25.3694 23.3849 24.3569 23.3849 23.1109Z" fill="black"/>
<path d="M24.8204 23.1102C24.8204 22.654 25.1876 22.2869 25.6437 22.2869C26.0999 22.2869 26.467 22.654 26.467 23.1102C26.467 23.5663 26.0999 23.9335 25.6437 23.9335C25.1876 23.9335 24.8204 23.5663 24.8204 23.1102Z" fill="white"/>
<path d="M30 6.03362H9.21222V18.8113H30V6.03362Z" fill="#D19E6B"/>
<path d="M29.9938 6.03362H19.6083V18.8113H29.9938V6.03362Z" fill="#997745"/>
<path d="M28.5528 14.5957H23.1014V17.5662H28.5528V14.5957Z" fill="white"/>
<path opacity="0.35" d="M21.2323 5.99916H18.1283V11.0502H21.2323V5.99916Z" fill="#993300"/>
</svg>
