<svg width="24" height="24" viewBox="0 0 24 24" fill="none" xmlns="http://www.w3.org/2000/svg">
<path d="M1.43998 18.656C1.3045 18.7864 0.134461 20.0253 0.137674 22.6426C0.138745 23.1163 0.521618 23.5 0.994453 23.5H22.9966C23.3992 23.5 23.758 23.222 23.8335 22.8244C24.3861 19.9126 22.2817 18.4264 22.2817 18.4264C19.1758 15.9352 16.704 17.5776 16.704 17.5776C16.0556 16.8082 14.7881 15.6906 12.8517 15.4776V13.0556C16.3201 13.0481 19.0623 12.004 20.9997 9.94901C24.2453 6.50816 24.0038 1.52153 23.9915 1.31013C23.9658 0.856216 23.5904 0.500488 23.1358 0.500488C19.3788 0.500488 16.4315 1.60201 14.3763 3.77448C13.1655 5.05359 12.4373 6.52587 11.9998 7.88064C11.5618 6.52587 10.8335 5.05467 9.62329 3.77448C7.56809 1.60255 4.62077 0.500488 0.863794 0.500488C0.409701 0.500488 0.0348601 0.85568 0.00808578 1.31013C-0.00315945 1.52153 -0.244664 6.50816 2.99985 9.94901C4.93617 12.0024 7.67519 13.0465 11.1382 13.0567V15.4958C10.2798 15.6047 8.66906 16.0205 7.2227 17.6033C7.2227 17.6023 4.1458 16.0436 1.43944 18.6566L1.43998 18.656ZM15.6304 4.94575C17.194 3.30017 19.4243 2.39073 22.2694 2.2405C22.1922 3.66556 21.7778 6.62567 19.7536 8.77023C18.4545 10.147 16.6751 10.9679 14.463 11.2356L17.1945 8.64736C17.5383 8.32222 17.5533 7.7787 17.2288 7.4337C16.9032 7.08924 16.3619 7.07475 16.0175 7.39936L13.24 10.0306C13.4981 8.54113 14.1214 6.53499 15.6304 4.94575ZM1.73343 2.2405C4.57686 2.3918 6.80717 3.29963 8.37025 4.94575C9.84231 6.49636 10.4678 8.43811 10.736 9.91736L8.08109 7.40097C7.73731 7.07583 7.19593 7.09031 6.86982 7.43531C6.54531 7.77977 6.55977 8.32275 6.90409 8.64897L9.65167 11.2528C7.38978 11.0006 5.57501 10.1765 4.25503 8.78042C2.23411 6.64391 1.81321 3.67092 1.73343 2.2405ZM22.1944 21.7836H1.90692C2.1827 20.0451 3.11177 19.4904 3.11177 19.4904C4.86121 18.1844 6.97477 19.3943 6.97477 19.3943C7.35069 19.6417 7.85404 19.5542 8.12607 19.1958C8.12607 19.1958 9.5012 17.1698 12.0533 17.1516C12.0533 17.1516 14.2665 16.9901 15.7321 19.1464C15.7321 19.1464 16.1145 19.889 16.9932 19.4126C16.9932 19.4126 18.461 18.0921 20.5135 19.2908C20.5146 19.2897 22.1253 20.0902 22.1939 21.783L22.1944 21.7836Z" fill="white"/>
</svg>
