<svg width="30" height="28" viewBox="0 0 30 28" fill="none" xmlns="http://www.w3.org/2000/svg">
<path d="M26.5255 25.3026H15.0342V26.2729H27.2254L28.9063 10.8247L28.1127 10.6959C28.1127 10.6959 26.6068 24.5067 26.5255 25.3026Z" fill="#C9CACA"/>
<path d="M23.6511 10.8546H23.2512V25.5978H23.6511V10.8546Z" fill="#C9CACA"/>
<path d="M19.5211 10.8546H19.1212V25.5978H19.5211V10.8546Z" fill="#C9CACA"/>
<path d="M1.31854 10.8247L2.99944 26.2729H15.1907V25.3026H3.6993C3.61181 24.5067 2.11213 10.6959 2.11213 10.6959L1.31854 10.8247Z" fill="#C9CACA"/>
<path d="M6.97993 10.8546H6.58002V25.5978H6.97993V10.8546Z" fill="#C9CACA"/>
<path d="M11.1038 10.8546H10.7039V25.5978H11.1038V10.8546Z" fill="#C9CACA"/>
<path d="M15.3906 10.8546H14.9907V25.5978H15.3906V10.8546Z" fill="#C9CACA"/>
<path d="M27.813 15.6224H2.3371V16.1075H27.813V15.6224Z" fill="#C9CACA"/>
<path d="M27.8128 20.7237H2.76801V21.2088H27.8128V20.7237Z" fill="#C9CACA"/>
<path d="M1.76838 6.32208H28.2316C29.2064 6.32208 30 7.28475 30 8.46724V8.90688C30 10.0894 29.2064 11.052 28.2316 11.052H1.76838C0.793585 11.052 0 10.0894 0 8.90688V8.46724C0 7.28475 0.793585 6.32208 1.76838 6.32208Z" fill="#23B16C"/>
<path d="M23.8576 7.47394C24.1325 7.80746 24.1325 8.34564 23.8576 8.67917C23.5826 9.01269 23.139 9.01269 22.864 8.67917L16.909 1.45537C16.6341 1.12185 16.6341 0.583664 16.909 0.250142C17.184 -0.0833806 17.6276 -0.0833806 17.9026 0.250142L23.8576 7.47394Z" fill="#070707"/>
<path d="M6.21744 7.47394C5.94249 7.80746 5.94249 8.34564 6.21744 8.67917C6.49238 9.01269 6.93604 9.01269 7.21098 8.67917L13.1597 1.45537C13.4347 1.12185 13.4347 0.583664 13.1597 0.250142C12.8848 -0.0833806 12.4411 -0.0833806 12.1662 0.250142L6.21119 7.47394H6.21744Z" fill="#070707"/>
<path d="M22.6701 8.5878C22.6701 7.86012 23.1575 7.26129 23.7574 7.26129C24.3573 7.26129 24.8509 7.85254 24.8509 8.5878C24.8509 9.32307 24.3635 9.91431 23.7574 9.91431C23.1513 9.91431 22.6701 9.32307 22.6701 8.5878Z" fill="#070707"/>
<path d="M5.29877 8.5878C5.29877 7.86012 5.78617 7.26129 6.39229 7.26129C6.99841 7.26129 7.48581 7.85254 7.48581 8.5878C7.48581 9.32307 6.99841 9.91431 6.39229 9.91431C5.78617 9.91431 5.29877 9.32307 5.29877 8.5878Z" fill="#070707"/>
<path d="M27.2566 26.0905H2.90546V27.0835H27.2566V26.0905Z" fill="#C9CACA"/>
</svg>
