<svg width="24" height="24" viewBox="0 0 24 24" fill="none" xmlns="http://www.w3.org/2000/svg">
<path d="M10 15.227H14V22C14 22.2762 14.2239 22.5 14.5 22.5H20.6364L20.7914 22.4932C21.7673 22.4005 22.5 21.5989 22.5 20.6364V10.6364L22.4929 10.4788C22.4437 9.97107 22.2093 9.52452 21.8368 9.21087L13.2004 1.93814L13.0579 1.82931C12.3689 1.35376 11.4433 1.39603 10.7996 1.93814L2.1632 9.21087L2.04723 9.31782C1.69056 9.68249 1.5 10.1494 1.5 10.6364V20.6364L1.50681 20.7915C1.59948 21.7673 2.40109 22.5 3.36364 22.5H9.5C9.77614 22.5 10 22.2762 10 22V15.227Z" fill="#23B16C"/>
</svg>
