<svg width="24" height="24" viewBox="0 0 24 24" fill="none" xmlns="http://www.w3.org/2000/svg">
<path d="M12 1.5C9.51472 1.5 7.5 3.51472 7.5 6C7.5 8.48528 9.51472 10.5 12 10.5C14.4853 10.5 16.5 8.48528 16.5 6C16.5 3.51472 14.4853 1.5 12 1.5Z" fill="#23B16C"/>
<path d="M12 2.5C13.933 2.5 15.5 4.067 15.5 6C15.5 7.933 13.933 9.5 12 9.5C10.067 9.5 8.5 7.933 8.5 6C8.5 4.067 10.067 2.5 12 2.5Z" fill="#23B16C"/>
<path d="M12 11.5C6.21629 11.5 1.5 15.7688 1.5 21.0826C1.5 21.8644 2.12984 22.5 2.90909 22.5H21.0909C21.8702 22.5 22.5 21.8644 22.5 21.0826C22.5 15.809 17.7482 11.5 12 11.5Z" fill="#23B16C"/>
<path d="M12 12.5C17.2166 12.5 21.5 16.3843 21.5 21.0826C21.5 21.3141 21.3158 21.5 21.0909 21.5H2.90909C2.68418 21.5 2.5 21.3141 2.5 21.0826C2.5 16.3446 6.74757 12.5 12 12.5Z" fill="#23B16C"/>
</svg>
