<svg width="30" height="30" viewBox="0 0 30 30" fill="none" xmlns="http://www.w3.org/2000/svg">
<path d="M23.9253 23.4431H12.0314C10.2341 23.4431 9.82173 22.5611 9.50456 21.5006C9.24025 20.6081 5.95224 7.30491 5.60335 5.86644C5.28618 4.57497 4.68356 4.57497 4.45097 4.57497H0.792928C0.35946 4.57497 0 4.21798 0 3.78748C0 3.35699 0.35946 3 0.792928 3H4.45097C5.23332 3 6.6183 3.32549 7.14692 5.49895C7.51695 7.02142 10.7838 20.2407 11.027 21.0596C11.2596 21.8261 11.2701 21.8786 12.0314 21.8786H23.9253C24.3587 21.8786 24.7182 22.2356 24.7182 22.6661C24.7182 23.0966 24.3587 23.4536 23.9253 23.4536V23.4431Z" fill="#333333"/>
<path d="M11.2707 27.9991C9.56857 27.9991 8.18359 26.6236 8.18359 24.9331C8.18359 23.2427 9.56857 21.8672 11.2707 21.8672C12.9729 21.8672 14.3579 23.2427 14.3579 24.9331C14.3579 26.6236 12.9729 27.9991 11.2707 27.9991ZM11.2707 23.4422C10.4461 23.4422 9.76945 24.1141 9.76945 24.9331C9.76945 25.7521 10.4461 26.4241 11.2707 26.4241C12.0954 26.4241 12.772 25.7521 12.772 24.9331C12.772 24.1141 12.0954 23.4422 11.2707 23.4422Z" fill="#333333"/>
<path d="M23.9055 27.9991C22.2033 27.9991 20.8184 26.6236 20.8184 24.9331C20.8184 23.2427 22.2033 21.8672 23.9055 21.8672C25.6076 21.8672 26.9926 23.2427 26.9926 24.9331C26.9926 26.6236 25.6076 27.9991 23.9055 27.9991ZM23.9055 23.4422C23.0808 23.4422 22.4042 24.1141 22.4042 24.9331C22.4042 25.7521 23.0808 26.4241 23.9055 26.4241C24.7301 26.4241 25.4068 25.7521 25.4068 24.9331C25.4068 24.1141 24.7301 23.4422 23.9055 23.4422Z" fill="#333333"/>
<path d="M25.1619 18.7605H9.51482C9.08136 18.7605 8.7219 18.4035 8.7219 17.973C8.7219 17.5425 9.08136 17.1855 9.51482 17.1855H25.0139L27.3504 8.5652H6.91402C6.48055 8.5652 6.12109 8.20821 6.12109 7.77772C6.12109 7.34723 6.48055 6.99023 6.91402 6.99023H27.6147C28.0482 6.99023 28.4499 7.18973 28.7248 7.53622C28.9997 7.88272 29.0737 8.32371 28.9574 8.7332L26.5152 17.742C26.3566 18.3405 25.7963 18.7605 25.1725 18.7605H25.1619Z" fill="#333333"/>
</svg>
