<svg width="19" height="16" viewBox="0 0 19 16" fill="none" xmlns="http://www.w3.org/2000/svg">
<path d="M9.4333 13.5844C9.4333 14.6424 8.54664 15.5 7.45291 15.5C6.35917 15.5 5.47252 14.6424 5.47252 13.5844C5.47252 12.8788 5.86733 12.2619 6.4548 11.9296C6.44425 11.9021 5.59767 8.56502 3.91542 1.91808C3.88799 1.80892 3.79166 1.73002 3.67775 1.71982L1.29798 1.7188C0.949927 1.7188 0.667969 1.44607 0.667969 1.1094C0.667969 0.772733 0.931646 0.518364 1.26353 0.50102L3.65314 0.5C4.34222 0.5 4.94446 0.945147 5.12763 1.58413L5.43912 2.81517H18.038C18.386 2.81517 18.668 3.08825 18.668 3.42457C18.668 3.44872 18.6595 3.51231 18.643 3.61501L17.0722 9.70935C16.9973 9.99976 16.7185 10.1892 16.42 10.1701L7.29681 10.1725L7.62412 11.4688C7.65154 11.578 7.74787 11.6569 7.86178 11.6671L15.1938 11.6688C16.2875 11.6688 17.1742 12.5265 17.1742 13.5844C17.1742 14.5757 16.3954 15.3915 15.3973 15.4898C15.3305 15.4963 15.2627 15.4997 15.1938 15.4997C14.1 15.4997 13.2134 14.642 13.2134 13.5841C13.2134 13.3382 13.2612 13.1029 13.3487 12.8869H9.29794C9.38513 13.1029 9.4333 13.3382 9.4333 13.5841V13.5844ZM15.1941 12.8879C14.7965 12.8879 14.4741 13.1998 14.4741 13.5844C14.4741 13.969 14.7965 14.2809 15.1941 14.2809C15.5917 14.2809 15.9141 13.969 15.9141 13.5844C15.9141 13.1998 15.5917 12.8879 15.1941 12.8879ZM7.45291 12.8879C7.05528 12.8879 6.73289 13.1998 6.73289 13.5844C6.73289 13.969 7.05528 14.2809 7.45291 14.2809C7.85053 14.2809 8.17292 13.969 8.17292 13.5844C8.17292 13.1998 7.85053 12.8879 7.45291 12.8879ZM17.2367 4.03431H5.74709L6.98919 8.9544H15.9683L17.2364 4.03431H17.2367Z" fill="white"/>
</svg>
