<svg width="23" height="25" viewBox="0 0 23 25" fill="none" xmlns="http://www.w3.org/2000/svg">
<path d="M22.1352 11.1981C21.704 11.1981 21.3539 10.848 21.3539 10.4169C21.3539 7.42517 20.1893 4.61365 18.0746 2.49792C17.7694 2.19275 17.7694 1.69812 18.0746 1.39294C18.3798 1.08777 18.8744 1.08777 19.1801 1.39294C21.5893 3.8031 22.9164 7.00867 22.9164 10.4169C22.9164 10.848 22.5663 11.1981 22.1352 11.1981Z" fill="#333333"/>
<path d="M0.781255 11.1971C0.3501 11.1971 0 10.847 0 10.4159C0 7.00769 1.32716 3.80261 3.73733 1.39294C4.04251 1.08777 4.53763 1.08777 4.84281 1.39294C5.14799 1.69812 5.14799 2.19324 4.84281 2.49841C2.72707 4.61267 1.56251 7.4242 1.56251 10.4159C1.56251 10.847 1.21241 11.1971 0.781255 11.1971Z" fill="#333333"/>
<path d="M11.459 25C9.3047 25 7.55273 23.248 7.55273 21.0938C7.55273 20.6626 7.90283 20.3125 8.33399 20.3125C8.76515 20.3125 9.11525 20.6626 9.11525 21.0938C9.11525 22.3867 10.166 23.4375 11.459 23.4375C12.752 23.4375 13.8028 22.3867 13.8028 21.0938C13.8028 20.6626 14.1529 20.3125 14.584 20.3125C15.0152 20.3125 15.3653 20.6626 15.3653 21.0938C15.3653 23.248 13.6133 25 11.459 25Z" fill="#333333"/>
<path d="M20.0519 21.875H2.86427C1.85889 21.875 1.04102 21.0571 1.04102 20.0522C1.04102 19.5186 1.27344 19.0137 1.67872 18.6665C3.2632 17.3281 4.16604 15.3823 4.16604 13.3208V10.4165C4.16604 6.396 7.43706 3.125 11.4581 3.125C15.4791 3.125 18.7496 6.396 18.7496 10.4165V13.3208C18.7496 15.3823 19.653 17.3281 21.2267 18.6592C21.6422 19.0132 21.8747 19.5186 21.8747 20.0518C21.8747 21.0571 21.0568 21.8745 20.0519 21.8745V21.875ZM11.4581 4.6875C8.29839 4.6875 5.72855 7.25732 5.72855 10.4165V13.3208C5.72855 15.8423 4.62356 18.2236 2.69728 19.8521C2.66066 19.8833 2.60353 19.9478 2.60353 20.0522C2.60353 20.1938 2.72218 20.3125 2.86427 20.3125H20.0519C20.1935 20.3125 20.3121 20.1938 20.3121 20.0522C20.3121 19.9482 20.255 19.8833 20.2204 19.8545C18.2921 18.2241 17.1871 15.8428 17.1871 13.3213V10.417C17.1871 7.25781 14.6173 4.68799 11.4581 4.68799V4.6875Z" fill="#333333"/>
<path d="M11.459 4.6875C11.0278 4.6875 10.6777 4.3374 10.6777 3.90625V0.78125C10.6777 0.350098 11.0278 0 11.459 0C11.8901 0 12.2402 0.350098 12.2402 0.78125V3.90625C12.2402 4.3374 11.8901 4.6875 11.459 4.6875Z" fill="#333333"/>
</svg>
