<svg width="30" height="30" viewBox="0 0 30 30" fill="none" xmlns="http://www.w3.org/2000/svg">
<g clip-path="url(#clip0_1969_13388)">
<path d="M14.9998 0C6.71642 0 0 6.71642 0 15.0002C0 23.284 6.71642 30 14.9998 30C23.2832 30 30 23.2836 30 15.0002C30 6.7168 23.2836 0 14.9998 0Z" fill="#2CB24A"/>
<path d="M21.8352 7.33436H8.1653C6.42198 7.33436 5.00928 8.75193 5.00928 10.502V18.0148C5.00928 19.7641 6.42198 21.1817 8.1653 21.1817H12.8737L14.4807 23.7985C14.4807 23.7985 14.4979 23.8296 14.5331 23.8727C14.6267 24.0337 14.8001 24.1434 14.9997 24.1434C15.1992 24.1434 15.3703 24.0352 15.4651 23.8757C15.5055 23.8285 15.5194 23.7974 15.5194 23.7974L17.1264 21.1813H21.8355C23.5781 21.1813 24.9912 19.7637 24.9912 18.0144V10.5016C24.9912 8.75193 23.5781 7.33398 21.8355 7.33398L21.8352 7.33436Z" fill="white"/>
<path d="M9.44699 12.8408C9.44699 12.8408 8.90145 12.8408 8.40721 13.3227V11.3828H7.18359V16.4795H8.41957V16.0803C8.41957 16.0803 8.71124 16.6064 9.44699 16.6064C9.44699 16.6064 11.1712 16.5431 11.1712 14.7047C11.1712 14.7047 11.1076 12.8408 9.44699 12.8408ZM9.17778 15.5303C8.74382 15.5303 8.39149 15.1784 8.39149 14.7444C8.39149 14.3104 8.74382 13.9581 9.17778 13.9581C9.61174 13.9581 9.96369 14.3097 9.96369 14.7444C9.96369 15.1791 9.61174 15.5303 9.17778 15.5303Z" fill="#2CB24A"/>
<path d="M11.564 11.2676V12.447C11.564 12.447 12.1222 12.4216 12.1222 13.4613V16.4784H13.3013V13.1824C13.3013 13.1824 13.3518 11.2676 11.564 11.2676Z" fill="#2CB24A"/>
<path d="M16.1845 12.8555C16.1845 12.8555 14.1633 12.8566 14.1633 14.7441C14.1633 14.7441 14.0982 16.6057 16.1845 16.6057C16.1845 16.6057 18.252 16.6027 18.252 14.7441C18.252 14.7441 18.3194 12.8555 16.1845 12.8555ZM16.1848 15.5296C15.7509 15.5296 15.3985 15.1776 15.3985 14.7437C15.3985 14.3097 15.7509 13.9574 16.1848 13.9574C16.6188 13.9574 16.9707 14.309 16.9707 14.7437C16.9707 15.1784 16.6188 15.5296 16.1848 15.5296Z" fill="#2CB24A"/>
<path d="M21.6274 12.9798V13.3224C21.6274 13.3224 21.2758 12.8558 20.6007 12.8558C20.6007 12.8558 18.8701 12.7828 18.8701 14.7317C18.8701 14.7317 18.851 16.5458 20.5532 16.5458C20.5532 16.5458 21.247 16.5742 21.6274 16.08V16.3653C21.6274 16.3653 21.7135 17.2587 20.8478 17.2587H20.5535V18.343H21.0287C21.0287 18.343 22.8162 18.3617 22.8162 16.4316V12.9798H21.6278H21.6274ZM20.8965 15.53C20.4626 15.53 20.1106 15.178 20.1106 14.744C20.1106 14.3101 20.4622 13.9578 20.8965 13.9578C21.3308 13.9578 21.6824 14.3093 21.6824 14.744C21.6824 15.1788 21.3305 15.53 20.8965 15.53Z" fill="#2CB24A"/>
</g>
<defs>
<clipPath id="clip0_1969_13388">
<rect width="30" height="30" fill="white"/>
</clipPath>
</defs>
</svg>
