<svg width="15" height="13" viewBox="0 0 15 13" fill="none" xmlns="http://www.w3.org/2000/svg">
<path d="M14.0625 0.874988H0.937506C0.419718 0.874988 0 1.29474 0 1.81249C0 2.33025 0.419718 2.75 0.937506 2.75H14.0625C14.5803 2.75 15 2.33025 15 1.81249C15 1.29474 14.5803 0.874988 14.0625 0.874988Z" fill="#333333"/>
<path d="M14.0625 5.56252H0.937506C0.419718 5.56252 0 5.98224 0 6.49999C0 7.01775 0.419718 7.4375 0.937506 7.4375H14.0625C14.5803 7.4375 15 7.01778 15 6.49999C15 5.98221 14.5803 5.56252 14.0625 5.56252Z" fill="#333333"/>
<path d="M14.0625 10.25H0.937506C0.419718 10.25 0 10.6697 0 11.1875C0 11.7053 0.419718 12.125 0.937506 12.125H14.0625C14.5803 12.125 15 11.7053 15 11.1875C15 10.6697 14.5803 10.25 14.0625 10.25Z" fill="#333333"/>
</svg>
