<svg width="30" height="30" viewBox="0 0 30 30" fill="none" xmlns="http://www.w3.org/2000/svg">
<g clip-path="url(#clip0_1969_13378)">
<path d="M30 15.0005C30 23.285 23.2839 30 15.0005 30C6.7171 30 0 23.285 0 15.0005C0 6.71606 6.71606 0 15.0005 0C23.285 0 30 6.71606 30 15.0005Z" fill="url(#paint0_linear_1969_13378)"/>
<path d="M15.0003 10.1504C12.3219 10.1504 10.1499 12.3213 10.1499 14.9997C10.1499 17.6781 12.3219 19.8491 15.0003 19.8491C17.6787 19.8491 19.8496 17.6781 19.8496 14.9997C19.8496 12.3213 17.6787 10.1504 15.0003 10.1504ZM15.0003 18.1479C13.2618 18.1479 11.8524 16.7385 11.8524 15.0001C11.8524 13.2616 13.2618 11.8522 15.0003 11.8522C16.7388 11.8522 18.1481 13.2616 18.1481 15.0001C18.1481 16.7385 16.7388 18.1479 15.0003 18.1479Z" fill="white"/>
<path d="M21.1749 9.95808C21.1749 10.5834 20.6674 11.0909 20.041 11.0909C19.4146 11.0909 18.9082 10.5834 18.9082 9.95808C18.9082 9.33273 19.4157 8.82422 20.041 8.82422C20.6664 8.82422 21.1749 9.33169 21.1749 9.95808Z" fill="white"/>
<path d="M24.3875 11.1051C24.3415 10.0995 24.1825 9.41362 23.9488 8.81316C23.7068 8.19196 23.3839 7.66512 22.8592 7.14037C22.3344 6.61457 21.8076 6.2917 21.1864 6.05075C20.5856 5.81707 19.899 5.65701 18.8945 5.61207C17.8868 5.56609 17.5649 5.55469 15.0003 5.55469C12.4356 5.55469 12.1137 5.56609 11.1061 5.61207C10.1004 5.65701 9.4146 5.81707 8.8131 6.05075C8.19293 6.2917 7.6661 6.61457 7.14134 7.14037C6.61555 7.66512 6.29267 8.19196 6.05173 8.81316C5.81804 9.41397 5.65799 10.0995 5.61305 11.1051C5.56707 12.1128 5.55566 12.4346 5.55566 14.9993C5.55566 17.564 5.56707 17.8858 5.61305 18.8935C5.65799 19.8981 5.81804 20.5849 6.05173 21.1854C6.29267 21.8066 6.61555 22.3334 7.14134 22.8582C7.6661 23.3829 8.19293 23.7069 8.8131 23.9478C9.41495 24.1815 10.1004 24.3405 11.1061 24.3865C12.1137 24.4325 12.4356 24.4439 15.0003 24.4439C17.5649 24.4439 17.8868 24.4325 18.8945 24.3865C19.899 24.3405 20.5859 24.1815 21.1864 23.9478C21.8076 23.7069 22.3344 23.3829 22.8592 22.8582C23.3839 22.3334 23.7068 21.8066 23.9488 21.1854C24.1825 20.5846 24.3415 19.8981 24.3875 18.8935C24.4334 17.8858 24.4448 17.564 24.4448 14.9993C24.4448 12.4346 24.4334 12.1128 24.3875 11.1051ZM22.6881 18.8153C22.6462 19.7359 22.4924 20.2361 22.3621 20.569C22.191 21.0098 21.987 21.3244 21.6558 21.6545C21.3257 21.9857 21.0111 22.1896 20.5704 22.3618C20.2371 22.4911 19.7369 22.6446 18.8163 22.6867C17.8211 22.7317 17.5217 22.742 14.9999 22.742C12.4781 22.742 12.1791 22.7317 11.1835 22.6867C10.2619 22.6446 9.76271 22.4911 9.42981 22.3618C8.98906 22.1896 8.67448 21.9857 8.34331 21.6545C8.01317 21.3244 7.80818 21.0098 7.63706 20.569C7.50777 20.2358 7.35429 19.7356 7.31211 18.8153C7.26717 17.8201 7.2568 17.5207 7.2568 14.9989C7.2568 12.4771 7.26717 12.1781 7.31211 11.1825C7.35429 10.2609 7.50777 9.76173 7.63706 9.42883C7.80818 8.98808 8.01317 8.6735 8.34331 8.34337C8.67448 8.0122 8.98906 7.8072 9.42981 7.63609C9.76305 7.5068 10.2622 7.35331 11.1835 7.31114C12.1787 7.2662 12.4781 7.25583 14.9999 7.25583C17.5217 7.25583 17.8197 7.2662 18.8163 7.31114C19.7369 7.35331 20.2371 7.5068 20.5704 7.63609C21.0111 7.8072 21.3257 8.0122 21.6558 8.34337C21.987 8.6735 22.191 8.98808 22.3621 9.42883C22.4924 9.76208 22.6462 10.2613 22.6881 11.1825C22.733 12.1778 22.7423 12.4771 22.7423 14.9989C22.7423 17.5207 22.733 17.8198 22.6881 18.8153Z" fill="white"/>
</g>
<defs>
<linearGradient id="paint0_linear_1969_13378" x1="9.2237" y1="34.0836" x2="20.6678" y2="-3.72308" gradientUnits="userSpaceOnUse">
<stop stop-color="#FEDA75"/>
<stop offset="0.21" stop-color="#FA7E1E"/>
<stop offset="0.43" stop-color="#D62976"/>
<stop offset="0.72" stop-color="#962FBF"/>
<stop offset="1" stop-color="#4F5BD5"/>
</linearGradient>
<clipPath id="clip0_1969_13378">
<rect width="30" height="30" fill="white"/>
</clipPath>
</defs>
</svg>
