<svg width="20" height="20" viewBox="0 0 20 20" fill="none" xmlns="http://www.w3.org/2000/svg">
<g clip-path="url(#clip0_197_118)">
<path d="M19.7555 18.5773L14.0681 12.8898C15.1696 11.5289 15.8329 9.8 15.8329 7.91641C15.8329 3.55156 12.2814 0 7.91664 0C3.55188 0 0 3.55156 0 7.9168C0 12.282 3.55149 15.8336 7.91664 15.8336C9.79981 15.8336 11.5291 15.1703 12.89 14.0688L18.5774 19.7563C18.7399 19.9188 18.9531 20.0004 19.1664 20.0004C19.3797 20.0004 19.593 19.9188 19.7555 19.7563C20.0812 19.4305 20.0812 18.9039 19.7555 18.5781V18.5773ZM7.91664 14.1668C4.46983 14.1668 1.66676 11.3633 1.66676 7.9168C1.66676 4.47031 4.46983 1.6668 7.91664 1.6668C11.3635 1.6668 14.1665 4.46992 14.1665 7.9168C14.1665 11.3637 11.3631 14.1668 7.91664 14.1668Z" fill="#23B16C"/>
</g>
<defs>
<clipPath id="clip0_197_118">
<rect width="20" height="20" fill="white"/>
</clipPath>
</defs>
</svg>
