<svg width="20" height="21" viewBox="0 0 20 21" fill="none" xmlns="http://www.w3.org/2000/svg">
<g clip-path="url(#clip0_1964_77735)">
<path d="M19.7555 19.0773L14.0681 13.3898C15.1696 12.0289 15.8329 10.3 15.8329 8.41641C15.8329 4.05156 12.2814 0.5 7.91664 0.5C3.55188 0.5 0 4.05156 0 8.4168C0 12.782 3.55149 16.3336 7.91664 16.3336C9.79981 16.3336 11.5291 15.6703 12.89 14.5688L18.5774 20.2563C18.7399 20.4188 18.9531 20.5004 19.1664 20.5004C19.3797 20.5004 19.593 20.4188 19.7555 20.2563C20.0812 19.9305 20.0812 19.4039 19.7555 19.0781V19.0773ZM7.91664 14.6668C4.46983 14.6668 1.66676 11.8633 1.66676 8.4168C1.66676 4.97031 4.46983 2.1668 7.91664 2.1668C11.3635 2.1668 14.1665 4.96992 14.1665 8.4168C14.1665 11.8637 11.3631 14.6668 7.91664 14.6668Z" fill="#333333"/>
</g>
<defs>
<clipPath id="clip0_1964_77735">
<rect width="20" height="20" fill="white" transform="translate(0 0.5)"/>
</clipPath>
</defs>
</svg>
