<svg width="30" height="30" viewBox="0 0 30 30" fill="none" xmlns="http://www.w3.org/2000/svg">
<path d="M14.9904 3C11.348 3 8.39453 5.9608 8.39453 9.58882C8.39453 13.2168 11.3585 16.1776 14.9904 16.1776C18.6222 16.1776 21.5862 13.2168 21.5862 9.58882C21.5862 5.9608 18.6327 3 14.9904 3ZM14.9904 14.7181C12.1621 14.7181 9.85563 12.4141 9.85563 9.58882C9.85563 6.76355 12.1621 4.46997 14.9904 4.46997C17.8186 4.46997 20.1251 6.77398 20.1251 9.59925C20.1251 12.4245 17.8186 14.7285 14.9904 14.7285V14.7181Z" fill="#333333"/>
<path d="M23.203 20.4946C21.3975 18.6597 18.9972 17.6484 16.4611 17.6484H13.5285C10.982 17.6484 8.59203 18.6597 6.78653 20.4946C4.99146 22.319 4 24.7273 4 27.271C4 27.6776 4.32353 28.0008 4.73055 28.0008H25.2694C25.6765 28.0008 26 27.6776 26 27.271C26 24.7273 25.0085 22.319 23.2135 20.4946H23.203ZM5.49241 26.5413C5.85768 22.3815 9.32258 19.1184 13.5285 19.1184H16.4611C20.667 19.1184 24.1319 22.3815 24.4972 26.5413H5.49241Z" fill="#333333"/>
</svg>
