<svg width="30" height="30" viewBox="0 0 30 30" fill="none" xmlns="http://www.w3.org/2000/svg">
<g clip-path="url(#clip0_1969_13384)">
<path d="M21.8918 8.00391H8.09578C6.46441 8.00391 5.14307 9.32525 5.14307 10.9566V19.0704C5.14307 20.7018 6.46441 22.0231 8.09578 22.0231H21.8922C23.5236 22.0231 24.8449 20.7018 24.8449 19.0704V10.9566C24.8449 9.32525 23.5236 8.00391 21.8922 8.00391H21.8918ZM18.5666 14.6773L13.1606 18.2976C13.1071 18.3324 13.0371 18.2942 13.0371 18.2317V10.9914C13.0371 10.9289 13.1071 10.8903 13.1606 10.9255L18.5666 14.5458C18.6141 14.5762 18.6141 14.6469 18.5666 14.6769V14.6773Z" fill="white" stroke="#F6F2F2" stroke-miterlimit="10"/>
<path d="M30 15.0002C30 6.71642 23.2836 0 14.9998 0C6.71605 0 0 6.71642 0 15.0002C0 23.284 6.71642 30 14.9998 30C23.2832 30 30 23.2836 30 15.0002ZM24.8446 19.0709C24.8446 20.7023 23.5232 22.0236 21.8918 22.0236H8.0958C6.46444 22.0236 5.14309 20.7023 5.14309 19.0709V10.9572C5.14309 9.32579 6.46444 8.00444 8.0958 8.00444H21.8922C23.5236 8.00444 24.8449 9.32579 24.8449 10.9572V19.0709H24.8446Z" fill="#EA1D24"/>
<path d="M13.1607 10.9253C13.1071 10.8905 13.0371 10.9287 13.0371 10.9912V18.2315C13.0371 18.294 13.1071 18.3322 13.1607 18.2974L18.5666 14.6771C18.6142 14.6467 18.6142 14.576 18.5666 14.546L13.1607 10.9257V10.9253Z" fill="#EA1D24"/>
</g>
<defs>
<clipPath id="clip0_1969_13384">
<rect width="30" height="30" fill="white"/>
</clipPath>
</defs>
</svg>
