<svg width="24" height="24" viewBox="0 0 24 24" fill="none" xmlns="http://www.w3.org/2000/svg">
<path d="M10.5 1.5C5.80558 1.5 2 5.30558 2 10C2 14.6944 5.80558 18.5 10.5 18.5C15.1944 18.5 19 14.6944 19 10C19 5.30558 15.1944 1.5 10.5 1.5ZM10.5 2.5C14.6421 2.5 18 5.85786 18 10C18 14.1421 14.6421 17.5 10.5 17.5C6.35786 17.5 3 14.1421 3 10C3 5.85786 6.35786 2.5 10.5 2.5Z" fill="#23B16C"/>
<path d="M16.1464 15.6464C16.32 15.4729 16.5894 15.4536 16.7843 15.5886L16.8536 15.6464L20.8536 19.6464C21.0488 19.8417 21.0488 20.1583 20.8536 20.3536C20.68 20.5271 20.4106 20.5464 20.2157 20.4114L20.1464 20.3536L16.1464 16.3536C15.9512 16.1583 15.9512 15.8417 16.1464 15.6464Z" fill="#23B16C"/>
</svg>
