<svg width="24" height="24" viewBox="0 0 24 24" fill="none" xmlns="http://www.w3.org/2000/svg">
<path d="M22 19.5C22.2761 19.5 22.5 19.7239 22.5 20C22.5 20.2455 22.3231 20.4496 22.0899 20.4919L22 20.5H2C1.72386 20.5 1.5 20.2761 1.5 20C1.5 19.7545 1.67688 19.5504 1.91012 19.5081L2 19.5H22ZM22 11.5C22.2761 11.5 22.5 11.7239 22.5 12C22.5 12.2455 22.3231 12.4496 22.0899 12.4919L22 12.5H2C1.72386 12.5 1.5 12.2761 1.5 12C1.5 11.7545 1.67688 11.5504 1.91012 11.5081L2 11.5H22ZM22 3.5C22.2761 3.5 22.5 3.72386 22.5 4C22.5 4.24546 22.3231 4.44961 22.0899 4.49194L22 4.5H2C1.72386 4.5 1.5 4.27614 1.5 4C1.5 3.75454 1.67688 3.55039 1.91012 3.50806L2 3.5H22Z" fill="#333333"/>
</svg>
