<svg width="22" height="22" viewBox="0 0 22 22" fill="none" xmlns="http://www.w3.org/2000/svg">
<g clip-path="url(#clip0_1722_17588)">
<path d="M14.2217 3.77637C13.9845 3.77637 13.792 3.96887 13.792 4.2061C13.792 4.44333 13.9845 4.63583 14.2217 4.63583C14.459 4.63583 14.6515 4.44333 14.6515 4.2061C14.6515 3.96887 14.459 3.77637 14.2217 3.77637Z" fill="#23B16C"/>
<path d="M12.503 2.91699C12.2657 2.91699 12.0732 3.10949 12.0732 3.34672C12.0732 3.58395 12.2657 3.77645 12.503 3.77645C12.7402 3.77645 12.9327 3.58395 12.9327 3.34672C12.9327 3.10949 12.7402 2.91699 12.503 2.91699Z" fill="#23B16C"/>
<path d="M12.503 4.63672C12.2657 4.63672 12.0732 4.82922 12.0732 5.06645C12.0732 5.30368 12.2657 5.49618 12.503 5.49618C12.7402 5.49618 12.9327 5.30368 12.9327 5.06645C12.9327 4.82922 12.7402 4.63672 12.503 4.63672Z" fill="#23B16C"/>
<path d="M10.7842 2.91699C10.547 2.91699 10.3545 3.10949 10.3545 3.34672C10.3545 3.58395 10.547 3.77645 10.7842 3.77645C11.0215 3.77645 11.214 3.58395 11.214 3.34672C11.214 3.10949 11.0215 2.91699 10.7842 2.91699Z" fill="#23B16C"/>
<path d="M4.74321 6.35547C4.50598 6.35547 4.31348 6.54797 4.31348 6.7852C4.31348 7.02239 4.50598 7.21493 4.74321 7.21493C4.98039 7.21493 5.17294 7.02243 5.17294 6.7852C5.17294 6.54801 4.98044 6.35547 4.74321 6.35547Z" fill="#23B16C"/>
<path d="M21.5703 12.3713H18.1217C19.3296 9.70002 19.4421 6.92282 18.4194 4.7657C19.2183 3.92536 19.2055 2.59153 18.3808 1.7664C17.5559 0.941958 16.2221 0.929197 15.3816 1.72811C13.7881 0.973927 11.8181 0.828306 9.7908 1.32159C7.62947 1.8474 5.49164 3.08468 3.77109 4.80545C2.0498 6.52652 0.812517 8.65988 0.287224 10.8125C-0.207604 12.8401 -0.0591037 14.8132 0.702045 16.4091C-0.0717364 17.2401 -0.0747442 18.5593 0.756873 19.3903C1.58703 20.2211 2.91842 20.2266 3.75549 19.4292C5.56069 20.2853 7.6534 20.2912 9.58356 19.7719C10.8622 20.5534 12.3278 20.9657 13.8352 20.9657C18.3373 20.9657 22 17.303 22 12.8009C22 12.5637 21.8076 12.3713 21.5703 12.3713ZM19.4053 13.2264C19.3153 14.4126 18.8534 15.5298 18.0759 16.4339L14.8728 13.2264C15.7943 13.2264 18.4047 13.2264 19.4053 13.2264ZM17.4682 17.0417C16.564 17.8192 15.4511 18.2811 14.265 18.3711V13.8385L17.4682 17.0417ZM3.85952 18.5189C3.67153 18.4176 3.43744 18.4696 3.3102 18.6413C2.84752 19.2665 1.92584 19.3441 1.36462 18.7826C0.862404 18.2807 0.858193 17.4662 1.36591 16.9588C1.41739 16.9069 1.46349 16.8506 1.48163 16.8373C1.65333 16.7101 1.70549 16.476 1.60404 16.2879C-0.0406271 13.2388 1.12628 8.66538 4.37879 5.4132C7.636 2.15548 12.2198 0.988708 15.2779 2.63845C15.4655 2.7396 15.6989 2.68812 15.8264 2.51732C15.8643 2.4664 15.906 2.41824 15.95 2.37424C16.4525 1.87176 17.2705 1.8718 17.7731 2.37415C18.2757 2.87701 18.2757 3.69497 17.7734 4.1974C17.7292 4.24149 17.6811 4.28312 17.6301 4.32111C17.4593 4.44855 17.4078 4.68196 17.509 4.86952C18.6155 6.92024 18.486 9.70827 17.1718 12.3713H6.10021C5.86294 12.3713 5.67048 12.5637 5.67048 12.801C5.67048 15.2686 6.76842 17.5627 8.6474 19.1057C6.87687 19.4437 5.20259 19.2434 3.85952 18.5189ZM13.4055 13.8385V18.371C12.2194 18.281 11.1065 17.8191 10.2024 17.0416L13.4055 13.8385ZM9.5946 16.4339C8.81708 15.5297 8.35525 14.4168 8.26519 13.2307H12.7977L9.5946 16.4339ZM13.8352 20.1063C12.4277 20.1063 11.0612 19.705 9.88339 18.9459L9.88331 18.9458C7.90464 17.6709 6.67737 15.5577 6.54236 13.2308H7.40384C7.50606 14.7885 8.16262 16.2404 9.27925 17.357C10.498 18.5757 12.116 19.2469 13.8352 19.2469C17.2883 19.2469 20.049 16.5416 20.2666 13.2265H21.1281C20.9048 17.0553 17.7191 20.1063 13.8352 20.1063Z" fill="#23B16C"/>
<path d="M3.99897 7.83719C3.8005 7.70687 3.53414 7.76217 3.4039 7.96047C1.94786 10.1777 1.39296 12.6055 1.88134 14.6214C1.92895 14.818 2.10482 14.95 2.29865 14.95C2.57757 14.95 2.78205 14.6889 2.71666 14.419C2.2904 12.6597 2.81591 10.4217 4.12233 8.43226C4.25257 8.23388 4.19736 7.96747 3.99897 7.83719Z" fill="#23B16C"/>
</g>
<defs>
<clipPath id="clip0_1722_17588">
<rect width="22" height="22" fill="white"/>
</clipPath>
</defs>
</svg>
