<svg width="22" height="22" viewBox="0 0 22 22" fill="none" xmlns="http://www.w3.org/2000/svg">
<path d="M18.3262 5.05961C18.3262 3.23361 16.8522 1.75961 15.0262 1.75961C13.3542 1.75961 11.9682 3.01361 11.7482 4.61961H9.96625V2.41961C9.96625 1.69361 9.37225 1.09961 8.64625 1.09961H4.68625C4.44425 1.09961 4.24625 1.29761 4.24625 1.53961C4.24625 1.78161 4.44425 1.97961 4.68625 1.97961H8.64625C8.88825 1.97961 9.08625 2.17761 9.08625 2.41961V4.61961H4.99425C4.62025 4.61961 4.26825 4.77361 4.02625 5.03761C3.78425 5.30161 3.65225 5.67561 3.67425 6.04961L4.77425 18.8756C4.86225 20.0196 5.80825 20.8776 6.97425 20.8776H12.1002C13.2442 20.8776 14.1902 20.0196 14.3002 18.8756L14.9822 10.8016L15.1802 8.35961C16.9402 8.27161 18.3262 6.81961 18.3262 5.05961ZM14.0802 5.49961C14.2122 5.49961 14.3222 5.54361 14.4102 5.63161C14.4982 5.71961 14.5422 5.85161 14.5202 5.96161L14.1462 10.3396H13.1782C12.0782 10.3396 11.0002 10.1636 9.98825 9.81161V5.49961H14.0802ZM4.66425 5.63161C4.75225 5.54361 4.86225 5.49961 4.99425 5.49961H9.08625V9.50361C8.05225 9.17361 6.97425 9.01961 5.89625 9.01961H4.81825L4.55425 5.98361C4.53225 5.85161 4.57625 5.74161 4.66425 5.63161ZM13.4202 18.8096C13.3542 19.4916 12.8042 20.0196 12.1002 20.0196H6.97425C6.29225 20.0196 5.72025 19.4916 5.65425 18.8096L4.88425 9.89961H5.89625C7.08425 9.89961 8.27225 10.1196 9.37225 10.5376C10.6042 10.9776 11.8802 11.2196 13.1782 11.2196H14.0582L13.4202 18.8096ZM15.2682 7.45761L15.4002 6.04961C15.4222 5.67561 15.3122 5.32361 15.0482 5.03761C14.8062 4.77361 14.4322 4.61961 14.0802 4.61961H12.6502C12.8482 3.49761 13.8382 2.63961 15.0262 2.63961C16.3682 2.63961 17.4462 3.71761 17.4462 5.05961C17.4462 6.31361 16.5002 7.34761 15.2682 7.45761Z" fill="#23B16C"/>
</svg>
