<svg width="22" height="22" viewBox="0 0 22 22" fill="none" xmlns="http://www.w3.org/2000/svg">
<path d="M2.60635 8.78125C1.92955 8.78125 1.37891 9.33189 1.37891 10.0087C1.37891 10.2643 1.45737 10.5085 1.6005 10.7124C1.45737 10.9162 1.37891 11.1604 1.37891 11.416C1.37891 11.6715 1.45741 11.9157 1.6005 12.1196C1.45737 12.3235 1.37891 12.5677 1.37891 12.8233C1.37891 13.5001 1.92951 14.0507 2.60635 14.0507C3.28315 14.0507 3.8338 13.5001 3.8338 12.8233C3.8338 12.5677 3.75534 12.3235 3.61221 12.1196C3.75534 11.9158 3.8338 11.6716 3.8338 11.416C3.8338 11.1604 3.75529 10.9162 3.61221 10.7124C3.75534 10.5085 3.8338 10.2643 3.8338 10.0087C3.8338 9.33189 3.28315 8.78125 2.60635 8.78125ZM2.97249 10.9629C3.11025 11.0744 3.18927 11.2395 3.18927 11.416C3.18927 11.5925 3.11025 11.7577 2.97249 11.8692C2.89691 11.9303 2.85299 12.0224 2.85299 12.1196C2.85299 12.2169 2.89691 12.3089 2.97249 12.3701C3.11029 12.4817 3.18931 12.6468 3.18931 12.8233C3.18931 13.1447 2.9278 13.4062 2.60639 13.4062C2.28499 13.4062 2.02348 13.1447 2.02348 12.8233C2.02348 12.6468 2.1025 12.4817 2.2403 12.3701C2.31588 12.3089 2.3598 12.2169 2.3598 12.1196C2.3598 12.0224 2.31588 11.9303 2.2403 11.8692C2.1025 11.7577 2.02348 11.5925 2.02348 11.416C2.02348 11.2396 2.1025 11.0744 2.2403 10.9629C2.31588 10.9017 2.3598 10.8096 2.3598 10.7124C2.3598 10.6151 2.31588 10.5231 2.2403 10.4619C2.1025 10.3503 2.02348 10.1852 2.02348 10.0087C2.02348 9.68729 2.28495 9.42578 2.60639 9.42578C2.9278 9.42578 3.18931 9.68729 3.18931 10.0087C3.18931 10.1852 3.11029 10.3503 2.97249 10.4619C2.89691 10.5231 2.85299 10.6151 2.85299 10.7124C2.85295 10.8096 2.89686 10.9017 2.97249 10.9629Z" fill="#23B16C"/>
<path d="M19.1122 5.31589L21.2737 3.1543C21.6392 2.78885 21.6392 2.19421 21.2737 1.82876C20.9083 1.46335 20.3136 1.46331 19.9482 1.82876L17.5911 4.18585C15.6781 3.00915 13.4011 2.38727 11 2.38727C8.07387 2.38727 5.32013 3.31866 3.24603 5.00986C1.15281 6.71667 0 8.99182 0 11.4161C0 13.8404 1.15281 16.1156 3.24603 17.8224C5.32013 19.5136 8.07387 20.445 11 20.445C13.9261 20.445 16.6799 19.5136 18.754 17.8224C20.8472 16.1156 22 13.8404 22 11.4161C22 9.14187 20.9765 6.98441 19.1122 5.31589ZM20.4039 2.28448C20.5181 2.17032 20.7038 2.17036 20.818 2.28448C20.9321 2.39865 20.9321 2.58436 20.818 2.69853L17.7409 5.77565L17.3268 5.36161L20.4039 2.28448ZM17.1301 11.4161C17.1301 14.4515 14.9123 16.9782 12.0123 17.4622V8.85286C12.0123 8.67488 11.868 8.53059 11.69 8.53059C11.512 8.53059 11.3677 8.67488 11.3677 8.85286V17.5348C11.246 17.5421 11.1235 17.5462 11 17.5462C10.8765 17.5462 10.754 17.542 10.6322 17.5348V12.3235C10.6322 11.9908 10.3616 11.7201 10.0289 11.7201H8.59977C8.42179 11.7201 8.2775 11.8644 8.2775 12.0424C8.2775 12.2204 8.42179 12.3647 8.59977 12.3647H9.9877V17.4621C7.39578 17.0296 5.34909 14.9654 4.94338 12.3647H7.31075C7.48872 12.3647 7.63301 12.2204 7.63301 12.0424C7.63301 11.8644 7.48872 11.7201 7.31075 11.7201H4.87751C4.87257 11.6194 4.86995 11.518 4.86995 11.4161C4.86995 11.2986 4.8736 11.182 4.88018 11.0661H10.0289C10.3616 11.0661 10.6323 10.7955 10.6323 10.4628V5.29741C10.754 5.29015 10.8765 5.28607 11 5.28607C11.1231 5.28607 11.2457 5.29071 11.3678 5.29793V7.5638C11.3678 7.74177 11.5121 7.88606 11.69 7.88606C11.868 7.88606 12.0123 7.74177 12.0123 7.5638V5.37029C12.7348 5.4903 13.4285 5.73818 14.0648 6.10643C13.8796 6.21509 13.7056 6.3483 13.5493 6.50466C12.6281 7.42578 12.5616 8.85806 13.4009 9.69741C13.795 10.0915 14.3198 10.2859 14.861 10.2859C15.4725 10.2859 16.105 10.0377 16.5936 9.54908C16.6574 9.48527 16.7172 9.41841 16.7732 9.34923C17.0102 10.0097 17.1301 10.7028 17.1301 11.4161ZM4.95103 10.4216C5.37363 7.84258 7.41112 5.8001 9.98774 5.37011V10.4216H4.95103ZM16.9044 6.60981C16.6757 6.83857 16.5812 7.16629 16.6519 7.4865C16.7736 8.03886 16.5767 8.6546 16.1379 9.09336C15.4681 9.76315 14.4448 9.82971 13.8567 9.24168C13.5766 8.96153 13.435 8.57356 13.4579 8.1492C13.4817 7.7117 13.6759 7.28953 14.005 6.96043C14.4438 6.52168 15.0596 6.32484 15.6119 6.44652C15.9322 6.51708 16.2598 6.42268 16.4886 6.19395L16.8681 5.81441L17.284 6.23026L16.9044 6.60981ZM11 19.8005C5.28997 19.8005 0.644531 16.0393 0.644531 11.4161C0.644531 6.79298 5.28997 3.0318 11 3.0318C13.2267 3.0318 15.3379 3.59245 17.122 4.65498L16.0328 5.73818C15.9604 5.81059 15.8549 5.84006 15.7505 5.81707C15.4431 5.74931 15.1231 5.75146 14.8117 5.81656C14.8041 5.81033 14.7962 5.80431 14.788 5.79873C13.6674 5.0417 12.3575 4.64154 11 4.64154C7.26447 4.64154 4.22537 7.68063 4.22537 11.4161C4.22537 15.1516 7.26447 18.1907 11 18.1907C14.7355 18.1907 17.7746 15.1516 17.7746 11.4161C17.7746 10.4481 17.5746 9.51329 17.1802 8.63746C17.3351 8.22088 17.3748 7.77228 17.2813 7.34775C17.2583 7.24342 17.2877 7.13793 17.3601 7.06553L18.6554 5.7726C20.3981 7.32068 21.3555 9.31774 21.3555 11.4161C21.3555 16.0393 16.71 19.8005 11 19.8005Z" fill="#23B16C"/>
<path d="M20.4052 10.7124C20.5483 10.5085 20.6268 10.2643 20.6268 10.0087C20.6268 9.33189 20.0762 8.78125 19.3993 8.78125C18.7225 8.78125 18.1719 9.33189 18.1719 10.0087C18.1719 10.2643 18.2503 10.5085 18.3935 10.7124C18.2504 10.9162 18.1719 11.1604 18.1719 11.416C18.1719 11.6715 18.2504 11.9157 18.3935 12.1196C18.2503 12.3235 18.1719 12.5677 18.1719 12.8233C18.1719 13.5001 18.7225 14.0507 19.3993 14.0507C20.0761 14.0507 20.6268 13.5001 20.6268 12.8233C20.6268 12.5677 20.5483 12.3235 20.4052 12.1196C20.5483 11.9158 20.6268 11.6716 20.6268 11.416C20.6268 11.1604 20.5483 10.9162 20.4052 10.7124ZM19.7655 10.9628C19.9033 11.0743 19.9822 11.2395 19.9822 11.416C19.9822 11.5924 19.9032 11.7576 19.7655 11.8691C19.6899 11.9303 19.646 12.0223 19.646 12.1196C19.646 12.2169 19.6899 12.3089 19.7655 12.3701C19.9033 12.4816 19.9823 12.6468 19.9823 12.8233C19.9823 13.1447 19.7208 13.4062 19.3994 13.4062C19.0779 13.4062 18.8164 13.1447 18.8164 12.8233C18.8164 12.6468 18.8955 12.4816 19.0333 12.3701C19.1089 12.3089 19.1528 12.2169 19.1528 12.1196C19.1528 12.0223 19.1089 11.9303 19.0333 11.8691C18.8955 11.7576 18.8165 11.5924 18.8165 11.416C18.8165 11.2395 18.8955 11.0743 19.0333 10.9628C19.1089 10.9016 19.1528 10.8096 19.1528 10.7123C19.1528 10.6151 19.1089 10.523 19.0333 10.4618C18.8955 10.3503 18.8164 10.1851 18.8164 10.0087C18.8164 9.68725 19.078 9.42574 19.3994 9.42574C19.7208 9.42574 19.9823 9.68725 19.9823 10.0087C19.9823 10.1851 19.9033 10.3503 19.7655 10.4618C19.6899 10.523 19.646 10.6151 19.646 10.7123C19.6459 10.8096 19.6898 10.9016 19.7655 10.9628Z" fill="#23B16C"/>
</svg>
