<svg width="22" height="22" viewBox="0 0 22 22" fill="none" xmlns="http://www.w3.org/2000/svg">
<path d="M2.12695 6.65113V8.41869C2.12695 8.85937 2.48548 9.21825 2.92652 9.21825H3.5707L4.08839 20.2719C4.11348 20.8552 4.5937 21.3124 5.18117 21.3124H18.7352C19.1178 21.3124 19.4726 21.1216 19.6833 20.8023C19.8947 20.4816 19.9311 20.0794 19.7799 19.7263L19.4616 18.9845C19.9707 16.9341 19.5609 15.3714 19.2852 14.644C19.3784 14.5825 19.4434 14.4821 19.4434 14.3621V13.3584C19.4434 13.1683 19.2894 13.0146 19.0996 13.0146H19.0721V12.6331C19.0721 12.125 18.6603 11.7118 18.1543 11.7118H18.0134V11.0343C18.0134 10.6723 17.7995 10.3561 17.4895 10.2069L17.5366 9.21825H18.178C18.6166 9.21825 18.9738 8.85937 18.9738 8.41869V6.65113C18.9738 6.21044 18.6166 5.85156 18.178 5.85156H2.92652C2.48583 5.85156 2.12695 6.21044 2.12695 6.65113ZM5.18083 20.6249C4.96255 20.6249 4.78414 20.4568 4.77486 20.2409L4.25889 9.21962H16.8484L16.8034 10.1594C16.7889 10.1642 16.7759 10.1715 16.7618 10.177C16.7439 10.1838 16.7264 10.1911 16.7092 10.199C16.6738 10.2151 16.6404 10.2337 16.6078 10.2543C16.594 10.2629 16.5799 10.2705 16.5665 10.2797C16.5218 10.311 16.4795 10.3447 16.4414 10.3832C16.4407 10.3839 16.4404 10.3846 16.4397 10.3853C16.4022 10.4227 16.3692 10.4643 16.3386 10.5077C16.329 10.5214 16.3211 10.5358 16.3121 10.5503C16.2919 10.5826 16.2736 10.6159 16.2575 10.6507C16.2496 10.6678 16.2424 10.685 16.2351 10.7029C16.221 10.7387 16.21 10.7758 16.2008 10.8136C16.1966 10.8304 16.1915 10.8469 16.1884 10.8641C16.1781 10.9195 16.1712 10.9758 16.1712 11.0343V11.7118H16.0337C15.5256 11.7118 15.1125 12.125 15.1125 12.6331V13.0146H15.0815C14.8918 13.0146 14.7378 13.1683 14.7378 13.3584V14.3621C14.7378 14.4047 14.7477 14.4443 14.7618 14.4818C14.7649 14.4903 14.768 14.4986 14.7721 14.5068C14.7886 14.5422 14.8096 14.5749 14.8368 14.6024C14.8399 14.6058 14.844 14.6079 14.8474 14.611C14.8636 14.6261 14.8797 14.6409 14.8983 14.6526C14.8866 14.6839 14.8742 14.7186 14.8622 14.753C14.8584 14.7636 14.855 14.7729 14.8512 14.7836C14.8289 14.8478 14.8062 14.9173 14.7835 14.9912C14.7787 15.0067 14.7742 15.0232 14.7694 15.039C14.7512 15.0998 14.7333 15.1637 14.7154 15.2308C14.7096 15.2531 14.7037 15.2751 14.6975 15.2985C14.6759 15.3838 14.6546 15.4721 14.635 15.5663C14.635 15.567 14.635 15.5673 14.6346 15.568C14.615 15.6618 14.5968 15.7612 14.58 15.8633C14.5755 15.8908 14.5714 15.9186 14.5669 15.9468C14.5542 16.029 14.5429 16.1135 14.5329 16.2008C14.5298 16.2287 14.526 16.2555 14.5233 16.284C14.5112 16.3968 14.5016 16.513 14.4947 16.6336C14.4937 16.6525 14.4934 16.6721 14.4923 16.691C14.4872 16.7942 14.4844 16.9 14.4837 17.0083V17.119C14.4844 17.2273 14.4879 17.3376 14.4934 17.4507C14.4947 17.4755 14.4951 17.4992 14.4965 17.5239C14.5047 17.6597 14.5171 17.7993 14.5332 17.9419C14.5374 17.9773 14.5425 18.0134 14.547 18.0492C14.5614 18.1619 14.5786 18.2768 14.5985 18.3933C14.6058 18.4359 14.613 18.4782 14.6209 18.5212C14.6494 18.6731 14.681 18.8271 14.7199 18.9852L14.405 19.7253C14.3696 19.8068 14.3469 19.891 14.3315 19.9759C14.3266 20.0027 14.3263 20.0292 14.3232 20.0563C14.317 20.1155 14.3136 20.1739 14.3167 20.233C14.3184 20.264 14.3222 20.2942 14.3263 20.3252C14.3339 20.3808 14.3455 20.4355 14.3614 20.4898C14.37 20.5194 14.3779 20.5486 14.3892 20.5775C14.395 20.5929 14.3975 20.6098 14.4043 20.6249H5.18117H5.18083ZM18.7555 13.7018V14.018H15.4246V13.7018H18.7555ZM19.1089 20.4235C19.0243 20.5513 18.8879 20.6249 18.7349 20.6249H15.4486C15.294 20.6249 15.1568 20.5507 15.0719 20.4214C14.9877 20.2928 14.9743 20.1388 15.0361 19.9965L15.3971 19.1471C15.4266 19.077 15.4325 18.9993 15.4132 18.9257C15.3744 18.7762 15.3421 18.6301 15.3135 18.4864C15.3043 18.4393 15.297 18.3936 15.2885 18.3472C15.2713 18.2506 15.2551 18.1551 15.242 18.0612C15.2348 18.01 15.2286 17.9595 15.2228 17.9089C15.2125 17.8206 15.2039 17.7336 15.197 17.6477C15.1932 17.6003 15.1891 17.5528 15.186 17.5064C15.1802 17.4119 15.1771 17.3194 15.175 17.2283C15.1743 17.1957 15.1723 17.1616 15.1723 17.1293C15.1712 17.0087 15.1736 16.8911 15.1785 16.7773C15.1798 16.7453 15.1826 16.7154 15.1843 16.6842C15.1891 16.602 15.1946 16.5212 15.2018 16.4428C15.2056 16.4016 15.2104 16.3617 15.2149 16.3218C15.2221 16.2558 15.23 16.1912 15.239 16.1283C15.2445 16.0891 15.2503 16.0503 15.2561 16.0125C15.2661 15.9503 15.2768 15.8901 15.2881 15.8313C15.2943 15.799 15.3001 15.7657 15.3067 15.734C15.3221 15.6591 15.3383 15.5876 15.3548 15.5192C15.3582 15.5047 15.3617 15.4893 15.3651 15.4752C15.3837 15.4006 15.4033 15.3301 15.4225 15.2634C15.4301 15.2373 15.4376 15.2136 15.4452 15.1885C15.4583 15.1455 15.4713 15.1036 15.4844 15.0644C15.4923 15.04 15.5005 15.017 15.5085 14.9939C15.5208 14.9582 15.5329 14.9245 15.5449 14.8925C15.5521 14.8736 15.559 14.854 15.5659 14.8365C15.5786 14.8032 15.591 14.7732 15.6023 14.7451C15.6068 14.7341 15.6119 14.7213 15.616 14.711C15.6171 14.7086 15.6178 14.7076 15.6185 14.7052H18.5675C18.7861 15.2187 19.3244 16.8031 18.7662 18.9244C18.7466 18.9986 18.7524 19.077 18.7827 19.1475L19.147 19.9965C19.2079 20.1382 19.1938 20.2935 19.1085 20.4228L19.1089 20.4235ZM18.154 12.399C18.2811 12.399 18.3843 12.5038 18.3843 12.6327V13.0143H15.7993V12.6327C15.7993 12.5038 15.9041 12.399 16.033 12.399H16.5143C16.704 12.399 16.858 12.2453 16.858 12.0552V11.0339C16.858 10.9085 16.9577 10.8057 17.0866 10.8005C17.0938 10.8016 17.1014 10.8022 17.109 10.8029C17.2303 10.8112 17.3252 10.9126 17.3252 11.0339V12.0552C17.3252 12.2453 17.4792 12.399 17.6689 12.399H18.154ZM18.286 6.65078V8.41834C18.286 8.48022 18.2375 8.53041 18.1777 8.53041H2.92652C2.86464 8.53041 2.81445 8.48022 2.81445 8.41834V6.65078C2.81445 6.58891 2.86464 6.53872 2.92652 6.53872H18.178C18.2378 6.53872 18.286 6.58891 18.286 6.65078Z" fill="#23B16C"/>
<path d="M9.46033 3.20066V2.73728H15.1408C15.7059 2.73728 16.1659 2.27734 16.1659 1.71256C16.1659 1.14778 15.7059 0.6875 15.1408 0.6875H5.2793C5.08955 0.6875 4.93555 0.841156 4.93555 1.03125V3.201C4.93555 4.44812 5.9503 5.46288 7.19777 5.46288C8.44523 5.46288 9.45998 4.44812 9.45998 3.201L9.46033 3.20066ZM15.4784 1.71256C15.4784 1.89853 15.3271 2.04978 15.1408 2.04978H9.46033V1.37466H15.1408C15.3271 1.37466 15.4784 1.52625 15.4784 1.71256ZM5.62339 3.20066V1.37466H8.77283V3.20066C8.77283 4.06863 8.06642 4.77503 7.19811 4.77503C6.3298 4.77503 5.62339 4.06863 5.62339 3.20066Z" fill="#23B16C"/>
</svg>
