<svg width="22" height="22" viewBox="0 0 22 22" fill="none" xmlns="http://www.w3.org/2000/svg">
<path d="M20.1052 11.6119C19.923 11.1719 19.8955 10.67 20.0262 10.2025C20.4696 8.61781 20.3183 6.35937 19.1668 5.10468C18.7302 4.62686 18.493 4.18687 18.4415 3.75718C18.2627 2.16218 17.1662 0.948753 15.6158 0.659993C15.4234 0.622188 15.2309 0.605003 15.0384 0.598122C14.808 0.598122 14.6121 0.780299 14.6052 1.01407C14.6018 1.24781 14.7874 1.44031 15.0212 1.44717C15.1655 1.45061 15.3133 1.46438 15.4955 1.49874C16.654 1.71531 17.4618 2.61593 17.6027 3.85342C17.6715 4.46875 17.9808 5.06343 18.5446 5.67874C19.3627 6.56906 19.648 8.41499 19.2115 9.97219C19.0293 10.6253 19.0705 11.3231 19.3249 11.9384C20.0674 13.7088 19.1427 16.3728 17.0287 18.5694C16.7451 18.8635 16.3726 19.2131 15.9316 19.5523C16.2001 19.2207 16.4278 18.9017 16.6098 18.6244C18.5517 15.6719 18.9897 12.3674 17.6989 10.4011C17.4221 9.98092 17.2949 9.46693 17.3411 8.95255C17.4924 7.24244 16.9032 4.95431 15.4835 3.88997C14.9356 3.4797 14.6035 3.0682 14.4696 2.63146C13.9788 1.03291 12.6236 0 10.9812 0C10.0405 0 9.18749 0.356108 8.54218 0.970554C7.88666 0.638529 7.12904 0.520493 6.34834 0.666875C4.83241 0.948753 3.73585 2.16218 3.55709 3.75718C3.50554 4.18687 3.26835 4.62686 2.83178 5.10468C1.68023 6.35937 1.52898 8.61781 1.97241 10.1991C2.10303 10.67 2.07553 11.1719 1.89335 11.6119C1.02366 13.6881 2.0171 16.72 4.36148 19.1572L4.58492 19.3806C4.74992 19.5456 5.01803 19.5387 5.18305 19.3737C5.3446 19.2053 5.34116 18.9406 5.17616 18.7756L4.96992 18.5694C2.85585 16.3728 1.93116 13.7088 2.67367 11.9384C2.92805 11.3231 2.9693 10.6253 2.7871 9.97219C2.35055 8.41499 2.63585 6.56906 3.45397 5.67874C4.01773 5.06343 4.32711 4.46875 4.39585 3.85342C4.53679 2.61593 5.3446 1.71531 6.53742 1.49186C7.04858 1.39602 7.54666 1.45227 7.99156 1.63671C7.79795 1.93615 7.63982 2.26849 7.52837 2.63188C7.39451 3.06778 7.06314 3.47969 6.51529 3.88997C5.09522 4.95389 4.50562 7.24201 4.65727 8.95294C4.70271 9.46651 4.57586 9.98132 4.29988 10.4015C3.00914 12.3674 3.44667 15.6719 5.38816 18.6244C5.89717 19.3995 6.74872 20.4936 7.91261 21.3051C8.83233 21.9479 9.84666 22 11.0172 22C12.0196 22 12.9275 21.9577 13.7598 21.5049C14.105 21.4686 14.4471 21.386 14.7909 21.23C16.0284 20.6731 17.0218 19.7931 17.6371 19.1572C19.9815 16.72 20.9749 13.6881 20.1052 11.6119ZM10.9812 21.1538C10.3038 21.1538 9.70817 21.1333 9.17333 20.976C9.17316 20.9757 9.17295 20.9756 9.17278 20.9753C9.90161 18.3294 10.1065 16.1462 10.3053 14.0324L10.3276 13.7936C10.4445 12.5632 10.5209 11.3898 10.5891 10.3433C10.6871 8.83809 10.7965 7.16063 11.001 6.54004C11.2052 7.16021 11.3146 8.83685 11.4126 10.3408C11.4807 11.3882 11.5576 12.5624 11.6741 13.7936L11.7038 14.1126C11.8989 16.2032 12.1005 18.3624 12.8202 20.9753C12.8175 20.977 12.8141 20.978 12.8113 20.9797C12.2768 21.1338 11.6769 21.1538 10.9812 21.1538ZM6.0955 18.16C4.33622 15.4852 3.8991 12.5533 5.00721 10.8659C5.38734 10.2871 5.56251 9.58096 5.50013 8.87817C5.35014 7.18293 6.00459 5.32986 7.02265 4.56717C7.71925 4.04533 8.14936 3.49333 8.33735 2.87979C8.72243 1.6254 9.73511 0.846154 11.0172 0.846154C12.2625 0.846154 13.2755 1.6254 13.6614 2.87979C13.849 3.49375 14.2795 4.04573 14.9761 4.56717C15.9942 5.33028 16.6487 7.18335 16.4983 8.87775C16.4355 9.58096 16.6107 10.2875 16.9916 10.8659C18.0997 12.5541 17.6626 15.4852 15.9025 18.16C15.2426 19.1659 14.4259 20.0364 13.6026 20.6099C13.2243 19.2064 12.994 17.9278 12.8348 16.7197L14.9799 14.7091C15.1484 14.5475 15.1587 14.2794 14.9971 14.1109C14.839 13.9391 14.5674 13.9322 14.399 14.0903L12.7088 15.6795C12.6483 15.1221 12.5973 14.5757 12.5467 14.0341L12.517 13.7143C12.4985 13.5201 12.4825 13.3301 12.4659 13.139L14.0655 11.6359C14.2374 11.4778 14.2477 11.2097 14.0862 11.0378C13.928 10.8659 13.6565 10.859 13.488 11.0206L12.3787 12.0616C12.3325 11.441 12.2931 10.8442 12.2567 10.2858C12.2347 9.94859 12.214 9.63488 12.1935 9.33508L13.1443 8.4425C13.3162 8.28437 13.323 8.01625 13.1649 7.84438C13.0034 7.6725 12.7352 7.66562 12.5668 7.82375L12.1111 8.25174C11.9491 6.38858 11.7213 5.51704 11.0011 5.51704C10.28 5.51704 10.0524 6.38948 9.89024 8.25447L9.43179 7.82375C9.25991 7.66562 8.99178 7.6725 8.83367 7.84438C8.6721 8.01625 8.68242 8.28437 8.85429 8.4425L9.80768 9.3401C9.78717 9.63919 9.76654 9.95201 9.74462 10.2883C9.7084 10.8468 9.66904 11.4439 9.62299 12.0647L8.51054 11.0206C8.33867 10.8591 8.07053 10.8694 7.91242 11.0378C7.75085 11.2097 7.76117 11.4778 7.92961 11.6359L9.53594 13.1429C9.51953 13.3328 9.50382 13.5214 9.48554 13.7143L9.46282 13.9531C9.40953 14.5212 9.35506 15.0949 9.29053 15.6803L7.5996 14.0903C7.42772 13.9322 7.15961 13.9391 7.00147 14.1109C6.83992 14.2794 6.85022 14.5475 7.01866 14.7091L9.16296 16.719C9.00154 17.9264 8.76911 19.2041 8.39095 20.6065C7.34004 19.8723 6.56272 18.8718 6.0955 18.16Z" fill="#23B16C"/>
</svg>
