<svg width="22" height="22" viewBox="0 0 22 22" fill="none" xmlns="http://www.w3.org/2000/svg">
<path d="M13.4462 12.1291C13.7507 11.3511 13.7584 10.4884 13.468 9.70506C13.4384 9.63085 13.3839 9.56927 13.3138 9.53087C13.2437 9.49246 13.1625 9.47963 13.084 9.49458C12.2692 9.67034 11.5471 10.1389 11.0546 10.8114C10.721 10.48 10.3282 10.2141 9.89658 10.0276C9.81863 9.99652 9.732 9.99499 9.653 10.0233C9.57401 10.0517 9.50812 10.108 9.46775 10.1815C9.1883 10.7261 9.01732 11.3197 8.96429 11.9295C8.91238 11.9056 8.87856 11.8917 8.87474 11.8902C8.80759 11.8634 8.7337 11.8585 8.6636 11.8762C8.59349 11.8938 8.53075 11.9332 8.48431 11.9886C8.43801 12.0436 7.35791 13.3585 8.06002 14.9131C8.31323 15.4691 8.71071 15.947 9.21114 16.2974L8.54997 17.5031C8.52768 17.5427 8.51346 17.5863 8.50816 17.6315C8.50286 17.6767 8.50656 17.7224 8.51906 17.7661C8.53157 17.8098 8.55262 17.8506 8.581 17.8862C8.60938 17.9217 8.64452 17.9512 8.6844 17.9731C8.72427 17.9949 8.76809 18.0086 8.8133 18.0134C8.85851 18.0182 8.90423 18.014 8.9478 18.001C8.99137 17.988 9.03193 17.9665 9.06713 17.9377C9.10233 17.909 9.13148 17.8735 9.15287 17.8334L9.81407 16.6272C10.2292 16.7987 10.6738 16.8875 11.1229 16.8886C11.2823 16.8886 11.4415 16.8771 11.5993 16.8542C13.2881 16.6105 13.816 14.9925 13.8377 14.924C13.8594 14.855 13.8589 14.7809 13.836 14.7122C13.8132 14.6436 13.7693 14.5839 13.7105 14.5417C13.707 14.5392 13.6773 14.5182 13.6295 14.4875C14.1152 14.1151 14.5238 13.6518 14.8326 13.1233C14.873 13.0497 14.885 12.9639 14.8664 12.882C14.8478 12.8001 14.7999 12.7279 14.7317 12.6789C14.3402 12.4191 13.9046 12.2328 13.4462 12.1291ZM12.9161 10.2561C13.0711 10.8278 13.0157 11.4361 12.76 11.9705C12.7377 12.0071 12.7133 12.0425 12.687 12.0763C12.5534 12.0871 12.4211 12.1108 12.2921 12.1471C12.1168 12.1972 11.945 12.2589 11.7779 12.3318C11.7495 12.1517 11.7092 11.9737 11.6573 11.799C11.6183 11.6702 11.5668 11.5456 11.5035 11.427C11.5207 11.3879 11.5334 11.3479 11.5541 11.3101C11.8671 10.8069 12.3505 10.4329 12.9161 10.2561ZM9.93318 10.8144C10.2944 11.0119 10.6034 11.2925 10.8345 11.6331C10.906 11.7441 10.9608 11.8648 10.9973 11.9916C11.0988 12.2551 11.1402 12.538 11.1183 12.8195L10.6425 13.6871C10.6401 13.6786 10.6386 13.6713 10.6361 13.6627C10.46 13.1263 10.1136 12.662 9.64952 12.3404C9.63403 11.8173 9.73075 11.2969 9.93318 10.8144ZM8.68675 14.6305C8.55146 14.3109 8.49661 13.963 8.52702 13.6173C8.55742 13.2716 8.67214 12.9387 8.86113 12.6476C8.93885 12.6909 9.02998 12.7453 9.12668 12.8117C9.52027 13.0522 9.81984 13.42 9.97574 13.8541C10.0179 13.9981 10.0457 14.1276 10.0669 14.2287C10.1063 14.3836 10.1127 14.5449 10.0857 14.7024C9.92181 15.0403 9.7411 15.3699 9.5442 15.6897C9.17397 15.4142 8.87908 15.05 8.68675 14.6305ZM11.5014 16.1737L11.5005 16.1741C11.0436 16.2367 10.5783 16.1839 10.1471 16.0204L10.499 15.3787C10.499 15.3787 10.6304 15.1128 10.6884 15.0332C10.8036 14.9274 10.94 14.8473 11.0885 14.798C11.1947 14.7577 11.3186 14.7118 11.4645 14.6695C11.9151 14.568 12.3868 14.6235 12.8016 14.8266C12.9082 14.8716 13.002 14.9185 13.0796 14.9609C12.9358 15.2767 12.7167 15.5524 12.4416 15.7639C12.1664 15.9753 11.8436 16.1161 11.5014 16.1737ZM12.9145 14.131C12.3944 13.9131 11.8175 13.8705 11.2711 14.0095C11.2619 14.0121 11.2543 14.0151 11.2452 14.0178L11.7095 13.1711C11.9342 12.988 12.2003 12.863 12.4846 12.807C12.6126 12.7696 12.7452 12.7504 12.8785 12.75C13.2879 12.7684 13.688 12.8781 14.0496 13.0709C13.7513 13.5013 13.3642 13.8628 12.9145 14.131ZM8.83679 2.85072C8.86873 2.88262 8.89406 2.92051 8.91134 2.96221C8.92863 3.00391 8.93752 3.04861 8.93752 3.09375C8.93752 3.13889 8.92863 3.18359 8.91134 3.22529C8.89406 3.26699 8.86873 3.30488 8.83679 3.33678L8.49304 3.68053C8.42821 3.74315 8.34138 3.7778 8.25125 3.77701C8.16112 3.77623 8.0749 3.74008 8.01117 3.67634C7.94743 3.61261 7.91128 3.52639 7.9105 3.43626C7.90972 3.34613 7.94436 3.2593 8.00698 3.19447L8.35073 2.85072C8.38264 2.81879 8.42052 2.79345 8.46222 2.77617C8.50392 2.75888 8.54862 2.74999 8.59376 2.74999C8.6389 2.74999 8.6836 2.75888 8.7253 2.77617C8.767 2.79345 8.80489 2.81879 8.83679 2.85072ZM10.5555 2.16322C10.5875 2.19512 10.6128 2.23301 10.6301 2.27471C10.6474 2.31641 10.6563 2.36111 10.6563 2.40625C10.6563 2.45139 10.6474 2.49609 10.6301 2.53779C10.6128 2.57949 10.5875 2.61738 10.5555 2.64928L10.2118 2.99303C10.147 3.05565 10.0601 3.0903 9.97 3.08951C9.87987 3.08873 9.79365 3.05258 9.72992 2.98884C9.66618 2.92511 9.63003 2.83889 9.62925 2.74876C9.62847 2.65863 9.66311 2.5718 9.72573 2.50697L10.0695 2.16322C10.1014 2.13129 10.1393 2.10595 10.181 2.08867C10.2227 2.07138 10.2674 2.06249 10.3125 2.06249C10.3577 2.06249 10.4024 2.07138 10.4441 2.08867C10.4858 2.10595 10.5236 2.13129 10.5555 2.16322ZM11.9305 2.85072C11.9625 2.88262 11.9878 2.92051 12.0051 2.96221C12.0224 3.00391 12.0313 3.04861 12.0313 3.09375C12.0313 3.13889 12.0224 3.18359 12.0051 3.22529C11.9878 3.26699 11.9625 3.30488 11.9305 3.33678L11.5868 3.68053C11.522 3.74315 11.4351 3.7778 11.345 3.77701C11.2549 3.77623 11.1687 3.74008 11.1049 3.67634C11.0412 3.61261 11.005 3.52639 11.0042 3.43626C11.0035 3.34613 11.0381 3.2593 11.1007 3.19447L11.4445 2.85072C11.4764 2.81879 11.5143 2.79345 11.556 2.77617C11.5977 2.75888 11.6424 2.74999 11.6875 2.74999C11.7327 2.74999 11.7774 2.75888 11.8191 2.77617C11.8608 2.79345 11.8986 2.81879 11.9305 2.85072ZM13.6493 3.33678L13.3055 3.68053C13.2407 3.74315 13.1539 3.7778 13.0637 3.77701C12.9736 3.77623 12.8874 3.74008 12.8237 3.67634C12.7599 3.61261 12.7238 3.52639 12.723 3.43626C12.7222 3.34613 12.7569 3.2593 12.8195 3.19447L13.1632 2.85072C13.2281 2.7881 13.3149 2.75345 13.405 2.75424C13.4952 2.75502 13.5814 2.79117 13.6451 2.85491C13.7088 2.91864 13.745 3.00486 13.7458 3.09499C13.7466 3.18512 13.7119 3.27195 13.6493 3.33678ZM19.8284 18.6756C19.66 18.5214 19.4637 18.4009 19.25 18.3205V6.3998C19.425 6.20205 19.539 5.95789 19.5784 5.69677C19.6177 5.43564 19.5806 5.16873 19.4715 4.92822C19.3625 4.68772 19.1862 4.48391 18.9639 4.34138C18.7416 4.19885 18.4828 4.1237 18.2188 4.125H17.6621C17.0305 3.56885 13.6309 0.6875 11 0.6875C8.36837 0.6875 4.96947 3.56885 4.3379 4.125H3.78126C3.47897 4.12402 3.18483 4.22302 2.94464 4.40657C2.70445 4.59013 2.53169 4.84795 2.45325 5.13989C2.37481 5.43183 2.39509 5.74152 2.51093 6.02074C2.62678 6.29995 2.83169 6.53304 3.09376 6.6837V18.3201C2.88171 18.3997 2.68677 18.519 2.51939 18.6716C2.37398 18.8142 2.25862 18.9844 2.18015 19.1723C2.10168 19.3603 2.06168 19.562 2.06251 19.7656C2.06251 20.7485 2.68893 21.3125 3.78126 21.3125H18.5625C19.6548 21.3125 20.2813 20.7485 20.2813 19.7656C20.2823 19.5629 20.2427 19.3621 20.165 19.1749C20.0872 18.9877 19.9728 18.8179 19.8284 18.6756ZM11 1.375C12.8981 1.375 15.3852 3.16219 16.5875 4.125H5.41222C6.61459 3.16219 9.10141 1.375 11 1.375ZM3.78126 4.8125H18.2188C18.4011 4.8125 18.576 4.88493 18.7049 5.01386C18.8338 5.1428 18.9063 5.31766 18.9063 5.5C18.9063 5.68234 18.8338 5.8572 18.7049 5.98614C18.576 6.11507 18.4011 6.1875 18.2188 6.1875H3.78126C3.59893 6.1875 3.42406 6.11507 3.29513 5.98614C3.1662 5.8572 3.09376 5.68234 3.09376 5.5C3.09376 5.31766 3.1662 5.1428 3.29513 5.01386C3.42406 4.88493 3.59893 4.8125 3.78126 4.8125ZM18.5625 20.625H3.78126C2.86716 20.625 2.75001 20.1658 2.75001 19.7656C2.74959 19.6523 2.772 19.5401 2.81589 19.4357C2.85978 19.3312 2.92426 19.2367 3.00549 19.1577C3.16267 19.0356 3.34223 18.9455 3.53404 18.8925C3.60532 18.8715 3.6679 18.828 3.71246 18.7686C3.75701 18.7091 3.78115 18.6368 3.78126 18.5625V6.875H18.2188C18.335 6.87348 18.4505 6.85708 18.5625 6.82619V18.5625C18.5625 18.6369 18.5867 18.7093 18.6314 18.7688C18.676 18.8283 18.7388 18.8717 18.8103 18.8925C19.0033 18.9472 19.184 19.0386 19.3423 19.1617C19.4225 19.2405 19.4861 19.3345 19.5292 19.4382C19.5724 19.5419 19.5944 19.6533 19.5938 19.7656C19.5938 20.1658 19.4766 20.625 18.5625 20.625Z" fill="#23B16C"/>
</svg>
