<svg width="22" height="22" viewBox="0 0 22 22" fill="none" xmlns="http://www.w3.org/2000/svg">
<g clip-path="url(#clip0_206_7529)">
<path d="M14.7838 0.669922C13.0205 0.669922 11.2772 2.18992 9.95716 4.84992C9.13716 4.09659 8.21383 3.63659 7.22049 3.63659C3.42383 3.63659 0.673828 10.2933 0.673828 14.7833C0.673828 18.3933 3.61049 21.3299 7.22049 21.3299C9.63049 21.3299 11.7338 20.0166 12.8705 18.0733C13.4905 18.2633 14.1305 18.3633 14.7838 18.3633C18.3938 18.3633 21.3305 15.4266 21.3305 11.8166C21.3305 7.32659 18.5805 0.669922 14.7838 0.669922ZM7.21716 20.7033C3.95383 20.7033 1.29716 18.0466 1.29716 14.7833C1.29716 10.1899 4.16716 4.26325 7.21716 4.26325C10.2672 4.26325 13.1372 10.1899 13.1372 14.7833C13.1405 18.0466 10.4838 20.7033 7.21716 20.7033ZM14.7838 17.7366C14.2305 17.7366 13.6872 17.6566 13.1638 17.5066C13.5472 16.6766 13.7672 15.7533 13.7672 14.7799C13.7672 11.6966 12.4705 7.58659 10.4238 5.31992C11.6338 2.79659 13.2538 1.29659 14.7838 1.29659C17.8338 1.29659 20.7038 7.22326 20.7038 11.8166C20.7038 15.0799 18.0472 17.7366 14.7838 17.7366Z" fill="#23B16C"/>
<path d="M7.2181 11.0293C5.10477 11.0293 3.38477 12.7493 3.38477 14.866C3.38477 16.9826 5.10477 18.6993 7.2181 18.6993C9.33143 18.6993 11.0548 16.9793 11.0548 14.866C11.0548 12.7526 9.33477 11.0293 7.2181 11.0293ZM7.2181 18.0726C5.4481 18.0726 4.0081 16.6326 4.0081 14.8626C4.0081 13.0926 5.4481 11.6526 7.2181 11.6526C8.9881 11.6526 10.4281 13.0926 10.4281 14.8626C10.4281 16.6326 8.9881 18.0726 7.2181 18.0726Z" fill="#23B16C"/>
</g>
<defs>
<clipPath id="clip0_206_7529">
<rect width="22" height="22" fill="white"/>
</clipPath>
</defs>
</svg>
