<svg width="22" height="22" viewBox="0 0 22 22" fill="none" xmlns="http://www.w3.org/2000/svg">
<g clip-path="url(#clip0_206_7531)">
<path d="M1.83312 17.596C1.63066 17.596 1.4665 17.7601 1.4665 17.9626V18.6958H0.366625C0.164158 18.6958 0 18.86 0 19.0625C0.00161114 20.4792 1.14964 21.6272 2.56637 21.6288H10.6321C11.3027 21.629 11.9464 21.3657 12.4246 20.8956H16.4439C17.2007 20.8967 17.9197 20.5637 18.4084 19.9856C18.8973 19.4076 19.1062 18.6434 18.9794 17.8971L18.5512 15.3962H19.3171C20.1015 15.4009 20.8498 15.0668 21.3702 14.4796C21.8833 13.9045 22.1 13.1236 21.9568 12.3662L20.9753 7.23345C20.713 5.99072 19.606 5.10871 18.3361 5.13073H16.8592L16.89 3.70468L17.2509 1.9301C17.2727 1.82269 17.2453 1.71081 17.176 1.62559C17.1069 1.54038 17.0031 1.4908 16.8934 1.49026L10.9987 1.46448C10.403 1.43781 9.82367 1.2613 9.31402 0.951242C8.60708 0.468615 7.74208 0.275636 6.89694 0.411688L5.79456 0.631519C5.67355 0.655686 5.57294 0.738929 5.5264 0.853141C5.48003 0.967353 5.49418 1.09714 5.56381 1.19882L7.30761 3.73369L7.33249 5.46853L6.22707 11.8209L1.63728 14.7195C1.62421 14.7297 1.61204 14.7408 1.60076 14.7528C1.58769 14.7625 1.57552 14.7731 1.56406 14.7843C1.54276 14.8083 1.52468 14.835 1.51054 14.8636C1.50534 14.8738 1.498 14.8823 1.49371 14.8934C1.4767 14.9344 1.46739 14.9782 1.4665 15.0228V15.0296V16.4961C1.4665 16.6987 1.63066 16.8627 1.83312 16.8627C2.03559 16.8627 2.19975 17.0269 2.19975 17.2293C2.19975 17.432 2.03559 17.596 1.83312 17.596ZM10.6321 20.8956H2.56637C1.69564 20.8947 0.945204 20.2821 0.769947 19.4291H12.4285C12.2533 20.2821 11.5028 20.8947 10.6321 20.8956ZM18.3361 5.86397C19.2533 5.84339 20.0564 6.47585 20.2515 7.37236L21.2331 12.5051C21.3337 13.0402 21.1803 13.5916 20.8178 13.9976C20.4366 14.4251 19.8897 14.6676 19.3171 14.663H18.4257L18.3001 13.9297H19.3171C19.6491 13.9335 19.9662 13.7915 20.1849 13.5416C20.4057 13.2931 20.4986 12.9562 20.4361 12.6297L19.4545 7.49696C19.3454 6.96796 18.8761 6.5906 18.3361 6.59722H17.0452L16.9193 5.86397H18.3361ZM18.1748 13.1965L17.1705 7.33047H18.3361C18.5244 7.32385 18.6912 7.45113 18.7345 7.63444L19.7156 12.7672C19.7361 12.8716 19.7057 12.9793 19.6339 13.0575C19.5541 13.1487 19.4381 13.1997 19.3171 13.1965H18.1748ZM8.04515 4.03085H16.1494L16.1179 5.48965C16.1175 5.5131 16.1195 5.53638 16.1234 5.55947L16.6447 8.60059L15.5207 8.8308C14.4894 9.04097 13.4221 8.99317 12.4135 8.69189C11.0129 8.26923 9.51559 8.29215 8.12839 8.75705L7.46854 8.97706L8.06287 5.55983C8.06592 5.53745 8.06699 5.51489 8.06574 5.49234L8.04515 4.03085ZM6.48342 1.24465L7.03156 1.13455C7.69625 1.03108 8.37544 1.1888 8.92663 1.57457C9.55282 1.95588 10.2662 2.17034 10.9987 2.19773L16.4449 2.22172L16.2246 3.2976H7.89675L6.48342 1.24465ZM7.32336 9.7991L8.35933 9.4536C9.60331 9.03649 10.9461 9.01626 12.2021 9.39578C13.3265 9.73161 14.5166 9.78478 15.6666 9.55045L16.7664 9.32507L18.2578 18.0209C18.3489 18.5546 18.1995 19.1011 17.8497 19.5141C17.4997 19.9273 16.9852 20.1645 16.4439 20.1623H12.9473C13.1122 19.8192 13.1979 19.4434 13.1985 19.0625C13.1985 18.86 13.0343 18.6958 12.8319 18.6958H11.732V15.0296C11.7279 13.078 10.6787 11.278 8.9823 10.3127C8.86433 10.2445 8.71843 10.2474 8.60314 10.32L7.06343 11.2926L7.32336 9.7991ZM8.80454 11.0621C10.0582 11.8515 10.8661 13.1861 10.9841 14.663H3.10163L8.80454 11.0621ZM2.19975 18.2666C2.63959 18.1113 2.93353 17.6957 2.93353 17.2293C2.93353 16.763 2.63959 16.3475 2.19975 16.1923V15.3962H10.9987V18.6958H2.19975V18.2666Z" fill="#23B16C"/>
<path d="M8.06641 17.2285H8.79966V17.9618H8.06641V17.2285Z" fill="#23B16C"/>
<path d="M4.76562 16.1289H5.49887V16.8622H4.76562V16.1289Z" fill="#23B16C"/>
</g>
<defs>
<clipPath id="clip0_206_7531">
<rect width="22" height="22" fill="white"/>
</clipPath>
</defs>
</svg>
