<svg width="22" height="22" viewBox="0 0 22 22" fill="none" xmlns="http://www.w3.org/2000/svg">
<path d="M17.8743 5.49939H16.7835L15.9906 3.91814C15.9525 3.84255 15.8942 3.77899 15.8222 3.73449C15.7502 3.69 15.6673 3.66631 15.5827 3.66605H11.5402L11.8473 1.83272H14.666C14.7876 1.83272 14.9042 1.78443 14.9901 1.69848C15.0761 1.61252 15.1243 1.49594 15.1243 1.37439C15.1243 1.25283 15.0761 1.13625 14.9901 1.0503C14.9042 0.964342 14.7876 0.916054 14.666 0.916054H11.4577C11.3478 0.91464 11.2411 0.952735 11.157 1.0234C11.0729 1.09407 11.0169 1.1926 10.9993 1.30105L10.6098 3.66605H6.41602C6.33138 3.66631 6.24846 3.69 6.17646 3.73449C6.10446 3.77899 6.04619 3.84255 6.0081 3.91814L5.21518 5.49939H4.12435C4.00279 5.49939 3.88621 5.54768 3.80026 5.63363C3.7143 5.71958 3.66602 5.83616 3.66602 5.95772V7.79105C3.66602 7.91261 3.7143 8.02919 3.80026 8.11515C3.88621 8.2011 4.00279 8.24939 4.12435 8.24939H5.0731L5.8981 19.804C5.9225 20.1517 6.07807 20.4772 6.33333 20.7146C6.5886 20.952 6.92451 21.0836 7.2731 21.0827H14.7302C15.0788 21.0836 15.4147 20.952 15.6699 20.7146C15.9252 20.4772 16.0808 20.1517 16.1052 19.804L16.9256 8.24939H17.8743C17.9959 8.24939 18.1125 8.2011 18.1984 8.11515C18.2844 8.02919 18.3327 7.91261 18.3327 7.79105V5.95772C18.3327 5.83616 18.2844 5.71958 18.1984 5.63363C18.1125 5.54768 17.9959 5.49939 17.8743 5.49939ZM6.70018 4.58272H15.2985L15.7568 5.49939H6.24185L6.70018 4.58272ZM15.4635 15.8577C14.0362 16.2542 12.5175 16.1656 11.146 15.6056C9.6692 15.0054 8.03917 14.893 6.49393 15.2848L6.30143 12.6127C7.79664 12.1457 9.40798 12.2154 10.8573 12.8098C11.7453 13.1552 12.6868 13.3428 13.6393 13.3644C14.3218 13.3552 15.0005 13.2629 15.6606 13.0894L15.4635 15.8577ZM14.7302 20.1661H7.26852C7.15232 20.1663 7.04035 20.1225 6.95526 20.0433C6.87017 19.9642 6.81832 19.8557 6.81018 19.7398L6.56268 16.2198C7.98358 15.8317 9.49271 15.9219 10.8573 16.4765C11.7453 16.8218 12.6868 17.0095 13.6393 17.0311C14.2301 17.0246 14.8186 16.9555 15.3948 16.8248L15.1885 19.7398C15.1804 19.8557 15.1285 19.9642 15.0434 20.0433C14.9583 20.1225 14.8464 20.1663 14.7302 20.1661ZM15.7293 12.1269C14.2268 12.6034 12.6045 12.5369 11.146 11.939C9.58469 11.3061 7.85608 11.2157 6.23727 11.6823L5.98977 8.24939H16.0089L15.7293 12.1269ZM17.416 7.33272H4.58268V6.41605H17.416V7.33272Z" fill="#23B16C"/>
</svg>
