<svg width="22" height="22" viewBox="0 0 22 22" fill="none" xmlns="http://www.w3.org/2000/svg">
<path d="M15.4 4.40039H6.6C6.43135 4.40039 6.26628 4.40666 6.10103 4.41257C6.04015 4.41471 5.97695 4.41257 5.91769 4.41722C5.80096 4.42277 5.68853 4.43405 5.57376 4.44264C5.46777 4.4507 5.35964 4.45571 5.25508 4.46646C5.21283 4.47039 5.17326 4.47738 5.13154 4.48185C4.95806 4.50083 4.78529 4.52106 4.61825 4.54631C4.56758 4.554 4.51995 4.56475 4.46965 4.57316C4.31424 4.59876 4.15902 4.62472 4.00952 4.65588C3.92305 4.67396 3.84123 4.69598 3.75654 4.71567C3.64644 4.74146 3.53651 4.76491 3.43123 4.79302C3.41799 4.79678 3.40635 4.80107 3.39453 4.80448C2.43507 5.03024 1.54222 5.47926 0.789014 6.1152C0.764844 6.13758 0.746224 6.16157 0.723128 6.18431C0.649723 6.25754 0.576318 6.32861 0.514372 6.40417C0.506315 6.41383 0.500944 6.4244 0.492887 6.43389C0.344645 6.61274 0.224154 6.81273 0.135352 7.02721C0.128727 7.04404 0.126579 7.06159 0.120313 7.0786C0.0435059 7.27697 0.00286458 7.4877 0 7.70039C0 8.47848 0.518848 9.21808 1.46667 9.79888V16.1337C1.46667 16.9437 2.12337 17.6004 2.93333 17.6004H19.0667C19.8766 17.6004 20.5333 16.9437 20.5333 16.1337V9.79888C21.4812 9.21808 22 8.47884 22 7.70039C22 5.85023 19.1034 4.40039 15.4 4.40039ZM11 9.58869V16.1337C11 16.5387 10.6716 16.8671 10.2667 16.8671H2.93333C2.52835 16.8671 2.2 16.5387 2.2 16.1337V9.58869C2.2 9.45584 2.12803 9.33338 2.01183 9.26857C1.18719 8.80809 0.733333 8.25039 0.733333 7.70039C0.736377 7.57829 0.760189 7.45762 0.803695 7.34357C0.814079 7.30633 0.826253 7.26963 0.840397 7.23364C1.11862 6.62904 1.925 6.04717 3.1138 5.64917C3.14388 5.63932 3.17091 5.62804 3.20099 5.61838C3.31862 5.58185 3.44341 5.54515 3.56766 5.51221C3.60687 5.50146 3.64321 5.48911 3.68278 5.47873C3.78286 5.45277 3.88885 5.43075 3.99305 5.40765C4.06305 5.39189 4.12983 5.37417 4.20163 5.36003C4.53714 5.29217 4.89432 5.23971 5.26797 5.20122C5.29214 5.19854 5.31452 5.19495 5.33869 5.19245C5.44092 5.18242 5.54834 5.17741 5.6529 5.17007C5.75745 5.16273 5.85163 5.15324 5.95475 5.1484C6.01634 5.145 6.08115 5.1459 6.14346 5.14357C6.29385 5.13892 6.44388 5.13301 6.59893 5.13301C10.1079 5.13301 12.4656 6.46038 12.4656 7.69967C12.4656 8.24967 12.0116 8.80737 11.1869 9.26785C11.0711 9.33302 10.9996 9.45584 11 9.58869ZM20.1554 9.16706H13.5667V9.90039H19.8V16.1337C19.8 16.5387 19.4716 16.8671 19.0667 16.8671H11.5294C11.6614 16.6451 11.7319 16.3919 11.7333 16.1337V9.79888C12.6812 9.21808 13.2 8.47884 13.2 7.70039C13.2 6.65249 12.2694 5.73403 10.7914 5.13372H15.4C18.9086 5.13372 21.2667 6.4611 21.2667 7.70039C21.2667 8.21154 20.871 8.72699 20.1554 9.16706Z" fill="#23B16C"/>
<path d="M15.0332 11H15.7665V11.7333H15.0332V11Z" fill="#23B16C"/>
<path d="M17.9668 11.7324H18.7001V12.4658H17.9668V11.7324Z" fill="#23B16C"/>
<path d="M12.834 14.3008H13.5673V15.0341H12.834V14.3008Z" fill="#23B16C"/>
<path d="M17.5996 15.0332H18.3329V15.7665H17.5996V15.0332Z" fill="#23B16C"/>
<path d="M13.9336 6.23242H14.6669V6.96576H13.9336V6.23242Z" fill="#23B16C"/>
<path d="M17.9668 6.9668H18.7001V7.70013H17.9668V6.9668Z" fill="#23B16C"/>
</svg>
