<svg width="22" height="22" viewBox="0 0 22 22" fill="none" xmlns="http://www.w3.org/2000/svg">
<path d="M17.8311 2.55708C16.0341 1.35502 11.0508 -0.835771 3.61067 4.76019C1.24234 6.54187 0.377836 9.9671 0.0700083 12.5266C-0.211573 14.7868 0.3625 17.0706 1.67947 18.929V18.9292C1.93656 19.3131 2.24177 19.6625 2.58766 19.9689C3.16864 20.4446 4.46452 20.8906 5.76108 20.8906C6.22046 20.8951 6.67795 20.8311 7.11851 20.7009C8.17975 20.3949 9.00285 19.5549 9.28709 18.4876C10.1394 15.5955 10.6775 15.0286 14.9366 15.0286C17.1632 15.0286 20.1659 13.8495 21.345 11.6644C22.5815 9.37361 22.4032 5.61383 17.8311 2.55708ZM20.6999 11.3163C19.6937 13.1812 16.9796 14.2955 14.9366 14.2955C10.5811 14.2955 9.57164 14.9286 8.58402 18.2803C8.36967 19.1122 7.7291 19.7673 6.90227 20.0004C5.5911 20.3362 4.19956 20.1198 3.05227 19.4017C2.75759 19.1355 2.49702 18.8338 2.27656 18.5035V18.5037C1.0657 16.794 0.538322 14.6932 0.798124 12.6143C1.08881 10.1962 1.88922 6.97255 4.05175 5.34625C6.40466 3.57605 12.4179 -0.180681 17.4238 3.16655C20.0255 4.90595 22.4443 8.08418 20.6999 11.3163Z" fill="#23B16C"/>
<path d="M7.47861 12.4815C7.20261 12.0911 6.88735 11.6473 6.53283 11.1501C5.88475 10.1998 5.08416 9.36301 4.16343 8.67352C3.82781 8.43296 3.39682 8.36887 3.00575 8.50135C2.61978 8.6276 2.31822 8.93199 2.19563 9.31916C1.86598 10.4231 1.64183 11.5557 1.52623 12.702C1.28851 14.5994 1.76915 16.5171 2.87365 18.078C3.05605 18.3556 3.27199 18.6097 3.51659 18.8344C4.19277 19.2336 4.96586 19.4389 5.75106 19.4278C7.48149 19.4278 7.78218 18.4086 7.88098 18.0734C7.97583 17.7523 8.0675 17.4518 8.16128 17.1706C8.68866 15.5877 8.4356 13.8486 7.479 12.4817L7.47861 12.4815ZM7.46538 16.9389C7.36946 17.2277 7.27495 17.5364 7.17791 17.8663C7.09844 18.1351 6.9334 18.6946 5.75102 18.6946C5.13502 18.699 4.52731 18.5522 3.98121 18.2672C3.78769 18.0829 3.61638 17.8766 3.47075 17.6526C2.47231 16.2404 2.03841 14.5057 2.25435 12.7897C2.36462 11.6898 2.57867 10.6028 2.89367 9.54326C2.94582 9.37908 3.07388 9.25008 3.23767 9.19673C3.29515 9.17753 3.35533 9.16765 3.41594 9.16756C3.53201 9.16778 3.64511 9.2042 3.73953 9.27173C4.59407 9.91325 5.33632 10.692 5.93604 11.5764C6.29077 12.0732 6.60534 12.5159 6.87966 12.9044C7.70263 14.0807 7.91986 15.5772 7.46538 16.9389Z" fill="#23B16C"/>
<path d="M17.0163 3.77496C15.8144 2.9718 14.3981 2.55001 12.9526 2.56483C10.2023 2.56483 7.18211 3.66413 5.60809 5.2382C4.92366 5.92262 4.06487 7.38298 6.00187 9.47445C7.05697 10.5863 8.4858 11.2689 10.0137 11.3912C11.1391 11.469 12.233 11.7969 13.2158 12.351C14.0499 12.8741 15.0136 13.1541 15.9983 13.1593C16.8126 13.1628 17.6141 12.956 18.3251 12.5588C19.0373 12.1977 19.6358 11.6468 20.0545 10.9669C20.3959 10.3335 21.8547 7.01012 17.0163 3.77496ZM19.4093 10.6187C19.0533 11.1742 18.5544 11.6237 17.9649 11.9201C16.5842 12.6553 14.913 12.5817 13.6023 11.728C12.5232 11.1139 11.3202 10.7494 10.0817 10.6613C8.73357 10.5555 7.47211 9.95535 6.53956 8.97616C5.38046 7.7247 5.24154 6.64146 6.12645 5.75655C7.57409 4.30909 10.381 3.29802 12.9526 3.29802C14.2529 3.28393 15.5273 3.66259 16.6089 4.38448C20.9197 7.267 19.6979 10.0835 19.4093 10.6187Z" fill="#23B16C"/>
<path d="M16.4988 7.33008C15.4866 7.33008 14.666 8.15064 14.666 9.16291C14.666 10.1752 15.4866 10.9957 16.4988 10.9957C17.5111 10.9957 18.3317 10.1751 18.3317 9.16291C18.3305 8.15115 17.5106 7.33128 16.4988 7.33008ZM16.4988 10.2626C15.8915 10.2626 15.3992 9.77023 15.3992 9.16291C15.3992 8.55559 15.8915 8.06322 16.4988 8.06322C17.1062 8.06322 17.5985 8.55555 17.5985 9.16291C17.5979 9.76997 17.1059 10.262 16.4988 10.2626Z" fill="#23B16C"/>
</svg>
