<svg width="22" height="22" viewBox="0 0 22 22" fill="none" xmlns="http://www.w3.org/2000/svg">
<path d="M15.6594 0.991253C15.6594 0.752276 15.4697 0.5625 15.2307 0.5625H7.09841C6.85943 0.5625 6.66966 0.752276 6.66966 0.991253V4.31585C5.03899 4.33694 3.72461 5.6724 3.72461 7.30307V8.62448V17.2488V19.4206C3.72461 20.5944 4.68052 21.5574 5.86135 21.5574H16.4677C17.6415 21.5574 18.6045 20.6015 18.6045 19.4206V17.2488V8.62448V7.30307C18.6045 5.6724 17.2901 4.33694 15.6594 4.31585V0.991253ZM12.1169 4.28071H10.2824V1.46921C10.2824 1.44812 10.2824 1.43406 10.2754 1.41298H12.124C12.124 1.43406 12.1169 1.44812 12.1169 1.46921V4.28071ZM14.8019 4.28071H12.9674V1.46921C12.9674 1.44812 12.9674 1.43406 12.9604 1.41298H14.8019V4.28071ZM7.52717 1.42001H9.43196C9.43196 1.44109 9.42493 1.45515 9.42493 1.47624V4.28774H7.52717V1.42001ZM17.747 16.82H4.58212V9.04621H17.747V16.82ZM16.4677 20.6999H5.86135C5.15847 20.6999 4.58212 20.1235 4.58212 19.4206V17.6775H17.747V19.4206C17.747 20.1306 17.1776 20.6999 16.4677 20.6999ZM17.747 7.30307V8.19573H4.58212V7.30307C4.58212 6.12927 5.53803 5.16633 6.71886 5.16633H15.6173C16.7911 5.16633 17.747 6.12224 17.747 7.30307Z" fill="#23B16C"/>
<path d="M10.5292 14.6765C11.3305 14.6765 12.0825 14.2899 12.687 13.587L13.6148 14.5148C13.6991 14.5992 13.8046 14.6414 13.917 14.6414C14.0295 14.6414 14.1349 14.5992 14.2193 14.5148C14.388 14.3461 14.388 14.0791 14.2193 13.9104L13.2493 12.9404L14.2193 11.9704C14.388 11.8017 14.388 11.5346 14.2193 11.366C14.0506 11.1973 13.7835 11.1973 13.6148 11.366L12.687 12.2867C12.0825 11.5768 11.3305 11.1973 10.5292 11.1973C9.58029 11.1973 8.70873 11.7315 8.06208 12.7014C7.96368 12.842 7.96368 13.0318 8.06208 13.1723C8.70873 14.1423 9.58029 14.6765 10.5292 14.6765ZM10.5292 12.0477C11.1055 12.0477 11.6608 12.357 12.1177 12.9334C11.6608 13.5097 11.1055 13.819 10.5292 13.819C9.95282 13.819 9.39755 13.5097 8.94068 12.9334C9.39755 12.364 9.95282 12.0477 10.5292 12.0477Z" fill="#23B16C"/>
</svg>
