<svg width="22" height="22" viewBox="0 0 22 22" fill="none" xmlns="http://www.w3.org/2000/svg">
<path d="M13.6188 6.76448C13.0138 7.16942 12.8471 7.99614 13.2469 8.60698L14.7663 10.9311C14.9605 11.2281 15.2595 11.4309 15.6074 11.502C15.6961 11.5199 15.7848 11.5289 15.8728 11.5289C16.1292 11.5289 16.3802 11.4532 16.5978 11.3071C17.2031 10.9025 17.3702 10.0758 16.9704 9.46498L15.4507 7.14089C15.2568 6.84354 14.9577 6.64073 14.6102 6.56992C14.264 6.49945 13.9117 6.5682 13.6185 6.76414L13.6188 6.76448ZM14.8756 7.51695L16.3953 9.84104C16.5895 10.1384 16.5091 10.5399 16.2162 10.7362C16.0773 10.829 15.9103 10.861 15.7453 10.8286C15.5785 10.7946 15.4355 10.6973 15.342 10.555L13.8227 8.23092C13.6285 7.93392 13.7085 7.53242 14.0018 7.33579C14.1056 7.2667 14.2245 7.23061 14.3469 7.23061C14.3888 7.23061 14.4315 7.23507 14.4737 7.24367C14.6401 7.2777 14.7831 7.37464 14.8763 7.51695H14.8756Z" fill="#23B16C"/>
<path d="M4.116 9.28228L3.88225 9.42941C3.10469 9.91891 2.64062 10.759 2.64062 11.6779V19.7715C2.64062 20.6216 3.33225 21.3128 4.182 21.3128H8.79616C8.83706 21.3128 8.87522 21.3039 8.91509 21.3008C8.9835 21.3084 9.05466 21.3128 9.12238 21.3128H17.4892C18.5205 21.3128 19.3593 20.4648 19.3593 19.4222V12.6194C19.3593 10.3534 18.526 8.20669 16.9502 6.41162C16.1142 5.45428 15.3085 4.88263 14.2257 4.47734V1.83494C14.2257 1.20209 13.7111 0.6875 13.0783 0.6875H10.6486C10.0158 0.6875 9.50119 1.20209 9.50119 1.83494V4.47769C9.15606 4.60419 8.84291 4.76438 8.56722 4.95619C8.51875 4.37078 8.032 3.90706 7.43422 3.90706H5.54359C4.91384 3.90706 4.40131 4.41959 4.40131 5.04934V6.81656C4.40131 7.25759 4.65569 7.63709 5.02281 7.82719C4.95922 8.42359 4.63163 8.95709 4.11566 9.28194L4.116 9.28228ZM10.3379 12.6101V11.6779C10.3379 11.5651 10.3307 11.4541 10.3169 11.3441H11.9071C12.6898 11.3441 13.3268 11.9811 13.3268 12.7638V16.8269C13.3268 17.6096 12.6898 18.2466 11.9071 18.2466H10.3382L10.3379 12.6101ZM9.65038 18.0534H3.32812V12.9539H9.65038V18.0534ZM3.32812 19.7715V18.7409H9.65038V19.7715C9.65038 20.2424 9.26744 20.6253 8.7965 20.6253H4.18234C3.71141 20.6253 3.32847 20.2424 3.32847 19.7715H3.32812ZM16.4333 6.86503C17.4549 8.02828 18.6721 9.97081 18.6721 12.6194V19.4222C18.6721 20.0857 18.1417 20.6253 17.4896 20.6253H10.0783C10.242 20.3806 10.3379 20.087 10.3379 19.7715V18.9341H11.9067C13.0686 18.9341 14.0139 17.9888 14.0139 16.8269V12.7638C14.0139 11.6019 13.0686 10.6566 11.9067 10.6566H10.1333C9.92641 10.1585 9.57063 9.72812 9.09625 9.42975L8.86216 9.28194C8.34653 8.95744 8.01894 8.42394 7.95534 7.82753C8.32247 7.63744 8.57684 7.25794 8.57684 6.81691V5.83997C8.90684 5.50138 9.36094 5.23153 9.90819 5.05863H13.8177C14.8737 5.42541 15.6354 5.95031 16.4333 6.86503ZM10.189 1.83528C10.189 1.58194 10.3956 1.37534 10.649 1.37534H13.0786C13.3319 1.37534 13.5385 1.58194 13.5385 1.83528V4.37113H10.189V1.83528ZM5.08916 5.05003C5.08916 4.79944 5.29334 4.59525 5.54394 4.59525H7.43456C7.68516 4.59525 7.88934 4.79944 7.88934 5.05003V5.71588C7.88934 5.71588 7.88934 5.71862 7.88934 5.72034V6.81725C7.88934 7.06784 7.68516 7.27203 7.43456 7.27203H5.54394C5.29334 7.27203 5.08916 7.06784 5.08916 6.81725V5.05003ZM5.70206 7.95953H7.27644C7.37681 8.74087 7.81681 9.43662 8.49606 9.86391L8.73016 10.0117C9.30628 10.3744 9.65038 10.9972 9.65038 11.6782V12.2667H3.32812V11.6782C3.32812 10.9976 3.67222 10.3744 4.24869 10.0114L4.48244 9.86425C5.16203 9.43662 5.60169 8.74087 5.70206 7.95953Z" fill="#23B16C"/>
</svg>
