<svg width="22" height="22" viewBox="0 0 22 22" fill="none" xmlns="http://www.w3.org/2000/svg">
<path d="M3.00139 19.5882C2.98851 19.7479 3.06581 19.9034 3.20754 19.9832C5.49234 21.3277 7.99617 22 10.5 22C13.0038 22 15.5077 21.3277 17.7925 19.9832C17.9342 19.8992 18.0115 19.7479 17.9986 19.5882C17.6765 15.958 14.2579 12.1345 13.1327 10.8782C13.0854 10.8235 13.0339 10.7689 12.9909 10.7185C13.7039 9.84454 14.9408 8.16386 14.9365 7.01681C14.9322 6.16387 14.4426 5.42017 14.0131 4.7605C13.7855 4.40756 13.5493 4.05042 13.4848 3.78992C13.4848 3.7479 13.4891 3.70588 13.4891 3.66387V1.42017C13.4891 1.18908 13.2959 1 13.0597 1C12.8235 1 12.6302 1.18908 12.6302 1.42017V3.54202C12.6173 3.57983 12.6044 3.62185 12.6044 3.66387C12.6044 3.73109 12.613 3.79412 12.6216 3.86134C12.5443 5.36134 11.6252 6.55042 10.5043 6.55042C9.37907 6.55042 8.46 5.36134 8.38699 3.86134C8.39558 3.79412 8.40417 3.73109 8.40417 3.66387C8.40417 3.62185 8.39128 3.58403 8.3784 3.54202V1.42017C8.3784 1.18908 8.18514 1 7.94893 1C7.71272 1 7.51945 1.18908 7.51945 1.42017V3.66387C7.51945 3.70588 7.52375 3.7479 7.52375 3.78992C7.45933 4.05042 7.22312 4.41176 6.9912 4.76471C6.56173 5.42437 6.07213 6.16807 6.06783 7.02101C6.05924 8.16387 7.28754 9.83613 8.01335 10.7227C7.96611 10.7731 7.91886 10.8277 7.87162 10.8824C6.74211 12.1345 3.3235 15.958 3.00139 19.5882ZM6.92678 7.02101C6.93107 6.41176 7.34766 5.77731 7.71272 5.21429C7.7299 5.18908 7.74278 5.16387 7.75996 5.14286C8.2195 6.46639 9.27171 7.39076 10.5 7.39076C11.724 7.39076 12.7805 6.46218 13.24 5.14286C13.2572 5.16807 13.2701 5.19328 13.2873 5.21429C13.6566 5.77731 14.0689 6.41176 14.0732 7.02101C14.0775 7.79412 13.1112 9.23529 12.2351 10.2941H8.76493C7.8888 9.23529 6.92248 7.79832 6.92678 7.02101ZM8.51154 11.4286C8.6232 11.3025 8.70909 11.2059 8.77352 11.1303H12.2179C12.2823 11.2059 12.3682 11.3025 12.4799 11.4286C13.5278 12.6008 16.6672 16.1134 17.1053 19.3992C12.9437 21.7437 8.03912 21.7437 3.87752 19.3992C4.32417 16.1134 7.46362 12.605 8.51154 11.4286Z" fill="#23B16C"/>
</svg>
