<svg width="22" height="22" viewBox="0 0 22 22" fill="none" xmlns="http://www.w3.org/2000/svg">
<mask id="mask0_206_7549" style="mask-type:luminance" maskUnits="userSpaceOnUse" x="1" y="1" width="20" height="20">
<path d="M1 1H21V21H1V1Z" fill="white"/>
</mask>
<g mask="url(#mask0_206_7549)">
<path d="M2.56279 7.72714C4.05171 6.8692 5.96989 7.38382 6.82926 8.87235L10.9597 16.0264C11.5665 16.1152 12.1513 16.393 12.6187 16.8603L12.6187 16.8603C12.7197 16.9613 12.8119 17.068 12.8953 17.1792C13.0605 16.8554 13.2785 16.5516 13.5495 16.2806C14.4729 15.3572 15.7777 15.0486 16.9552 15.3529L16.983 15.3602L16.9956 15.3638C17.1246 15.4029 17.2247 15.506 17.2596 15.6368C17.5735 16.8123 17.2746 18.1191 16.3609 19.0485L16.3392 19.0704C15.4346 19.975 14.1639 20.2895 13.0056 20.016C12.3114 20.1752 11.5701 20.081 10.9301 19.7326C10.6816 20.066 10.3326 20.4058 9.97233 20.5892C8.48448 21.441 6.5714 20.9257 5.71349 19.4397L1.41664 11.9973C0.556824 10.508 1.07115 8.58831 2.56042 7.72848C2.5612 7.72803 2.562 7.72759 2.56279 7.72714ZM4.43693 15.6662L6.3901 19.0491C7.03418 20.1647 8.47608 20.5511 9.59167 19.907C9.59843 19.9031 9.60531 19.8994 9.61229 19.8959C9.84176 19.7811 10.1064 19.5293 10.2998 19.2713C10.2842 19.2563 10.2686 19.2411 10.2532 19.2258C9.47959 18.4521 9.22525 17.3564 9.48818 16.3718C9.52425 16.2368 9.62976 16.1313 9.76482 16.0952C9.86256 16.0691 9.96142 16.0482 10.0609 16.0323L8.49638 13.3224L4.43693 15.6662ZM16.5552 16.0646C15.691 15.9096 14.7688 16.1661 14.1019 16.8331H14.1019C13.5647 17.3702 13.2937 18.073 13.2896 18.7777L14.6935 17.3739L14.7007 17.3668C14.8538 17.2214 15.0958 17.2237 15.2459 17.3739C15.3985 17.5264 15.3985 17.7737 15.2459 17.9263L13.8421 19.3301C14.5468 19.326 15.2496 19.0551 15.7868 18.518C16.4536 17.851 16.7102 16.9288 16.5552 16.0646ZM12.0394 17.3864C11.5325 16.8963 10.8458 16.7012 10.1949 16.802C10.0923 17.4644 10.2963 18.1639 10.8057 18.6733C11.2812 19.1488 11.9223 19.3582 12.5444 19.3004C12.4911 18.9282 12.4969 18.5491 12.5619 18.1781C12.4564 17.8995 12.2915 17.638 12.0663 17.4127L12.0394 17.3864ZM6.15269 9.26296C5.5086 8.14734 4.06668 7.761 2.95109 8.40509C2.95089 8.4052 2.95068 8.40529 2.95049 8.4054C1.83534 9.04964 1.44923 10.4913 2.09321 11.6067L4.04632 14.9896L8.10577 12.6458L6.15269 9.26296ZM15.1709 2.56045C16.024 1.08282 17.9205 0.564929 19.4047 1.3967L19.4397 1.41661L19.4397 1.41664L19.4744 1.43698C20.9369 2.30642 21.4367 4.20783 20.5835 5.68546L16.2866 13.1279C15.4268 14.6171 13.5071 15.1315 12.0178 14.2718C12.0173 14.2714 12.0167 14.271 12.0161 14.2707C10.5281 13.4104 10.0145 11.4915 10.874 10.0029L15.1709 2.56045ZM11.5506 10.3935C10.9115 11.5004 11.2869 12.9285 12.3824 13.5799L12.4084 13.5951L12.4088 13.5954C13.5244 14.2391 14.966 13.8527 15.61 12.7372L17.5632 9.35432L13.5037 7.0106L11.5506 10.3935ZM19.0486 2.09295C17.9331 1.44923 16.4914 1.83561 15.8474 2.95106L13.8943 6.33402L17.9538 8.67771L19.9069 5.29481C20.551 4.17923 20.1647 2.7373 19.0491 2.09321C19.0489 2.09313 19.0488 2.09304 19.0486 2.09295Z" fill="#23B16C"/>
</g>
</svg>
