<svg width="22" height="22" viewBox="0 0 22 22" fill="none" xmlns="http://www.w3.org/2000/svg">
<path d="M21.5922 4.66318L19.3134 2.38438C19.0504 2.12137 18.6997 1.97656 18.326 1.97656C17.9522 1.97656 17.6015 2.12145 17.3385 2.38442C16.9085 2.81441 16.8181 3.45735 17.0673 3.97693L11.2529 8.85155H7.8056C7.84732 7.70708 7.42786 6.61842 6.62199 5.8125C5.57557 4.76613 4.01693 4.3749 2.5544 4.79161C2.4114 4.83235 2.2996 4.94411 2.25891 5.08711C1.88078 6.41437 2.16798 7.82069 3.0063 8.85155H1.28906C0.578272 8.85155 0 9.42982 0 10.1406C0 13.2768 1.49729 16.2331 4.01662 18.0943V19.5937C4.01662 19.831 4.209 20.0234 4.44631 20.0234H15.3193C15.5566 20.0234 15.749 19.831 15.749 19.5937V18.0943C18.2683 16.233 19.7656 13.2768 19.7656 10.1406C19.7656 9.42982 19.1873 8.85155 18.4765 8.85155H18.3713L19.9996 6.90932C20.5192 7.15846 21.1622 7.06805 21.5921 6.63806C21.8552 6.37505 22 6.02438 22 5.6506C22 5.27686 21.8552 4.92615 21.5922 4.66318ZM3.88746 8.54703C3.11733 7.7769 2.79803 6.65087 3.02684 5.55959C4.1182 5.33074 5.2442 5.65008 6.01428 6.42021C6.65615 7.06203 6.98671 7.93417 6.94541 8.85155H6.92651L4.5863 6.5113C4.41851 6.34351 4.14648 6.34355 3.9786 6.5113C3.81081 6.6791 3.81081 6.95117 3.9786 7.11901L5.71114 8.85155H4.24023C4.11562 8.75899 3.99733 8.6569 3.88746 8.54703ZM14.8896 19.164H4.876V18.3047H14.8896V19.164H14.8896ZM15.1807 17.4453H4.58489C3.63635 16.7561 2.84375 15.898 2.23691 14.9285H17.5287C16.9218 15.898 16.1292 16.7561 15.1807 17.4453ZM18.9062 10.1406C18.9062 11.5193 18.5893 12.8598 18.0038 14.0691H1.76176C1.17631 12.8598 0.859373 11.5193 0.859373 10.1406C0.859373 9.90368 1.05213 9.71092 1.28906 9.71092H18.4765C18.7135 9.71092 18.9062 9.90372 18.9062 10.1406ZM20.9845 6.03044C20.7751 6.23987 20.4343 6.23991 20.2249 6.03044C20.1397 5.94523 20.0227 5.89952 19.9023 5.90502C19.7819 5.9103 19.6692 5.9659 19.5918 6.0582L17.2499 8.85155H12.5905L17.9184 4.38478C18.0107 4.30735 18.0663 4.19473 18.0715 4.07434C18.0768 3.95394 18.0313 3.83689 17.9461 3.75168C17.7367 3.54225 17.7367 3.20151 17.9462 2.99208C18.0468 2.89141 18.1817 2.83594 18.3259 2.83594C18.4701 2.83594 18.605 2.89141 18.7057 2.99208L20.9845 5.27088C21.0852 5.37156 21.1406 5.50644 21.1406 5.65064C21.1406 5.79484 21.0852 5.92972 20.9845 6.03044Z" fill="#23B16C"/>
<path d="M8.78715 7.47008C9.1315 7.56818 9.48165 7.61596 9.82798 7.61596C10.7912 7.61596 11.7235 7.24608 12.409 6.5606C13.2815 5.68808 13.6426 4.41599 13.3806 3.18872L13.8592 2.71013C14.027 2.54234 14.027 2.27026 13.8592 2.10242C13.6914 1.93459 13.4194 1.93463 13.2515 2.10242L12.7729 2.58101C11.5457 2.31903 10.2736 2.68018 9.40104 3.5527C8.46914 4.48465 8.12062 5.87246 8.49157 7.17454C8.53234 7.31754 8.64415 7.42935 8.78715 7.47008ZM10.0088 4.16037C10.5346 3.63452 11.2534 3.35277 11.9973 3.35677L10.6012 4.75282C10.4334 4.92061 10.4334 5.19269 10.6012 5.36053C10.6851 5.44445 10.7951 5.48638 10.905 5.48638C11.015 5.48638 11.125 5.44445 11.2089 5.36053L12.6049 3.96443C12.6089 4.70835 12.3271 5.42704 11.8013 5.95294C11.1458 6.60843 10.1907 6.88467 9.26075 6.70094C9.07706 5.77092 9.35331 4.81586 10.0088 4.16037Z" fill="#23B16C"/>
</svg>
