<svg width="22" height="22" viewBox="0 0 22 22" fill="none" xmlns="http://www.w3.org/2000/svg">
<path d="M16.8438 5.66397V4.46875H17.1875C17.2787 4.46875 17.3661 4.43253 17.4306 4.36807C17.495 4.3036 17.5313 4.21617 17.5313 4.125V1.71875C17.5313 1.35408 17.3864 1.00434 17.1285 0.746478C16.8707 0.488616 16.5209 0.34375 16.1563 0.34375H5.84375C5.47908 0.34375 5.12934 0.488616 4.87148 0.746478C4.61362 1.00434 4.46875 1.35408 4.46875 1.71875V4.125C4.46875 4.21617 4.50497 4.3036 4.56944 4.36807C4.6339 4.43253 4.72133 4.46875 4.8125 4.46875H5.15625V5.66397C4.51712 6.12429 3.99673 6.73013 3.63809 7.43139C3.27945 8.13265 3.09286 8.9092 3.09375 9.69684V19.25C3.09448 19.888 3.34823 20.4996 3.79933 20.9507C4.25043 21.4018 4.86205 21.6555 5.5 21.6562H16.5C17.138 21.6555 17.7496 21.4018 18.2007 20.9507C18.6518 20.4996 18.9055 19.888 18.9063 19.25V9.69684C18.9071 8.9092 18.7206 8.13265 18.3619 7.43139C18.0033 6.73013 17.4829 6.12429 16.8438 5.66397ZM15.4688 1.03125H16.1563C16.3386 1.03125 16.5135 1.10368 16.6424 1.23261C16.7713 1.36155 16.8438 1.53641 16.8438 1.71875V3.78125H15.4688V1.03125ZM13.4063 1.03125H14.7813V3.78125H13.4063V1.03125ZM11.3438 1.03125H12.7188V3.78125H11.3438V1.03125ZM9.28125 1.03125H10.6563V3.78125H9.28125V1.03125ZM7.21875 1.03125H8.59375V3.78125H7.21875V1.03125ZM5.15625 1.71875C5.15625 1.53641 5.22869 1.36155 5.35762 1.23261C5.48655 1.10368 5.66142 1.03125 5.84375 1.03125H6.53125V3.78125H5.15625V1.71875ZM18.2188 19.25C18.2182 19.7057 18.0369 20.1425 17.7147 20.4647C17.3925 20.7869 16.9557 20.9682 16.5 20.9688H5.5C5.04433 20.9682 4.60748 20.7869 4.28527 20.4647C3.96306 20.1425 3.7818 19.7057 3.78125 19.25V9.69684C3.78048 8.99225 3.95376 8.29837 4.28568 7.67686C4.61761 7.05535 5.09791 6.52544 5.68391 6.13422C5.73288 6.10321 5.77322 6.06031 5.80116 6.00953C5.82911 5.95874 5.84376 5.90172 5.84375 5.84375V4.46875H16.1563V5.84375C16.1563 5.90078 16.1705 5.95691 16.1976 6.00707C16.2247 6.05724 16.2639 6.09987 16.3116 6.13113C16.8989 6.52215 17.3803 7.05233 17.713 7.67445C18.0458 8.29657 18.2195 8.99133 18.2188 9.69684V19.25Z" fill="#23B16C"/>
<path d="M14.6094 14.6355L13.0625 13.7424V11.9549C13.0625 11.8946 13.0466 11.8353 13.0164 11.7831C12.9863 11.7308 12.9429 11.6874 12.8906 11.6573L11.1719 10.6652C11.1196 10.635 11.0603 10.6191 11 10.6191C10.9397 10.6191 10.8804 10.635 10.8281 10.6652L9.10938 11.6573C9.05712 11.6874 9.01373 11.7308 8.98356 11.7831C8.95339 11.8353 8.9375 11.8946 8.9375 11.9549V13.7424L7.39062 14.6362C7.33837 14.6664 7.29498 14.7098 7.26481 14.762C7.23464 14.8143 7.21875 14.8735 7.21875 14.9339V16.9184C7.21875 16.9787 7.23464 17.038 7.26481 17.0902C7.29498 17.1425 7.33837 17.1859 7.39062 17.216L9.10938 18.2081C9.16163 18.2383 9.22091 18.2542 9.28125 18.2542C9.34159 18.2542 9.40087 18.2383 9.45312 18.2081L11 17.3143L12.5469 18.2081C12.5991 18.2383 12.6584 18.2542 12.7188 18.2542C12.7791 18.2542 12.8384 18.2383 12.8906 18.2081L14.6094 17.216C14.6616 17.1859 14.705 17.1425 14.7352 17.0902C14.7654 17.038 14.7812 16.9787 14.7812 16.9184V14.9332C14.7812 14.8729 14.7654 14.8136 14.7352 14.7613C14.705 14.7091 14.6616 14.6657 14.6094 14.6355ZM10.6562 16.7193L9.28125 17.513L7.90625 16.7193V15.1315L9.28125 14.3375L10.6562 15.1315V16.7193ZM9.625 13.7421V12.1543L11 11.3606L12.375 12.1543V13.7421L11 14.5362L9.625 13.7421ZM14.0938 16.7193L12.7188 17.513L11.3438 16.7193V15.1315L12.7188 14.3375L14.0938 15.1315V16.7193Z" fill="#23B16C"/>
<path d="M13.0642 8.59323C12.3242 8.57701 11.5876 8.69967 10.8927 8.95485C10.2674 9.18575 9.60396 9.29632 8.9375 9.28073C8.27127 9.29615 7.60813 9.18558 6.98294 8.95485C6.28841 8.69976 5.55222 8.5771 4.8125 8.59323C4.72133 8.59323 4.6339 8.62944 4.56943 8.69391C4.50497 8.75838 4.46875 8.84581 4.46875 8.93698V19.2495C4.46875 19.523 4.5774 19.7853 4.7708 19.9787C4.96419 20.1721 5.2265 20.2807 5.5 20.2807H16.5C16.7735 20.2807 17.0358 20.1721 17.2292 19.9787C17.4226 19.7853 17.5312 19.523 17.5312 19.2495V9.62448C17.5312 9.53331 17.495 9.44588 17.4306 9.38141C17.3661 9.31694 17.2787 9.28073 17.1875 9.28073C16.5218 9.29619 15.8592 9.18562 15.2347 8.95485C14.5402 8.69961 13.8039 8.57695 13.0642 8.59323ZM16.8438 19.2495C16.8438 19.3406 16.8075 19.4281 16.7431 19.4925C16.6786 19.557 16.5912 19.5932 16.5 19.5932H5.5C5.40883 19.5932 5.3214 19.557 5.25693 19.4925C5.19247 19.4281 5.15625 19.3406 5.15625 19.2495V9.28795C5.70675 9.30757 6.25056 9.41515 6.76706 9.6066C7.46159 9.86169 8.19778 9.98435 8.9375 9.96823C9.67756 9.98445 10.4141 9.86179 11.109 9.6066C11.7344 9.37571 12.3978 9.26514 13.0642 9.28073C13.73 9.26524 14.3927 9.37581 15.0174 9.6066C15.6031 9.82262 16.2198 9.94242 16.8438 9.96135V19.2495Z" fill="#23B16C"/>
</svg>
